<?xml version="1.0" encoding="utf-8" standalone="no"?>
<!DOCTYPE svg PUBLIC "-//W3C//DTD SVG 1.1//EN"
  "http://www.w3.org/Graphics/SVG/1.1/DTD/svg11.dtd">
<svg xmlns:xlink="http://www.w3.org/1999/xlink" width="1440pt" height="720pt" viewBox="0 0 1440 720" xmlns="http://www.w3.org/2000/svg" version="1.1">
 <metadata>
  <rdf:RDF xmlns:dc="http://purl.org/dc/elements/1.1/" xmlns:cc="http://creativecommons.org/ns#" xmlns:rdf="http://www.w3.org/1999/02/22-rdf-syntax-ns#">
   <cc:Work>
    <dc:type rdf:resource="http://purl.org/dc/dcmitype/StillImage"/>
    <dc:date>2024-08-20T17:48:02.766842</dc:date>
    <dc:format>image/svg+xml</dc:format>
    <dc:creator>
     <cc:Agent>
      <dc:title>Matplotlib v3.9.2, https://matplotlib.org/</dc:title>
     </cc:Agent>
    </dc:creator>
   </cc:Work>
  </rdf:RDF>
 </metadata>
 <defs>
  <style type="text/css">*{stroke-linejoin: round; stroke-linecap: butt}</style>
 </defs>
 <g id="figure_1">
  <g id="patch_1">
   <path d="M 0 720 
L 1440 720 
L 1440 0 
L 0 0 
z
" style="fill: #ffffff"/>
  </g>
  <g id="axes_1">
   <g id="patch_2">
    <path d="M 534.203636 372.36 
C 534.203636 340.071095 527.843426 308.09616 515.486997 278.265102 
C 503.130569 248.434044 485.018223 221.327002 462.186519 198.495299 
C 439.354816 175.663596 412.247774 157.55125 382.416716 145.194821 
C 352.585658 132.838392 320.610723 126.478182 288.321818 126.478182 
C 256.032914 126.478182 224.057978 132.838392 194.22692 145.194821 
C 164.395862 157.55125 137.288821 175.663596 114.457117 198.495299 
C 91.625414 221.327002 73.513068 248.434044 61.156639 278.265102 
C 48.80021 308.09616 42.44 340.071095 42.44 372.36 
C 42.44 404.648905 48.80021 436.62384 61.156639 466.454898 
C 73.513068 496.285956 91.625414 523.392998 114.457117 546.224701 
C 137.288821 569.056404 164.395862 587.16875 194.22692 599.525179 
C 224.057978 611.881608 256.032914 618.241818 288.321818 618.241818 
C 320.610723 618.241818 352.585658 611.881608 382.416716 599.525179 
C 412.247774 587.16875 439.354816 569.056404 462.186519 546.224701 
C 485.018223 523.392998 503.130569 496.285956 515.486997 466.454898 
C 527.843426 436.62384 534.203636 404.648905 534.203636 372.36 
M 288.321818 372.36 
C 288.321818 372.36 288.321818 372.36 288.321818 372.36 
C 288.321818 372.36 288.321818 372.36 288.321818 372.36 
C 288.321818 372.36 288.321818 372.36 288.321818 372.36 
C 288.321818 372.36 288.321818 372.36 288.321818 372.36 
C 288.321818 372.36 288.321818 372.36 288.321818 372.36 
C 288.321818 372.36 288.321818 372.36 288.321818 372.36 
C 288.321818 372.36 288.321818 372.36 288.321818 372.36 
C 288.321818 372.36 288.321818 372.36 288.321818 372.36 
C 288.321818 372.36 288.321818 372.36 288.321818 372.36 
C 288.321818 372.36 288.321818 372.36 288.321818 372.36 
C 288.321818 372.36 288.321818 372.36 288.321818 372.36 
C 288.321818 372.36 288.321818 372.36 288.321818 372.36 
C 288.321818 372.36 288.321818 372.36 288.321818 372.36 
C 288.321818 372.36 288.321818 372.36 288.321818 372.36 
C 288.321818 372.36 288.321818 372.36 288.321818 372.36 
C 288.321818 372.36 288.321818 372.36 288.321818 372.36 
z
" style="fill: #ffffff"/>
   </g>
   <g id="patch_3">
    <path d="M 288.321818 314.837455 
L 322.12288 268.331029 
L 309.168141 343.667498 
L 324.850985 345.820007 
L 311.035772 364.979789 
L 330.117779 372.36 
L 349.896941 392.36697 
L 391.204889 447.108927 
L 352.823699 461.139223 
L 312.163052 445.735774 
L 288.321818 467.576661 
L 262.590115 451.554038 
L 241.60764 436.65655 
L 205.380205 432.620609 
L 167.022018 411.772694 
L 191.819419 372.36 
L 281.820007 370.247434 
L 227.095191 327.876252 
L 263.464958 338.147467 
L 264.887861 300.237695 
z
" clip-path="url(#pfc818532d6)" style="fill: #808080; opacity: 0.1; stroke: #808080; stroke-linejoin: miter"/>
   </g>
   <g id="patch_4">
    <path d="M 288.321818 296.682232 
L 325.917716 256.651726 
L 306.223594 347.72032 
L 329.654543 342.330018 
L 305.377922 366.818136 
L 356.521483 372.36 
L 357.920663 394.974035 
L 399.806205 453.358148 
L 379.911597 498.422516 
L 311.048469 442.30544 
L 288.321818 413.820808 
L 260.20047 458.90861 
L 252.538722 421.611207 
L 219.662301 422.244059 
L 132.142493 423.105739 
L 233.257488 372.36 
L 283.368969 370.750722 
L 225.074585 326.408195 
L 274.172938 352.885737 
L 267.662476 308.777081 
z
" clip-path="url(#pfc818532d6)" style="fill: #808080; opacity: 0.1; stroke: #808080; stroke-linejoin: miter"/>
   </g>
   <g id="patch_5">
    <path d="M 288.321818 327.926777 
L 333.561104 233.127795 
L 292.450456 366.677417 
L 308.240598 357.88816 
L 298.118818 369.176762 
L 333.500643 372.36 
L 346.00759 391.103243 
L 368.364782 430.514617 
L 404.997531 532.950342 
L 302.594566 416.287 
L 288.321818 385.313537 
L 274.940654 413.542988 
L 247.388005 428.70056 
L 215.346792 425.37946 
L 65.509178 444.756215 
L 147.707486 372.36 
L 286.206492 371.672689 
L 230.669932 330.473453 
L 280.977957 362.252043 
L 251.869077 260.169998 
z
" clip-path="url(#pfc818532d6)" style="fill: #808080; opacity: 0.05; stroke: #808080; stroke-linejoin: miter"/>
   </g>
   <g id="patch_6">
    <path d="M 288.321818 294.293133 
L 329.477285 245.696498 
L 297.069575 360.319746 
L 317.918765 350.856559 
L 299.513268 368.723678 
L 366.166557 372.36 
L 353.79103 393.632236 
L 396.702589 451.103239 
L 403.017031 530.224417 
L 311.924819 445.002568 
L 288.321818 390.419002 
L 260.906381 456.736041 
L 257.426383 414.883918 
L 231.921828 413.336991 
L 102.064442 432.87869 
L 230.245832 372.36 
L 284.897355 371.247324 
L 224.551601 326.028225 
L 281.326224 362.731391 
L 265.692641 302.714555 
z
" clip-path="url(#pfc818532d6)" style="fill: #808080; opacity: 0.05; stroke: #808080; stroke-linejoin: miter"/>
   </g>
   <g id="matplotlib.axis_1">
    <g id="xtick_1">
     <g id="line2d_1">
      <path d="M 288.321818 372.36 
L 288.321818 126.478182 
" clip-path="url(#pfc818532d6)" style="fill: none; stroke: #b0b0b0; stroke-width: 0.8; stroke-linecap: square"/>
     </g>
     <g id="text_1">
      <!-- I -->
      <g transform="translate(285.371818 117.996932) scale(0.2 -0.2)">
       <defs>
        <path id="DejaVuSans-49" d="M 628 4666 
L 1259 4666 
L 1259 0 
L 628 0 
L 628 4666 
z
" transform="scale(0.015625)"/>
       </defs>
       <use xlink:href="#DejaVuSans-49"/>
      </g>
     </g>
    </g>
    <g id="xtick_2">
     <g id="line2d_2">
      <path d="M 288.321818 372.36 
L 364.303479 138.512495 
" clip-path="url(#pfc818532d6)" style="fill: none; stroke: #b0b0b0; stroke-width: 0.8; stroke-linecap: square"/>
     </g>
     <g id="text_2">
      <!-- L -->
      <g transform="translate(363.057842 130.716453) scale(0.2 -0.2)">
       <defs>
        <path id="DejaVuSans-4c" d="M 628 4666 
L 1259 4666 
L 1259 531 
L 3531 531 
L 3531 0 
L 628 0 
L 628 4666 
z
" transform="scale(0.015625)"/>
       </defs>
       <use xlink:href="#DejaVuSans-4c"/>
      </g>
     </g>
    </g>
    <g id="xtick_3">
     <g id="line2d_3">
      <path d="M 288.321818 372.36 
L 432.847525 173.43743 
" clip-path="url(#pfc818532d6)" style="fill: none; stroke: #b0b0b0; stroke-width: 0.8; stroke-linecap: square"/>
     </g>
     <g id="text_3">
      <!-- M -->
      <g transform="translate(432.448393 167.629943) scale(0.2 -0.2)">
       <defs>
        <path id="DejaVuSans-4d" d="M 628 4666 
L 1569 4666 
L 2759 1491 
L 3956 4666 
L 4897 4666 
L 4897 0 
L 4281 0 
L 4281 4097 
L 3078 897 
L 2444 897 
L 1241 4097 
L 1241 0 
L 628 0 
L 628 4666 
z
" transform="scale(0.015625)"/>
       </defs>
       <use xlink:href="#DejaVuSans-4d"/>
      </g>
     </g>
    </g>
    <g id="xtick_4">
     <g id="line2d_4">
      <path d="M 288.321818 372.36 
L 487.244388 227.834293 
" clip-path="url(#pfc818532d6)" style="fill: none; stroke: #b0b0b0; stroke-width: 0.8; stroke-linecap: square"/>
     </g>
     <g id="text_4">
      <!-- F -->
      <g transform="translate(492.819063 225.12405) scale(0.2 -0.2)">
       <defs>
        <path id="DejaVuSans-46" d="M 628 4666 
L 3309 4666 
L 3309 4134 
L 1259 4134 
L 1259 2759 
L 3109 2759 
L 3109 2228 
L 1259 2228 
L 1259 0 
L 628 0 
L 628 4666 
z
" transform="scale(0.015625)"/>
       </defs>
       <use xlink:href="#DejaVuSans-46"/>
      </g>
     </g>
    </g>
    <g id="xtick_5">
     <g id="line2d_5">
      <path d="M 288.321818 372.36 
L 522.169324 296.37834 
" clip-path="url(#pfc818532d6)" style="fill: none; stroke: #b0b0b0; stroke-width: 0.8; stroke-linecap: square"/>
     </g>
     <g id="text_5">
      <!-- W -->
      <g transform="translate(525.596615 297.570852) scale(0.2 -0.2)">
       <defs>
        <path id="DejaVuSans-57" d="M 213 4666 
L 850 4666 
L 1831 722 
L 2809 4666 
L 3519 4666 
L 4500 722 
L 5478 4666 
L 6119 4666 
L 4947 0 
L 4153 0 
L 3169 4050 
L 2175 0 
L 1381 0 
L 213 4666 
z
" transform="scale(0.015625)"/>
       </defs>
       <use xlink:href="#DejaVuSans-57"/>
      </g>
     </g>
    </g>
    <g id="xtick_6">
     <g id="line2d_6">
      <path d="M 288.321818 372.36 
L 534.203636 372.36 
" clip-path="url(#pfc818532d6)" style="fill: none; stroke: #b0b0b0; stroke-width: 0.8; stroke-linecap: square"/>
     </g>
     <g id="text_6">
      <!-- Y -->
      <g transform="translate(542.095824 377.87875) scale(0.2 -0.2)">
       <defs>
        <path id="DejaVuSans-59" d="M -13 4666 
L 666 4666 
L 1959 2747 
L 3244 4666 
L 3922 4666 
L 2272 2222 
L 2272 0 
L 1638 0 
L 1638 2222 
L -13 4666 
z
" transform="scale(0.015625)"/>
       </defs>
       <use xlink:href="#DejaVuSans-59"/>
      </g>
     </g>
    </g>
    <g id="xtick_7">
     <g id="line2d_7">
      <path d="M 288.321818 372.36 
L 522.169324 448.34166 
" clip-path="url(#pfc818532d6)" style="fill: none; stroke: #b0b0b0; stroke-width: 0.8; stroke-linecap: square"/>
     </g>
     <g id="text_7">
      <!-- V -->
      <g transform="translate(528.64349 458.186648) scale(0.2 -0.2)">
       <defs>
        <path id="DejaVuSans-56" d="M 1831 0 
L 50 4666 
L 709 4666 
L 2188 738 
L 3669 4666 
L 4325 4666 
L 2547 0 
L 1831 0 
z
" transform="scale(0.015625)"/>
       </defs>
       <use xlink:href="#DejaVuSans-56"/>
      </g>
     </g>
    </g>
    <g id="xtick_8">
     <g id="line2d_8">
      <path d="M 288.321818 372.36 
L 487.244388 516.885707 
" clip-path="url(#pfc818532d6)" style="fill: none; stroke: #b0b0b0; stroke-width: 0.8; stroke-linecap: square"/>
     </g>
     <g id="text_8">
      <!-- R -->
      <g transform="translate(491.622188 530.63345) scale(0.2 -0.2)">
       <defs>
        <path id="DejaVuSans-52" d="M 2841 2188 
Q 3044 2119 3236 1894 
Q 3428 1669 3622 1275 
L 4263 0 
L 3584 0 
L 2988 1197 
Q 2756 1666 2539 1819 
Q 2322 1972 1947 1972 
L 1259 1972 
L 1259 0 
L 628 0 
L 628 4666 
L 2053 4666 
Q 2853 4666 3247 4331 
Q 3641 3997 3641 3322 
Q 3641 2881 3436 2590 
Q 3231 2300 2841 2188 
z
M 1259 4147 
L 1259 2491 
L 2053 2491 
Q 2509 2491 2742 2702 
Q 2975 2913 2975 3322 
Q 2975 3731 2742 3939 
Q 2509 4147 2053 4147 
L 1259 4147 
z
" transform="scale(0.015625)"/>
       </defs>
       <use xlink:href="#DejaVuSans-52"/>
      </g>
     </g>
    </g>
    <g id="xtick_9">
     <g id="line2d_9">
      <path d="M 288.321818 372.36 
L 432.847525 571.28257 
" clip-path="url(#pfc818532d6)" style="fill: none; stroke: #b0b0b0; stroke-width: 0.8; stroke-linecap: square"/>
     </g>
     <g id="text_9">
      <!-- K -->
      <g transform="translate(434.518706 588.127557) scale(0.2 -0.2)">
       <defs>
        <path id="DejaVuSans-4b" d="M 628 4666 
L 1259 4666 
L 1259 2694 
L 3353 4666 
L 4166 4666 
L 1850 2491 
L 4331 0 
L 3500 0 
L 1259 2247 
L 1259 0 
L 628 0 
L 628 4666 
z
" transform="scale(0.015625)"/>
       </defs>
       <use xlink:href="#DejaVuSans-4b"/>
      </g>
     </g>
    </g>
    <g id="xtick_10">
     <g id="line2d_10">
      <path d="M 288.321818 372.36 
L 364.303479 606.207505 
" clip-path="url(#pfc818532d6)" style="fill: none; stroke: #b0b0b0; stroke-width: 0.8; stroke-linecap: square"/>
     </g>
     <g id="text_10">
      <!-- N -->
      <g transform="translate(361.148467 625.041047) scale(0.2 -0.2)">
       <defs>
        <path id="DejaVuSans-4e" d="M 628 4666 
L 1478 4666 
L 3547 763 
L 3547 4666 
L 4159 4666 
L 4159 0 
L 3309 0 
L 1241 3903 
L 1241 0 
L 628 0 
L 628 4666 
z
" transform="scale(0.015625)"/>
       </defs>
       <use xlink:href="#DejaVuSans-4e"/>
      </g>
     </g>
    </g>
    <g id="xtick_11">
     <g id="line2d_11">
      <path d="M 288.321818 372.36 
L 288.321818 618.241818 
" clip-path="url(#pfc818532d6)" style="fill: none; stroke: #b0b0b0; stroke-width: 0.8; stroke-linecap: square"/>
     </g>
     <g id="text_11">
      <!-- Q -->
      <g transform="translate(280.449943 637.760568) scale(0.2 -0.2)">
       <defs>
        <path id="DejaVuSans-51" d="M 2522 4238 
Q 1834 4238 1429 3725 
Q 1025 3213 1025 2328 
Q 1025 1447 1429 934 
Q 1834 422 2522 422 
Q 3209 422 3611 934 
Q 4013 1447 4013 2328 
Q 4013 3213 3611 3725 
Q 3209 4238 2522 4238 
z
M 3406 84 
L 4238 -825 
L 3475 -825 
L 2784 -78 
Q 2681 -84 2626 -87 
Q 2572 -91 2522 -91 
Q 1538 -91 948 567 
Q 359 1225 359 2328 
Q 359 3434 948 4092 
Q 1538 4750 2522 4750 
Q 3503 4750 4090 4092 
Q 4678 3434 4678 2328 
Q 4678 1516 4351 937 
Q 4025 359 3406 84 
z
" transform="scale(0.015625)"/>
       </defs>
       <use xlink:href="#DejaVuSans-51"/>
      </g>
     </g>
    </g>
    <g id="xtick_12">
     <g id="line2d_12">
      <path d="M 288.321818 372.36 
L 212.340158 606.207505 
" clip-path="url(#pfc818532d6)" style="fill: none; stroke: #b0b0b0; stroke-width: 0.8; stroke-linecap: square"/>
     </g>
     <g id="text_12">
      <!-- S -->
      <g transform="translate(201.665482 625.041047) scale(0.2 -0.2)">
       <defs>
        <path id="DejaVuSans-53" d="M 3425 4513 
L 3425 3897 
Q 3066 4069 2747 4153 
Q 2428 4238 2131 4238 
Q 1616 4238 1336 4038 
Q 1056 3838 1056 3469 
Q 1056 3159 1242 3001 
Q 1428 2844 1947 2747 
L 2328 2669 
Q 3034 2534 3370 2195 
Q 3706 1856 3706 1288 
Q 3706 609 3251 259 
Q 2797 -91 1919 -91 
Q 1588 -91 1214 -16 
Q 841 59 441 206 
L 441 856 
Q 825 641 1194 531 
Q 1563 422 1919 422 
Q 2459 422 2753 634 
Q 3047 847 3047 1241 
Q 3047 1584 2836 1778 
Q 2625 1972 2144 2069 
L 1759 2144 
Q 1053 2284 737 2584 
Q 422 2884 422 3419 
Q 422 4038 858 4394 
Q 1294 4750 2059 4750 
Q 2388 4750 2728 4690 
Q 3069 4631 3425 4513 
z
" transform="scale(0.015625)"/>
       </defs>
       <use xlink:href="#DejaVuSans-53"/>
      </g>
     </g>
    </g>
    <g id="xtick_13">
     <g id="line2d_13">
      <path d="M 288.321818 372.36 
L 143.796112 571.28257 
" clip-path="url(#pfc818532d6)" style="fill: none; stroke: #b0b0b0; stroke-width: 0.8; stroke-linecap: square"/>
     </g>
     <g id="text_13">
      <!-- T -->
      <g transform="translate(129.459306 588.127557) scale(0.2 -0.2)">
       <defs>
        <path id="DejaVuSans-54" d="M -19 4666 
L 3928 4666 
L 3928 4134 
L 2272 4134 
L 2272 0 
L 1638 0 
L 1638 4134 
L -19 4134 
L -19 4666 
z
" transform="scale(0.015625)"/>
       </defs>
       <use xlink:href="#DejaVuSans-54"/>
      </g>
     </g>
    </g>
    <g id="xtick_14">
     <g id="line2d_14">
      <path d="M 288.321818 372.36 
L 89.399249 516.885707 
" clip-path="url(#pfc818532d6)" style="fill: none; stroke: #b0b0b0; stroke-width: 0.8; stroke-linecap: square"/>
     </g>
     <g id="text_14">
      <!-- D -->
      <g transform="translate(70.373011 530.63345) scale(0.2 -0.2)">
       <defs>
        <path id="DejaVuSans-44" d="M 1259 4147 
L 1259 519 
L 2022 519 
Q 2988 519 3436 956 
Q 3884 1394 3884 2338 
Q 3884 3275 3436 3711 
Q 2988 4147 2022 4147 
L 1259 4147 
z
M 628 4666 
L 1925 4666 
Q 3281 4666 3915 4102 
Q 4550 3538 4550 2338 
Q 4550 1131 3912 565 
Q 3275 0 1925 0 
L 628 0 
L 628 4666 
z
" transform="scale(0.015625)"/>
       </defs>
       <use xlink:href="#DejaVuSans-44"/>
      </g>
     </g>
    </g>
    <g id="xtick_15">
     <g id="line2d_15">
      <path d="M 288.321818 372.36 
L 54.474313 448.34166 
" clip-path="url(#pfc818532d6)" style="fill: none; stroke: #b0b0b0; stroke-width: 0.8; stroke-linecap: square"/>
     </g>
     <g id="text_15">
      <!-- E -->
      <g transform="translate(34.840772 458.186648) scale(0.2 -0.2)">
       <defs>
        <path id="DejaVuSans-45" d="M 628 4666 
L 3578 4666 
L 3578 4134 
L 1259 4134 
L 1259 2753 
L 3481 2753 
L 3481 2222 
L 1259 2222 
L 1259 531 
L 3634 531 
L 3634 0 
L 628 0 
L 628 4666 
z
" transform="scale(0.015625)"/>
       </defs>
       <use xlink:href="#DejaVuSans-45"/>
      </g>
     </g>
    </g>
    <g id="xtick_16">
     <g id="line2d_16">
      <path d="M 288.321818 372.36 
L 42.44 372.36 
" clip-path="url(#pfc818532d6)" style="fill: none; stroke: #b0b0b0; stroke-width: 0.8; stroke-linecap: square"/>
     </g>
     <g id="text_16">
      <!-- A -->
      <g transform="translate(21.599375 377.87875) scale(0.2 -0.2)">
       <defs>
        <path id="DejaVuSans-41" d="M 2188 4044 
L 1331 1722 
L 3047 1722 
L 2188 4044 
z
M 1831 4666 
L 2547 4666 
L 4325 0 
L 3669 0 
L 3244 1197 
L 1141 1197 
L 716 0 
L 50 0 
L 1831 4666 
z
" transform="scale(0.015625)"/>
       </defs>
       <use xlink:href="#DejaVuSans-41"/>
      </g>
     </g>
    </g>
    <g id="xtick_17">
     <g id="line2d_17">
      <path d="M 288.321818 372.36 
L 54.474313 296.37834 
" clip-path="url(#pfc818532d6)" style="fill: none; stroke: #b0b0b0; stroke-width: 0.8; stroke-linecap: square"/>
     </g>
     <g id="text_17">
      <!-- C -->
      <g transform="translate(34.176709 297.570852) scale(0.2 -0.2)">
       <defs>
        <path id="DejaVuSans-43" d="M 4122 4306 
L 4122 3641 
Q 3803 3938 3442 4084 
Q 3081 4231 2675 4231 
Q 1875 4231 1450 3742 
Q 1025 3253 1025 2328 
Q 1025 1406 1450 917 
Q 1875 428 2675 428 
Q 3081 428 3442 575 
Q 3803 722 4122 1019 
L 4122 359 
Q 3791 134 3420 21 
Q 3050 -91 2638 -91 
Q 1578 -91 968 557 
Q 359 1206 359 2328 
Q 359 3453 968 4101 
Q 1578 4750 2638 4750 
Q 3056 4750 3426 4639 
Q 3797 4528 4122 4306 
z
" transform="scale(0.015625)"/>
       </defs>
       <use xlink:href="#DejaVuSans-43"/>
      </g>
     </g>
    </g>
    <g id="xtick_18">
     <g id="line2d_18">
      <path d="M 288.321818 372.36 
L 89.399249 227.834293 
" clip-path="url(#pfc818532d6)" style="fill: none; stroke: #b0b0b0; stroke-width: 0.8; stroke-linecap: square"/>
     </g>
     <g id="text_18">
      <!-- G -->
      <g transform="translate(70.324573 225.12405) scale(0.2 -0.2)">
       <defs>
        <path id="DejaVuSans-47" d="M 3809 666 
L 3809 1919 
L 2778 1919 
L 2778 2438 
L 4434 2438 
L 4434 434 
Q 4069 175 3628 42 
Q 3188 -91 2688 -91 
Q 1594 -91 976 548 
Q 359 1188 359 2328 
Q 359 3472 976 4111 
Q 1594 4750 2688 4750 
Q 3144 4750 3555 4637 
Q 3966 4525 4313 4306 
L 4313 3634 
Q 3963 3931 3569 4081 
Q 3175 4231 2741 4231 
Q 1884 4231 1454 3753 
Q 1025 3275 1025 2328 
Q 1025 1384 1454 906 
Q 1884 428 2741 428 
Q 3075 428 3337 486 
Q 3600 544 3809 666 
z
" transform="scale(0.015625)"/>
       </defs>
       <use xlink:href="#DejaVuSans-47"/>
      </g>
     </g>
    </g>
    <g id="xtick_19">
     <g id="line2d_19">
      <path d="M 288.321818 372.36 
L 143.796112 173.43743 
" clip-path="url(#pfc818532d6)" style="fill: none; stroke: #b0b0b0; stroke-width: 0.8; stroke-linecap: square"/>
     </g>
     <g id="text_19">
      <!-- H -->
      <g transform="translate(128.046806 167.629943) scale(0.2 -0.2)">
       <defs>
        <path id="DejaVuSans-48" d="M 628 4666 
L 1259 4666 
L 1259 2753 
L 3553 2753 
L 3553 4666 
L 4184 4666 
L 4184 0 
L 3553 0 
L 3553 2222 
L 1259 2222 
L 1259 0 
L 628 0 
L 628 4666 
z
" transform="scale(0.015625)"/>
       </defs>
       <use xlink:href="#DejaVuSans-48"/>
      </g>
     </g>
    </g>
    <g id="xtick_20">
     <g id="line2d_20">
      <path d="M 288.321818 372.36 
L 212.340158 138.512495 
" clip-path="url(#pfc818532d6)" style="fill: none; stroke: #b0b0b0; stroke-width: 0.8; stroke-linecap: square"/>
     </g>
     <g id="text_20">
      <!-- P -->
      <g transform="translate(201.984232 130.716453) scale(0.2 -0.2)">
       <defs>
        <path id="DejaVuSans-50" d="M 1259 4147 
L 1259 2394 
L 2053 2394 
Q 2494 2394 2734 2622 
Q 2975 2850 2975 3272 
Q 2975 3691 2734 3919 
Q 2494 4147 2053 4147 
L 1259 4147 
z
M 628 4666 
L 2053 4666 
Q 2838 4666 3239 4311 
Q 3641 3956 3641 3272 
Q 3641 2581 3239 2228 
Q 2838 1875 2053 1875 
L 1259 1875 
L 1259 0 
L 628 0 
L 628 4666 
z
" transform="scale(0.015625)"/>
       </defs>
       <use xlink:href="#DejaVuSans-50"/>
      </g>
     </g>
    </g>
   </g>
   <g id="matplotlib.axis_2">
    <g id="ytick_1">
     <g id="line2d_21">
      <path d="M 288.321818 342.816551 
C 292.201428 342.816551 296.043314 343.58075 299.627606 345.065413 
C 303.211899 346.550075 306.468892 348.726329 309.212191 351.469627 
C 311.95549 354.212926 314.131743 357.469919 315.616406 361.054212 
C 317.101068 364.638504 317.865267 368.48039 317.865267 372.36 
C 317.865267 376.23961 317.101068 380.081496 315.616406 383.665788 
C 314.131743 387.250081 311.95549 390.507074 309.212191 393.250373 
C 306.468892 395.993671 303.211899 398.169925 299.627606 399.654587 
C 296.043314 401.13925 292.201428 401.903449 288.321818 401.903449 
C 284.442208 401.903449 280.600322 401.13925 277.01603 399.654587 
C 273.431738 398.169925 270.174744 395.993671 267.431445 393.250373 
C 264.688147 390.507074 262.511893 387.250081 261.027231 383.665788 
C 259.542568 380.081496 258.77837 376.23961 258.77837 372.36 
C 258.77837 368.48039 259.542568 364.638504 261.027231 361.054212 
C 262.511893 357.469919 264.688147 354.212926 267.431445 351.469627 
C 270.174744 348.726329 273.431738 346.550075 277.01603 345.065413 
C 280.600322 343.58075 284.442208 342.816551 288.321818 342.816551 
" clip-path="url(#pfc818532d6)" style="fill: none; stroke: #b0b0b0; stroke-width: 0.8; stroke-linecap: square"/>
     </g>
     <g id="text_21">
      <!-- 0.02 -->
      <g transform="translate(288.321818 338.657176) scale(0.2 -0.2)">
       <defs>
        <path id="DejaVuSans-30" d="M 2034 4250 
Q 1547 4250 1301 3770 
Q 1056 3291 1056 2328 
Q 1056 1369 1301 889 
Q 1547 409 2034 409 
Q 2525 409 2770 889 
Q 3016 1369 3016 2328 
Q 3016 3291 2770 3770 
Q 2525 4250 2034 4250 
z
M 2034 4750 
Q 2819 4750 3233 4129 
Q 3647 3509 3647 2328 
Q 3647 1150 3233 529 
Q 2819 -91 2034 -91 
Q 1250 -91 836 529 
Q 422 1150 422 2328 
Q 422 3509 836 4129 
Q 1250 4750 2034 4750 
z
" transform="scale(0.015625)"/>
        <path id="DejaVuSans-2e" d="M 684 794 
L 1344 794 
L 1344 0 
L 684 0 
L 684 794 
z
" transform="scale(0.015625)"/>
        <path id="DejaVuSans-32" d="M 1228 531 
L 3431 531 
L 3431 0 
L 469 0 
L 469 531 
Q 828 903 1448 1529 
Q 2069 2156 2228 2338 
Q 2531 2678 2651 2914 
Q 2772 3150 2772 3378 
Q 2772 3750 2511 3984 
Q 2250 4219 1831 4219 
Q 1534 4219 1204 4116 
Q 875 4013 500 3803 
L 500 4441 
Q 881 4594 1212 4672 
Q 1544 4750 1819 4750 
Q 2544 4750 2975 4387 
Q 3406 4025 3406 3419 
Q 3406 3131 3298 2873 
Q 3191 2616 2906 2266 
Q 2828 2175 2409 1742 
Q 1991 1309 1228 531 
z
" transform="scale(0.015625)"/>
       </defs>
       <use xlink:href="#DejaVuSans-30"/>
       <use xlink:href="#DejaVuSans-2e" x="63.623047"/>
       <use xlink:href="#DejaVuSans-30" x="95.410156"/>
       <use xlink:href="#DejaVuSans-32" x="159.033203"/>
      </g>
     </g>
    </g>
    <g id="ytick_2">
     <g id="line2d_22">
      <path d="M 288.321818 313.273103 
C 296.081038 313.273103 303.76481 314.8015 310.933395 317.770825 
C 318.10198 320.74015 324.615967 325.092657 330.102564 330.579254 
C 335.589161 336.065852 339.941668 342.579839 342.910993 349.748423 
C 345.880318 356.917008 347.408715 364.60078 347.408715 372.36 
C 347.408715 380.11922 345.880318 387.802992 342.910993 394.971577 
C 339.941668 402.140161 335.589161 408.654148 330.102564 414.140746 
C 324.615967 419.627343 318.10198 423.97985 310.933395 426.949175 
C 303.76481 429.9185 296.081038 431.446897 288.321818 431.446897 
C 280.562598 431.446897 272.878826 429.9185 265.710242 426.949175 
C 258.541657 423.97985 252.02767 419.627343 246.541073 414.140746 
C 241.054475 408.654148 236.701968 402.140161 233.732643 394.971577 
C 230.763318 387.802992 229.234921 380.11922 229.234921 372.36 
C 229.234921 364.60078 230.763318 356.917008 233.732643 349.748423 
C 236.701968 342.579839 241.054475 336.065852 246.541073 330.579254 
C 252.02767 325.092657 258.541657 320.74015 265.710242 317.770825 
C 272.878826 314.8015 280.562598 313.273103 288.321818 313.273103 
" clip-path="url(#pfc818532d6)" style="fill: none; stroke: #b0b0b0; stroke-width: 0.8; stroke-linecap: square"/>
     </g>
     <g id="text_22">
      <!-- 0.04 -->
      <g transform="translate(288.321818 309.113728) scale(0.2 -0.2)">
       <defs>
        <path id="DejaVuSans-34" d="M 2419 4116 
L 825 1625 
L 2419 1625 
L 2419 4116 
z
M 2253 4666 
L 3047 4666 
L 3047 1625 
L 3713 1625 
L 3713 1100 
L 3047 1100 
L 3047 0 
L 2419 0 
L 2419 1100 
L 313 1100 
L 313 1709 
L 2253 4666 
z
" transform="scale(0.015625)"/>
       </defs>
       <use xlink:href="#DejaVuSans-30"/>
       <use xlink:href="#DejaVuSans-2e" x="63.623047"/>
       <use xlink:href="#DejaVuSans-30" x="95.410156"/>
       <use xlink:href="#DejaVuSans-34" x="159.033203"/>
      </g>
     </g>
    </g>
    <g id="ytick_3">
     <g id="line2d_23">
      <path d="M 288.321818 283.729654 
C 299.960649 283.729654 311.486306 286.02225 322.239183 290.476238 
C 332.99206 294.930225 342.763041 301.458986 350.992937 309.688882 
C 359.222832 317.918777 365.751593 327.689758 370.20558 338.442635 
C 374.659568 349.195512 376.952164 360.72117 376.952164 372.36 
C 376.952164 383.99883 374.659568 395.524488 370.20558 406.277365 
C 365.751593 417.030242 359.222832 426.801223 350.992937 435.031118 
C 342.763041 443.261014 332.99206 449.789775 322.239183 454.243762 
C 311.486306 458.69775 299.960649 460.990346 288.321818 460.990346 
C 276.682988 460.990346 265.15733 458.69775 254.404453 454.243762 
C 243.651576 449.789775 233.880596 443.261014 225.6507 435.031118 
C 217.420804 426.801223 210.892043 417.030242 206.438056 406.277365 
C 201.984068 395.524488 199.691473 383.99883 199.691473 372.36 
C 199.691473 360.72117 201.984068 349.195512 206.438056 338.442635 
C 210.892043 327.689758 217.420804 317.918777 225.6507 309.688882 
C 233.880596 301.458986 243.651576 294.930225 254.404453 290.476238 
C 265.15733 286.02225 276.682988 283.729654 288.321818 283.729654 
" clip-path="url(#pfc818532d6)" style="fill: none; stroke: #b0b0b0; stroke-width: 0.8; stroke-linecap: square"/>
     </g>
     <g id="text_23">
      <!-- 0.06 -->
      <g transform="translate(288.321818 279.570279) scale(0.2 -0.2)">
       <defs>
        <path id="DejaVuSans-36" d="M 2113 2584 
Q 1688 2584 1439 2293 
Q 1191 2003 1191 1497 
Q 1191 994 1439 701 
Q 1688 409 2113 409 
Q 2538 409 2786 701 
Q 3034 994 3034 1497 
Q 3034 2003 2786 2293 
Q 2538 2584 2113 2584 
z
M 3366 4563 
L 3366 3988 
Q 3128 4100 2886 4159 
Q 2644 4219 2406 4219 
Q 1781 4219 1451 3797 
Q 1122 3375 1075 2522 
Q 1259 2794 1537 2939 
Q 1816 3084 2150 3084 
Q 2853 3084 3261 2657 
Q 3669 2231 3669 1497 
Q 3669 778 3244 343 
Q 2819 -91 2113 -91 
Q 1303 -91 875 529 
Q 447 1150 447 2328 
Q 447 3434 972 4092 
Q 1497 4750 2381 4750 
Q 2619 4750 2861 4703 
Q 3103 4656 3366 4563 
z
" transform="scale(0.015625)"/>
       </defs>
       <use xlink:href="#DejaVuSans-30"/>
       <use xlink:href="#DejaVuSans-2e" x="63.623047"/>
       <use xlink:href="#DejaVuSans-30" x="95.410156"/>
       <use xlink:href="#DejaVuSans-36" x="159.033203"/>
      </g>
     </g>
    </g>
    <g id="ytick_4">
     <g id="line2d_24">
      <path d="M 288.321818 254.186206 
C 303.840259 254.186206 319.207802 257.243 333.544971 263.18165 
C 347.882141 269.1203 360.910115 277.825314 371.883309 288.798509 
C 382.856504 299.771703 391.561518 312.799677 397.500168 327.136847 
C 403.438818 341.474016 406.495612 356.84156 406.495612 372.36 
C 406.495612 387.87844 403.438818 403.245984 397.500168 417.583153 
C 391.561518 431.920323 382.856504 444.948297 371.883309 455.921491 
C 360.910115 466.894686 347.882141 475.5997 333.544971 481.53835 
C 319.207802 487.477 303.840259 490.533794 288.321818 490.533794 
C 272.803378 490.533794 257.435835 487.477 243.098665 481.53835 
C 228.761496 475.5997 215.733521 466.894686 204.760327 455.921491 
C 193.787133 444.948297 185.082119 431.920323 179.143469 417.583153 
C 173.204818 403.245984 170.148024 387.87844 170.148024 372.36 
C 170.148024 356.84156 173.204818 341.474016 179.143469 327.136847 
C 185.082119 312.799677 193.787133 299.771703 204.760327 288.798509 
C 215.733521 277.825314 228.761496 269.1203 243.098665 263.18165 
C 257.435835 257.243 272.803378 254.186206 288.321818 254.186206 
" clip-path="url(#pfc818532d6)" style="fill: none; stroke: #b0b0b0; stroke-width: 0.8; stroke-linecap: square"/>
     </g>
     <g id="text_24">
      <!-- 0.08 -->
      <g transform="translate(288.321818 250.026831) scale(0.2 -0.2)">
       <defs>
        <path id="DejaVuSans-38" d="M 2034 2216 
Q 1584 2216 1326 1975 
Q 1069 1734 1069 1313 
Q 1069 891 1326 650 
Q 1584 409 2034 409 
Q 2484 409 2743 651 
Q 3003 894 3003 1313 
Q 3003 1734 2745 1975 
Q 2488 2216 2034 2216 
z
M 1403 2484 
Q 997 2584 770 2862 
Q 544 3141 544 3541 
Q 544 4100 942 4425 
Q 1341 4750 2034 4750 
Q 2731 4750 3128 4425 
Q 3525 4100 3525 3541 
Q 3525 3141 3298 2862 
Q 3072 2584 2669 2484 
Q 3125 2378 3379 2068 
Q 3634 1759 3634 1313 
Q 3634 634 3220 271 
Q 2806 -91 2034 -91 
Q 1263 -91 848 271 
Q 434 634 434 1313 
Q 434 1759 690 2068 
Q 947 2378 1403 2484 
z
M 1172 3481 
Q 1172 3119 1398 2916 
Q 1625 2713 2034 2713 
Q 2441 2713 2670 2916 
Q 2900 3119 2900 3481 
Q 2900 3844 2670 4047 
Q 2441 4250 2034 4250 
Q 1625 4250 1398 4047 
Q 1172 3844 1172 3481 
z
" transform="scale(0.015625)"/>
       </defs>
       <use xlink:href="#DejaVuSans-30"/>
       <use xlink:href="#DejaVuSans-2e" x="63.623047"/>
       <use xlink:href="#DejaVuSans-30" x="95.410156"/>
       <use xlink:href="#DejaVuSans-38" x="159.033203"/>
      </g>
     </g>
    </g>
    <g id="ytick_5">
     <g id="line2d_25">
      <path d="M 288.321818 224.642757 
C 307.719869 224.642757 326.929298 228.46375 344.85076 235.887063 
C 362.772222 243.310375 379.057189 254.191643 392.773682 267.908136 
C 406.490175 281.624629 417.371443 297.909597 424.794755 315.831059 
C 432.218068 333.75252 436.039061 352.961949 436.039061 372.36 
C 436.039061 391.758051 432.218068 410.96748 424.794755 428.888941 
C 417.371443 446.810403 406.490175 463.095371 392.773682 476.811864 
C 379.057189 490.528357 362.772222 501.409625 344.85076 508.832937 
C 326.929298 516.25625 307.719869 520.077243 288.321818 520.077243 
C 268.923768 520.077243 249.714339 516.25625 231.792877 508.832937 
C 213.871415 501.409625 197.586447 490.528357 183.869954 476.811864 
C 170.153461 463.095371 159.272194 446.810403 151.848881 428.888941 
C 144.425569 410.96748 140.604576 391.758051 140.604576 372.36 
C 140.604576 352.961949 144.425569 333.75252 151.848881 315.831059 
C 159.272194 297.909597 170.153461 281.624629 183.869954 267.908136 
C 197.586447 254.191643 213.871415 243.310375 231.792877 235.887063 
C 249.714339 228.46375 268.923768 224.642757 288.321818 224.642757 
" clip-path="url(#pfc818532d6)" style="fill: none; stroke: #b0b0b0; stroke-width: 0.8; stroke-linecap: square"/>
     </g>
     <g id="text_25">
      <!-- 0.10 -->
      <g transform="translate(288.321818 220.483382) scale(0.2 -0.2)">
       <defs>
        <path id="DejaVuSans-31" d="M 794 531 
L 1825 531 
L 1825 4091 
L 703 3866 
L 703 4441 
L 1819 4666 
L 2450 4666 
L 2450 531 
L 3481 531 
L 3481 0 
L 794 0 
L 794 531 
z
" transform="scale(0.015625)"/>
       </defs>
       <use xlink:href="#DejaVuSans-30"/>
       <use xlink:href="#DejaVuSans-2e" x="63.623047"/>
       <use xlink:href="#DejaVuSans-31" x="95.410156"/>
       <use xlink:href="#DejaVuSans-30" x="159.033203"/>
      </g>
     </g>
    </g>
    <g id="ytick_6">
     <g id="line2d_26">
      <path d="M 288.321818 195.099309 
C 311.599479 195.099309 334.650794 199.6845 356.156548 208.592475 
C 377.662302 217.500451 397.204263 230.557971 413.664055 247.017763 
C 430.123847 263.477555 443.181368 283.019516 452.089343 304.52527 
C 460.997318 326.031025 465.582509 349.082339 465.582509 372.36 
C 465.582509 395.637661 460.997318 418.688975 452.089343 440.19473 
C 443.181368 461.700484 430.123847 481.242445 413.664055 497.702237 
C 397.204263 514.162029 377.662302 527.219549 356.156548 536.127525 
C 334.650794 545.0355 311.599479 549.620691 288.321818 549.620691 
C 265.044157 549.620691 241.992843 545.0355 220.487088 536.127525 
C 198.981334 527.219549 179.439373 514.162029 162.979581 497.702237 
C 146.51979 481.242445 133.462269 461.700484 124.554294 440.19473 
C 115.646319 418.688975 111.061127 395.637661 111.061127 372.36 
C 111.061127 349.082339 115.646319 326.031025 124.554294 304.52527 
C 133.462269 283.019516 146.51979 263.477555 162.979581 247.017763 
C 179.439373 230.557971 198.981334 217.500451 220.487088 208.592475 
C 241.992843 199.6845 265.044157 195.099309 288.321818 195.099309 
" clip-path="url(#pfc818532d6)" style="fill: none; stroke: #b0b0b0; stroke-width: 0.8; stroke-linecap: square"/>
     </g>
     <g id="text_26">
      <!-- 0.12 -->
      <g transform="translate(288.321818 190.939934) scale(0.2 -0.2)">
       <use xlink:href="#DejaVuSans-30"/>
       <use xlink:href="#DejaVuSans-2e" x="63.623047"/>
       <use xlink:href="#DejaVuSans-31" x="95.410156"/>
       <use xlink:href="#DejaVuSans-32" x="159.033203"/>
      </g>
     </g>
    </g>
    <g id="ytick_7">
     <g id="line2d_27">
      <path d="M 288.321818 165.55586 
C 315.479089 165.55586 342.37229 170.90525 367.462336 181.297888 
C 392.552383 191.690526 415.351337 206.9243 434.554428 226.12739 
C 453.757518 245.330481 468.991293 268.129435 479.38393 293.219482 
C 489.776568 318.309529 495.125958 345.202729 495.125958 372.36 
C 495.125958 399.517271 489.776568 426.410471 479.38393 451.500518 
C 468.991293 476.590565 453.757518 499.389519 434.554428 518.59261 
C 415.351337 537.7957 392.552383 553.029474 367.462336 563.422112 
C 342.37229 573.81475 315.479089 579.16414 288.321818 579.16414 
C 261.164547 579.16414 234.271347 573.81475 209.1813 563.422112 
C 184.091254 553.029474 161.292299 537.7957 142.089209 518.59261 
C 122.886118 499.389519 107.652344 476.590565 97.259706 451.500518 
C 86.867069 426.410471 81.517678 399.517271 81.517678 372.36 
C 81.517678 345.202729 86.867069 318.309529 97.259706 293.219482 
C 107.652344 268.129435 122.886118 245.330481 142.089209 226.12739 
C 161.292299 206.9243 184.091254 191.690526 209.1813 181.297888 
C 234.271347 170.90525 261.164547 165.55586 288.321818 165.55586 
" clip-path="url(#pfc818532d6)" style="fill: none; stroke: #b0b0b0; stroke-width: 0.8; stroke-linecap: square"/>
     </g>
     <g id="text_27">
      <!-- 0.14 -->
      <g transform="translate(288.321818 161.396485) scale(0.2 -0.2)">
       <use xlink:href="#DejaVuSans-30"/>
       <use xlink:href="#DejaVuSans-2e" x="63.623047"/>
       <use xlink:href="#DejaVuSans-31" x="95.410156"/>
       <use xlink:href="#DejaVuSans-34" x="159.033203"/>
      </g>
     </g>
    </g>
    <g id="ytick_8">
     <g id="line2d_28">
      <path d="M 288.321818 136.012412 
C 319.358699 136.012412 350.093785 142.126001 378.768124 154.003301 
C 407.442464 165.880601 433.498412 183.290629 455.444801 205.237018 
C 477.39119 227.183407 494.801217 253.239355 506.678518 281.913694 
C 518.555818 310.588033 524.669406 341.323119 524.669406 372.36 
C 524.669406 403.396881 518.555818 434.131967 506.678518 462.806306 
C 494.801217 491.480645 477.39119 517.536593 455.444801 539.482982 
C 433.498412 561.429371 407.442464 578.839399 378.768124 590.716699 
C 350.093785 602.593999 319.358699 608.707588 288.321818 608.707588 
C 257.284937 608.707588 226.549851 602.593999 197.875512 590.716699 
C 169.201173 578.839399 143.145225 561.429371 121.198836 539.482982 
C 99.252447 517.536593 81.842419 491.480645 69.965119 462.806306 
C 58.087819 434.131967 51.97423 403.396881 51.97423 372.36 
C 51.97423 341.323119 58.087819 310.588033 69.965119 281.913694 
C 81.842419 253.239355 99.252447 227.183407 121.198836 205.237018 
C 143.145225 183.290629 169.201173 165.880601 197.875512 154.003301 
C 226.549851 142.126001 257.284937 136.012412 288.321818 136.012412 
" clip-path="url(#pfc818532d6)" style="fill: none; stroke: #b0b0b0; stroke-width: 0.8; stroke-linecap: square"/>
     </g>
     <g id="text_28">
      <!-- 0.16 -->
      <g transform="translate(288.321818 131.853037) scale(0.2 -0.2)">
       <use xlink:href="#DejaVuSans-30"/>
       <use xlink:href="#DejaVuSans-2e" x="63.623047"/>
       <use xlink:href="#DejaVuSans-31" x="95.410156"/>
       <use xlink:href="#DejaVuSans-36" x="159.033203"/>
      </g>
     </g>
    </g>
   </g>
   <g id="line2d_29">
    <path d="M 288.321818 314.837455 
L 322.12288 268.331029 
L 309.168141 343.667498 
L 324.850985 345.820007 
L 311.035772 364.979789 
L 330.117779 372.36 
L 349.896941 392.36697 
L 391.204889 447.108927 
L 352.823699 461.139223 
L 312.163052 445.735774 
L 288.321818 467.576661 
L 262.590115 451.554038 
L 241.60764 436.65655 
L 205.380205 432.620609 
L 167.022018 411.772694 
L 191.819419 372.36 
L 281.820007 370.247434 
L 227.095191 327.876252 
L 263.464958 338.147467 
L 264.887861 300.237695 
L 288.321818 314.837455 
" clip-path="url(#pfc818532d6)" style="fill: none; stroke: #1e9cce; stroke-linecap: square"/>
   </g>
   <g id="line2d_30">
    <path d="M 288.321818 296.682232 
L 325.917716 256.651726 
L 306.223594 347.72032 
L 329.654543 342.330018 
L 305.377922 366.818136 
L 356.521483 372.36 
L 357.920663 394.974035 
L 399.806205 453.358148 
L 379.911597 498.422516 
L 311.048469 442.30544 
L 288.321818 413.820808 
L 260.20047 458.90861 
L 252.538722 421.611207 
L 219.662301 422.244059 
L 132.142493 423.105739 
L 233.257488 372.36 
L 283.368969 370.750722 
L 225.074585 326.408195 
L 274.172938 352.885737 
L 267.662476 308.777081 
L 288.321818 296.682232 
" clip-path="url(#pfc818532d6)" style="fill: none; stroke: #ff0000; stroke-linecap: square"/>
   </g>
   <g id="line2d_31">
    <path d="M 288.321818 327.926777 
L 333.561104 233.127795 
L 292.450456 366.677417 
L 308.240598 357.88816 
L 298.118818 369.176762 
L 333.500643 372.36 
L 346.00759 391.103243 
L 368.364782 430.514617 
L 404.997531 532.950342 
L 302.594566 416.287 
L 288.321818 385.313537 
L 274.940654 413.542988 
L 247.388005 428.70056 
L 215.346792 425.37946 
L 65.509178 444.756215 
L 147.707486 372.36 
L 286.206492 371.672689 
L 230.669932 330.473453 
L 280.977957 362.252043 
L 251.869077 260.169998 
L 288.321818 327.926777 
" clip-path="url(#pfc818532d6)" style="fill: none; stroke-dasharray: 3.7,1.6; stroke-dashoffset: 0; stroke: #000000"/>
   </g>
   <g id="line2d_32">
    <path d="M 288.321818 294.293133 
L 329.477285 245.696498 
L 297.069575 360.319746 
L 317.918765 350.856559 
L 299.513268 368.723678 
L 366.166557 372.36 
L 353.79103 393.632236 
L 396.702589 451.103239 
L 403.017031 530.224417 
L 311.924819 445.002568 
L 288.321818 390.419002 
L 260.906381 456.736041 
L 257.426383 414.883918 
L 231.921828 413.336991 
L 102.064442 432.87869 
L 230.245832 372.36 
L 284.897355 371.247324 
L 224.551601 326.028225 
L 281.326224 362.731391 
L 265.692641 302.714555 
L 288.321818 294.293133 
" clip-path="url(#pfc818532d6)" style="fill: none; stroke-dasharray: 3.7,1.6; stroke-dashoffset: 0; stroke: #b43445"/>
   </g>
   <g id="patch_7">
    <path d="M 288.321818 126.478182 
C 256.032914 126.478182 224.057978 132.838392 194.22692 145.194821 
C 164.395862 157.55125 137.288821 175.663596 114.457117 198.495299 
C 91.625414 221.327002 73.513068 248.434044 61.156639 278.265102 
C 48.80021 308.09616 42.44 340.071095 42.44 372.36 
C 42.44 404.648905 48.80021 436.62384 61.156639 466.454898 
C 73.513068 496.285956 91.625414 523.392998 114.457117 546.224701 
C 137.288821 569.056404 164.395862 587.16875 194.22692 599.525179 
C 224.057978 611.881608 256.032914 618.241818 288.321818 618.241818 
C 320.610723 618.241818 352.585658 611.881608 382.416716 599.525179 
C 412.247774 587.16875 439.354816 569.056404 462.186519 546.224701 
C 485.018223 523.392998 503.130569 496.285956 515.486997 466.454898 
C 527.843426 436.62384 534.203636 404.648905 534.203636 372.36 
C 534.203636 340.071095 527.843426 308.09616 515.486997 278.265102 
C 503.130569 248.434044 485.018223 221.327002 462.186519 198.495299 
C 439.354816 175.663596 412.247774 157.55125 382.416716 145.194821 
C 352.585658 132.838392 320.610723 126.478182 288.321818 126.478182 
" style="fill: none; stroke: #000000; stroke-width: 0.8; stroke-linejoin: miter; stroke-linecap: square"/>
   </g>
   <g id="text_29">
    <!-- Surface amino acid frequencies -->
    <g transform="translate(98.886818 96.800057) scale(0.24 -0.24)">
     <defs>
      <path id="DejaVuSans-75" d="M 544 1381 
L 544 3500 
L 1119 3500 
L 1119 1403 
Q 1119 906 1312 657 
Q 1506 409 1894 409 
Q 2359 409 2629 706 
Q 2900 1003 2900 1516 
L 2900 3500 
L 3475 3500 
L 3475 0 
L 2900 0 
L 2900 538 
Q 2691 219 2414 64 
Q 2138 -91 1772 -91 
Q 1169 -91 856 284 
Q 544 659 544 1381 
z
M 1991 3584 
L 1991 3584 
z
" transform="scale(0.015625)"/>
      <path id="DejaVuSans-72" d="M 2631 2963 
Q 2534 3019 2420 3045 
Q 2306 3072 2169 3072 
Q 1681 3072 1420 2755 
Q 1159 2438 1159 1844 
L 1159 0 
L 581 0 
L 581 3500 
L 1159 3500 
L 1159 2956 
Q 1341 3275 1631 3429 
Q 1922 3584 2338 3584 
Q 2397 3584 2469 3576 
Q 2541 3569 2628 3553 
L 2631 2963 
z
" transform="scale(0.015625)"/>
      <path id="DejaVuSans-66" d="M 2375 4863 
L 2375 4384 
L 1825 4384 
Q 1516 4384 1395 4259 
Q 1275 4134 1275 3809 
L 1275 3500 
L 2222 3500 
L 2222 3053 
L 1275 3053 
L 1275 0 
L 697 0 
L 697 3053 
L 147 3053 
L 147 3500 
L 697 3500 
L 697 3744 
Q 697 4328 969 4595 
Q 1241 4863 1831 4863 
L 2375 4863 
z
" transform="scale(0.015625)"/>
      <path id="DejaVuSans-61" d="M 2194 1759 
Q 1497 1759 1228 1600 
Q 959 1441 959 1056 
Q 959 750 1161 570 
Q 1363 391 1709 391 
Q 2188 391 2477 730 
Q 2766 1069 2766 1631 
L 2766 1759 
L 2194 1759 
z
M 3341 1997 
L 3341 0 
L 2766 0 
L 2766 531 
Q 2569 213 2275 61 
Q 1981 -91 1556 -91 
Q 1019 -91 701 211 
Q 384 513 384 1019 
Q 384 1609 779 1909 
Q 1175 2209 1959 2209 
L 2766 2209 
L 2766 2266 
Q 2766 2663 2505 2880 
Q 2244 3097 1772 3097 
Q 1472 3097 1187 3025 
Q 903 2953 641 2809 
L 641 3341 
Q 956 3463 1253 3523 
Q 1550 3584 1831 3584 
Q 2591 3584 2966 3190 
Q 3341 2797 3341 1997 
z
" transform="scale(0.015625)"/>
      <path id="DejaVuSans-63" d="M 3122 3366 
L 3122 2828 
Q 2878 2963 2633 3030 
Q 2388 3097 2138 3097 
Q 1578 3097 1268 2742 
Q 959 2388 959 1747 
Q 959 1106 1268 751 
Q 1578 397 2138 397 
Q 2388 397 2633 464 
Q 2878 531 3122 666 
L 3122 134 
Q 2881 22 2623 -34 
Q 2366 -91 2075 -91 
Q 1284 -91 818 406 
Q 353 903 353 1747 
Q 353 2603 823 3093 
Q 1294 3584 2113 3584 
Q 2378 3584 2631 3529 
Q 2884 3475 3122 3366 
z
" transform="scale(0.015625)"/>
      <path id="DejaVuSans-65" d="M 3597 1894 
L 3597 1613 
L 953 1613 
Q 991 1019 1311 708 
Q 1631 397 2203 397 
Q 2534 397 2845 478 
Q 3156 559 3463 722 
L 3463 178 
Q 3153 47 2828 -22 
Q 2503 -91 2169 -91 
Q 1331 -91 842 396 
Q 353 884 353 1716 
Q 353 2575 817 3079 
Q 1281 3584 2069 3584 
Q 2775 3584 3186 3129 
Q 3597 2675 3597 1894 
z
M 3022 2063 
Q 3016 2534 2758 2815 
Q 2500 3097 2075 3097 
Q 1594 3097 1305 2825 
Q 1016 2553 972 2059 
L 3022 2063 
z
" transform="scale(0.015625)"/>
      <path id="DejaVuSans-20" transform="scale(0.015625)"/>
      <path id="DejaVuSans-6d" d="M 3328 2828 
Q 3544 3216 3844 3400 
Q 4144 3584 4550 3584 
Q 5097 3584 5394 3201 
Q 5691 2819 5691 2113 
L 5691 0 
L 5113 0 
L 5113 2094 
Q 5113 2597 4934 2840 
Q 4756 3084 4391 3084 
Q 3944 3084 3684 2787 
Q 3425 2491 3425 1978 
L 3425 0 
L 2847 0 
L 2847 2094 
Q 2847 2600 2669 2842 
Q 2491 3084 2119 3084 
Q 1678 3084 1418 2786 
Q 1159 2488 1159 1978 
L 1159 0 
L 581 0 
L 581 3500 
L 1159 3500 
L 1159 2956 
Q 1356 3278 1631 3431 
Q 1906 3584 2284 3584 
Q 2666 3584 2933 3390 
Q 3200 3197 3328 2828 
z
" transform="scale(0.015625)"/>
      <path id="DejaVuSans-69" d="M 603 3500 
L 1178 3500 
L 1178 0 
L 603 0 
L 603 3500 
z
M 603 4863 
L 1178 4863 
L 1178 4134 
L 603 4134 
L 603 4863 
z
" transform="scale(0.015625)"/>
      <path id="DejaVuSans-6e" d="M 3513 2113 
L 3513 0 
L 2938 0 
L 2938 2094 
Q 2938 2591 2744 2837 
Q 2550 3084 2163 3084 
Q 1697 3084 1428 2787 
Q 1159 2491 1159 1978 
L 1159 0 
L 581 0 
L 581 3500 
L 1159 3500 
L 1159 2956 
Q 1366 3272 1645 3428 
Q 1925 3584 2291 3584 
Q 2894 3584 3203 3211 
Q 3513 2838 3513 2113 
z
" transform="scale(0.015625)"/>
      <path id="DejaVuSans-6f" d="M 1959 3097 
Q 1497 3097 1228 2736 
Q 959 2375 959 1747 
Q 959 1119 1226 758 
Q 1494 397 1959 397 
Q 2419 397 2687 759 
Q 2956 1122 2956 1747 
Q 2956 2369 2687 2733 
Q 2419 3097 1959 3097 
z
M 1959 3584 
Q 2709 3584 3137 3096 
Q 3566 2609 3566 1747 
Q 3566 888 3137 398 
Q 2709 -91 1959 -91 
Q 1206 -91 779 398 
Q 353 888 353 1747 
Q 353 2609 779 3096 
Q 1206 3584 1959 3584 
z
" transform="scale(0.015625)"/>
      <path id="DejaVuSans-64" d="M 2906 2969 
L 2906 4863 
L 3481 4863 
L 3481 0 
L 2906 0 
L 2906 525 
Q 2725 213 2448 61 
Q 2172 -91 1784 -91 
Q 1150 -91 751 415 
Q 353 922 353 1747 
Q 353 2572 751 3078 
Q 1150 3584 1784 3584 
Q 2172 3584 2448 3432 
Q 2725 3281 2906 2969 
z
M 947 1747 
Q 947 1113 1208 752 
Q 1469 391 1925 391 
Q 2381 391 2643 752 
Q 2906 1113 2906 1747 
Q 2906 2381 2643 2742 
Q 2381 3103 1925 3103 
Q 1469 3103 1208 2742 
Q 947 2381 947 1747 
z
" transform="scale(0.015625)"/>
      <path id="DejaVuSans-71" d="M 947 1747 
Q 947 1113 1208 752 
Q 1469 391 1925 391 
Q 2381 391 2643 752 
Q 2906 1113 2906 1747 
Q 2906 2381 2643 2742 
Q 2381 3103 1925 3103 
Q 1469 3103 1208 2742 
Q 947 2381 947 1747 
z
M 2906 525 
Q 2725 213 2448 61 
Q 2172 -91 1784 -91 
Q 1150 -91 751 415 
Q 353 922 353 1747 
Q 353 2572 751 3078 
Q 1150 3584 1784 3584 
Q 2172 3584 2448 3432 
Q 2725 3281 2906 2969 
L 2906 3500 
L 3481 3500 
L 3481 -1331 
L 2906 -1331 
L 2906 525 
z
" transform="scale(0.015625)"/>
      <path id="DejaVuSans-73" d="M 2834 3397 
L 2834 2853 
Q 2591 2978 2328 3040 
Q 2066 3103 1784 3103 
Q 1356 3103 1142 2972 
Q 928 2841 928 2578 
Q 928 2378 1081 2264 
Q 1234 2150 1697 2047 
L 1894 2003 
Q 2506 1872 2764 1633 
Q 3022 1394 3022 966 
Q 3022 478 2636 193 
Q 2250 -91 1575 -91 
Q 1294 -91 989 -36 
Q 684 19 347 128 
L 347 722 
Q 666 556 975 473 
Q 1284 391 1588 391 
Q 1994 391 2212 530 
Q 2431 669 2431 922 
Q 2431 1156 2273 1281 
Q 2116 1406 1581 1522 
L 1381 1569 
Q 847 1681 609 1914 
Q 372 2147 372 2553 
Q 372 3047 722 3315 
Q 1072 3584 1716 3584 
Q 2034 3584 2315 3537 
Q 2597 3491 2834 3397 
z
" transform="scale(0.015625)"/>
     </defs>
     <use xlink:href="#DejaVuSans-53"/>
     <use xlink:href="#DejaVuSans-75" x="63.476562"/>
     <use xlink:href="#DejaVuSans-72" x="126.855469"/>
     <use xlink:href="#DejaVuSans-66" x="167.96875"/>
     <use xlink:href="#DejaVuSans-61" x="203.173828"/>
     <use xlink:href="#DejaVuSans-63" x="264.453125"/>
     <use xlink:href="#DejaVuSans-65" x="319.433594"/>
     <use xlink:href="#DejaVuSans-20" x="380.957031"/>
     <use xlink:href="#DejaVuSans-61" x="412.744141"/>
     <use xlink:href="#DejaVuSans-6d" x="474.023438"/>
     <use xlink:href="#DejaVuSans-69" x="571.435547"/>
     <use xlink:href="#DejaVuSans-6e" x="599.21875"/>
     <use xlink:href="#DejaVuSans-6f" x="662.597656"/>
     <use xlink:href="#DejaVuSans-20" x="723.779297"/>
     <use xlink:href="#DejaVuSans-61" x="755.566406"/>
     <use xlink:href="#DejaVuSans-63" x="816.845703"/>
     <use xlink:href="#DejaVuSans-69" x="871.826172"/>
     <use xlink:href="#DejaVuSans-64" x="899.609375"/>
     <use xlink:href="#DejaVuSans-20" x="963.085938"/>
     <use xlink:href="#DejaVuSans-66" x="994.873047"/>
     <use xlink:href="#DejaVuSans-72" x="1030.078125"/>
     <use xlink:href="#DejaVuSans-65" x="1068.941406"/>
     <use xlink:href="#DejaVuSans-71" x="1130.464844"/>
     <use xlink:href="#DejaVuSans-75" x="1193.941406"/>
     <use xlink:href="#DejaVuSans-65" x="1257.320312"/>
     <use xlink:href="#DejaVuSans-6e" x="1318.84375"/>
     <use xlink:href="#DejaVuSans-63" x="1382.222656"/>
     <use xlink:href="#DejaVuSans-69" x="1437.203125"/>
     <use xlink:href="#DejaVuSans-65" x="1464.986328"/>
     <use xlink:href="#DejaVuSans-73" x="1526.509766"/>
    </g>
   </g>
  </g>
  <g id="axes_2">
   <g id="patch_8">
    <path d="M 1088.527273 372.36 
C 1088.527273 340.071095 1082.167063 308.09616 1069.810634 278.265102 
C 1057.454205 248.434044 1039.341859 221.327002 1016.510156 198.495299 
C 993.678452 175.663596 966.571411 157.55125 936.740353 145.194821 
C 906.909295 132.838392 874.934359 126.478182 842.645455 126.478182 
C 810.35655 126.478182 778.381614 132.838392 748.550556 145.194821 
C 718.719498 157.55125 691.612457 175.663596 668.780754 198.495299 
C 645.94905 221.327002 627.836704 248.434044 615.480275 278.265102 
C 603.123847 308.09616 596.763636 340.071095 596.763636 372.36 
C 596.763636 404.648905 603.123847 436.62384 615.480275 466.454898 
C 627.836704 496.285956 645.94905 523.392998 668.780754 546.224701 
C 691.612457 569.056404 718.719498 587.16875 748.550556 599.525179 
C 778.381614 611.881608 810.35655 618.241818 842.645455 618.241818 
C 874.934359 618.241818 906.909295 611.881608 936.740353 599.525179 
C 966.571411 587.16875 993.678452 569.056404 1016.510156 546.224701 
C 1039.341859 523.392998 1057.454205 496.285956 1069.810634 466.454898 
C 1082.167063 436.62384 1088.527273 404.648905 1088.527273 372.36 
M 842.645455 372.36 
C 842.645455 372.36 842.645455 372.36 842.645455 372.36 
C 842.645455 372.36 842.645455 372.36 842.645455 372.36 
C 842.645455 372.36 842.645455 372.36 842.645455 372.36 
C 842.645455 372.36 842.645455 372.36 842.645455 372.36 
C 842.645455 372.36 842.645455 372.36 842.645455 372.36 
C 842.645455 372.36 842.645455 372.36 842.645455 372.36 
C 842.645455 372.36 842.645455 372.36 842.645455 372.36 
C 842.645455 372.36 842.645455 372.36 842.645455 372.36 
C 842.645455 372.36 842.645455 372.36 842.645455 372.36 
C 842.645455 372.36 842.645455 372.36 842.645455 372.36 
C 842.645455 372.36 842.645455 372.36 842.645455 372.36 
C 842.645455 372.36 842.645455 372.36 842.645455 372.36 
C 842.645455 372.36 842.645455 372.36 842.645455 372.36 
C 842.645455 372.36 842.645455 372.36 842.645455 372.36 
C 842.645455 372.36 842.645455 372.36 842.645455 372.36 
C 842.645455 372.36 842.645455 372.36 842.645455 372.36 
z
" style="fill: #ffffff"/>
   </g>
   <g id="patch_9">
    <path d="M 842.645455 256.110299 
L 902.326758 188.679834 
L 866.6031 339.38513 
L 895.589692 333.89376 
L 860.27921 366.630445 
L 882.316515 372.36 
L 973.317581 414.817948 
L 858.801901 384.098345 
L 848.706248 380.701966 
L 853.113167 404.576305 
L 842.645455 396.067642 
L 817.439551 449.935796 
L 800.836641 429.904895 
L 810.105498 396.001662 
L 815.229769 381.267896 
L 672.728095 372.36 
L 817.841569 364.300729 
L 734.060162 293.468167 
L 831.512427 357.036702 
L 829.118822 330.729306 
z
" clip-path="url(#p6d03a40891)" style="fill: #808080; opacity: 0.1; stroke: #808080; stroke-linejoin: miter"/>
   </g>
   <g id="patch_10">
    <path d="M 842.645455 231.038603 
L 903.261761 185.802193 
L 859.169231 349.616973 
L 898.236531 331.970719 
L 855.698687 368.118748 
L 893.90475 372.36 
L 1004.343276 424.898807 
L 855.241896 381.511851 
L 849.567457 381.887319 
L 851.040928 398.198609 
L 842.645455 384.251731 
L 815.806233 454.962629 
L 804.778005 424.480072 
L 811.636966 394.888986 
L 811.742892 382.400851 
L 689.864027 372.36 
L 825.862978 366.907043 
L 744.947529 301.378302 
L 833.379765 359.606873 
L 827.514392 325.791379 
z
" clip-path="url(#p6d03a40891)" style="fill: #808080; opacity: 0.1; stroke: #808080; stroke-linejoin: miter"/>
   </g>
   <g id="patch_11">
    <path d="M 842.645455 228.566687 
L 915.11604 149.318471 
L 851.634429 359.987738 
L 895.809443 333.734101 
L 851.444775 369.500927 
L 891.749354 372.36 
L 1018.805339 429.597816 
L 853.116916 379.967962 
L 847.49385 379.033244 
L 850.021881 395.062305 
L 842.645455 379.84821 
L 826.322038 422.59831 
L 807.233653 421.100164 
L 812.099233 394.553129 
L 818.38986 380.24112 
L 651.852282 372.36 
L 828.749337 367.844878 
L 752.478427 306.84982 
L 835.599903 362.662631 
L 826.234909 321.853533 
z
" clip-path="url(#p6d03a40891)" style="fill: #808080; opacity: 0.05; stroke: #808080; stroke-linejoin: miter"/>
   </g>
   <g id="patch_12">
    <path d="M 842.645455 219.129229 
L 906.839293 174.79168 
L 854.594689 355.91329 
L 898.366205 331.876505 
L 852.61027 369.122235 
L 894.47245 372.36 
L 1009.964979 426.725409 
L 852.582797 379.579902 
L 848.558007 380.49793 
L 849.783593 394.328932 
L 842.645455 379.638225 
L 819.425003 443.825201 
L 804.979255 424.203076 
L 814.916268 392.506434 
L 815.010163 381.33925 
L 673.431626 372.36 
L 828.287857 367.694934 
L 743.733633 300.496355 
L 835.281917 362.224961 
L 826.900739 323.902749 
z
" clip-path="url(#p6d03a40891)" style="fill: #808080; opacity: 0.05; stroke: #808080; stroke-linejoin: miter"/>
   </g>
   <g id="matplotlib.axis_3">
    <g id="xtick_21">
     <g id="line2d_33">
      <path d="M 842.645455 372.36 
L 842.645455 126.478182 
" clip-path="url(#p6d03a40891)" style="fill: none; stroke: #b0b0b0; stroke-width: 0.8; stroke-linecap: square"/>
     </g>
     <g id="text_30">
      <!-- I -->
      <g transform="translate(839.695455 117.996932) scale(0.2 -0.2)">
       <use xlink:href="#DejaVuSans-49"/>
      </g>
     </g>
    </g>
    <g id="xtick_22">
     <g id="line2d_34">
      <path d="M 842.645455 372.36 
L 918.627115 138.512495 
" clip-path="url(#p6d03a40891)" style="fill: none; stroke: #b0b0b0; stroke-width: 0.8; stroke-linecap: square"/>
     </g>
     <g id="text_31">
      <!-- L -->
      <g transform="translate(917.381478 130.716453) scale(0.2 -0.2)">
       <use xlink:href="#DejaVuSans-4c"/>
      </g>
     </g>
    </g>
    <g id="xtick_23">
     <g id="line2d_35">
      <path d="M 842.645455 372.36 
L 987.171161 173.43743 
" clip-path="url(#p6d03a40891)" style="fill: none; stroke: #b0b0b0; stroke-width: 0.8; stroke-linecap: square"/>
     </g>
     <g id="text_32">
      <!-- M -->
      <g transform="translate(986.77203 167.629943) scale(0.2 -0.2)">
       <use xlink:href="#DejaVuSans-4d"/>
      </g>
     </g>
    </g>
    <g id="xtick_24">
     <g id="line2d_36">
      <path d="M 842.645455 372.36 
L 1041.568024 227.834293 
" clip-path="url(#p6d03a40891)" style="fill: none; stroke: #b0b0b0; stroke-width: 0.8; stroke-linecap: square"/>
     </g>
     <g id="text_33">
      <!-- F -->
      <g transform="translate(1047.142699 225.12405) scale(0.2 -0.2)">
       <use xlink:href="#DejaVuSans-46"/>
      </g>
     </g>
    </g>
    <g id="xtick_25">
     <g id="line2d_37">
      <path d="M 842.645455 372.36 
L 1076.49296 296.37834 
" clip-path="url(#p6d03a40891)" style="fill: none; stroke: #b0b0b0; stroke-width: 0.8; stroke-linecap: square"/>
     </g>
     <g id="text_34">
      <!-- W -->
      <g transform="translate(1079.920251 297.570852) scale(0.2 -0.2)">
       <use xlink:href="#DejaVuSans-57"/>
      </g>
     </g>
    </g>
    <g id="xtick_26">
     <g id="line2d_38">
      <path d="M 842.645455 372.36 
L 1088.527273 372.36 
" clip-path="url(#p6d03a40891)" style="fill: none; stroke: #b0b0b0; stroke-width: 0.8; stroke-linecap: square"/>
     </g>
     <g id="text_35">
      <!-- Y -->
      <g transform="translate(1096.41946 377.87875) scale(0.2 -0.2)">
       <use xlink:href="#DejaVuSans-59"/>
      </g>
     </g>
    </g>
    <g id="xtick_27">
     <g id="line2d_39">
      <path d="M 842.645455 372.36 
L 1076.49296 448.34166 
" clip-path="url(#p6d03a40891)" style="fill: none; stroke: #b0b0b0; stroke-width: 0.8; stroke-linecap: square"/>
     </g>
     <g id="text_36">
      <!-- V -->
      <g transform="translate(1082.967126 458.186648) scale(0.2 -0.2)">
       <use xlink:href="#DejaVuSans-56"/>
      </g>
     </g>
    </g>
    <g id="xtick_28">
     <g id="line2d_40">
      <path d="M 842.645455 372.36 
L 1041.568024 516.885707 
" clip-path="url(#p6d03a40891)" style="fill: none; stroke: #b0b0b0; stroke-width: 0.8; stroke-linecap: square"/>
     </g>
     <g id="text_37">
      <!-- R -->
      <g transform="translate(1045.945824 530.63345) scale(0.2 -0.2)">
       <use xlink:href="#DejaVuSans-52"/>
      </g>
     </g>
    </g>
    <g id="xtick_29">
     <g id="line2d_41">
      <path d="M 842.645455 372.36 
L 987.171161 571.28257 
" clip-path="url(#p6d03a40891)" style="fill: none; stroke: #b0b0b0; stroke-width: 0.8; stroke-linecap: square"/>
     </g>
     <g id="text_38">
      <!-- K -->
      <g transform="translate(988.842342 588.127557) scale(0.2 -0.2)">
       <use xlink:href="#DejaVuSans-4b"/>
      </g>
     </g>
    </g>
    <g id="xtick_30">
     <g id="line2d_42">
      <path d="M 842.645455 372.36 
L 918.627115 606.207505 
" clip-path="url(#p6d03a40891)" style="fill: none; stroke: #b0b0b0; stroke-width: 0.8; stroke-linecap: square"/>
     </g>
     <g id="text_39">
      <!-- N -->
      <g transform="translate(915.472103 625.041047) scale(0.2 -0.2)">
       <use xlink:href="#DejaVuSans-4e"/>
      </g>
     </g>
    </g>
    <g id="xtick_31">
     <g id="line2d_43">
      <path d="M 842.645455 372.36 
L 842.645455 618.241818 
" clip-path="url(#p6d03a40891)" style="fill: none; stroke: #b0b0b0; stroke-width: 0.8; stroke-linecap: square"/>
     </g>
     <g id="text_40">
      <!-- Q -->
      <g transform="translate(834.77358 637.760568) scale(0.2 -0.2)">
       <use xlink:href="#DejaVuSans-51"/>
      </g>
     </g>
    </g>
    <g id="xtick_32">
     <g id="line2d_44">
      <path d="M 842.645455 372.36 
L 766.663794 606.207505 
" clip-path="url(#p6d03a40891)" style="fill: none; stroke: #b0b0b0; stroke-width: 0.8; stroke-linecap: square"/>
     </g>
     <g id="text_41">
      <!-- S -->
      <g transform="translate(755.989119 625.041047) scale(0.2 -0.2)">
       <use xlink:href="#DejaVuSans-53"/>
      </g>
     </g>
    </g>
    <g id="xtick_33">
     <g id="line2d_45">
      <path d="M 842.645455 372.36 
L 698.119748 571.28257 
" clip-path="url(#p6d03a40891)" style="fill: none; stroke: #b0b0b0; stroke-width: 0.8; stroke-linecap: square"/>
     </g>
     <g id="text_42">
      <!-- T -->
      <g transform="translate(683.782942 588.127557) scale(0.2 -0.2)">
       <use xlink:href="#DejaVuSans-54"/>
      </g>
     </g>
    </g>
    <g id="xtick_34">
     <g id="line2d_46">
      <path d="M 842.645455 372.36 
L 643.722885 516.885707 
" clip-path="url(#p6d03a40891)" style="fill: none; stroke: #b0b0b0; stroke-width: 0.8; stroke-linecap: square"/>
     </g>
     <g id="text_43">
      <!-- D -->
      <g transform="translate(624.696647 530.63345) scale(0.2 -0.2)">
       <use xlink:href="#DejaVuSans-44"/>
      </g>
     </g>
    </g>
    <g id="xtick_35">
     <g id="line2d_47">
      <path d="M 842.645455 372.36 
L 608.797949 448.34166 
" clip-path="url(#p6d03a40891)" style="fill: none; stroke: #b0b0b0; stroke-width: 0.8; stroke-linecap: square"/>
     </g>
     <g id="text_44">
      <!-- E -->
      <g transform="translate(589.164408 458.186648) scale(0.2 -0.2)">
       <use xlink:href="#DejaVuSans-45"/>
      </g>
     </g>
    </g>
    <g id="xtick_36">
     <g id="line2d_48">
      <path d="M 842.645455 372.36 
L 596.763636 372.36 
" clip-path="url(#p6d03a40891)" style="fill: none; stroke: #b0b0b0; stroke-width: 0.8; stroke-linecap: square"/>
     </g>
     <g id="text_45">
      <!-- A -->
      <g transform="translate(575.923011 377.87875) scale(0.2 -0.2)">
       <use xlink:href="#DejaVuSans-41"/>
      </g>
     </g>
    </g>
    <g id="xtick_37">
     <g id="line2d_49">
      <path d="M 842.645455 372.36 
L 608.797949 296.37834 
" clip-path="url(#p6d03a40891)" style="fill: none; stroke: #b0b0b0; stroke-width: 0.8; stroke-linecap: square"/>
     </g>
     <g id="text_46">
      <!-- C -->
      <g transform="translate(588.500345 297.570852) scale(0.2 -0.2)">
       <use xlink:href="#DejaVuSans-43"/>
      </g>
     </g>
    </g>
    <g id="xtick_38">
     <g id="line2d_50">
      <path d="M 842.645455 372.36 
L 643.722885 227.834293 
" clip-path="url(#p6d03a40891)" style="fill: none; stroke: #b0b0b0; stroke-width: 0.8; stroke-linecap: square"/>
     </g>
     <g id="text_47">
      <!-- G -->
      <g transform="translate(624.64821 225.12405) scale(0.2 -0.2)">
       <use xlink:href="#DejaVuSans-47"/>
      </g>
     </g>
    </g>
    <g id="xtick_39">
     <g id="line2d_51">
      <path d="M 842.645455 372.36 
L 698.119748 173.43743 
" clip-path="url(#p6d03a40891)" style="fill: none; stroke: #b0b0b0; stroke-width: 0.8; stroke-linecap: square"/>
     </g>
     <g id="text_48">
      <!-- H -->
      <g transform="translate(682.370442 167.629943) scale(0.2 -0.2)">
       <use xlink:href="#DejaVuSans-48"/>
      </g>
     </g>
    </g>
    <g id="xtick_40">
     <g id="line2d_52">
      <path d="M 842.645455 372.36 
L 766.663794 138.512495 
" clip-path="url(#p6d03a40891)" style="fill: none; stroke: #b0b0b0; stroke-width: 0.8; stroke-linecap: square"/>
     </g>
     <g id="text_49">
      <!-- P -->
      <g transform="translate(756.307869 130.716453) scale(0.2 -0.2)">
       <use xlink:href="#DejaVuSans-50"/>
      </g>
     </g>
    </g>
   </g>
   <g id="matplotlib.axis_4">
    <g id="ytick_9">
     <g id="line2d_53">
      <path d="M 842.645455 339.51668 
C 846.9584 339.51668 851.229407 340.366236 855.214049 342.016729 
C 859.198691 343.667221 862.819476 346.086553 865.869189 349.136266 
C 868.918902 352.185978 871.338233 355.806764 872.988726 359.791405 
C 874.639219 363.776047 875.488775 368.047055 875.488775 372.36 
C 875.488775 376.672945 874.639219 380.943953 872.988726 384.928595 
C 871.338233 388.913236 868.918902 392.534022 865.869189 395.583734 
C 862.819476 398.633447 859.198691 401.052779 855.214049 402.703271 
C 851.229407 404.353764 846.9584 405.20332 842.645455 405.20332 
C 838.332509 405.20332 834.061502 404.353764 830.07686 402.703271 
C 826.092218 401.052779 822.471433 398.633447 819.42172 395.583734 
C 816.372007 392.534022 813.952676 388.913236 812.302183 384.928595 
C 810.651691 380.943953 809.802134 376.672945 809.802134 372.36 
C 809.802134 368.047055 810.651691 363.776047 812.302183 359.791405 
C 813.952676 355.806764 816.372007 352.185978 819.42172 349.136266 
C 822.471433 346.086553 826.092218 343.667221 830.07686 342.016729 
C 834.061502 340.366236 838.332509 339.51668 842.645455 339.51668 
" clip-path="url(#p6d03a40891)" style="fill: none; stroke: #b0b0b0; stroke-width: 0.8; stroke-linecap: square"/>
     </g>
     <g id="text_50">
      <!-- 0.025 -->
      <g transform="translate(842.645455 335.357305) scale(0.2 -0.2)">
       <defs>
        <path id="DejaVuSans-35" d="M 691 4666 
L 3169 4666 
L 3169 4134 
L 1269 4134 
L 1269 2991 
Q 1406 3038 1543 3061 
Q 1681 3084 1819 3084 
Q 2600 3084 3056 2656 
Q 3513 2228 3513 1497 
Q 3513 744 3044 326 
Q 2575 -91 1722 -91 
Q 1428 -91 1123 -41 
Q 819 9 494 109 
L 494 744 
Q 775 591 1075 516 
Q 1375 441 1709 441 
Q 2250 441 2565 725 
Q 2881 1009 2881 1497 
Q 2881 1984 2565 2268 
Q 2250 2553 1709 2553 
Q 1456 2553 1204 2497 
Q 953 2441 691 2322 
L 691 4666 
z
" transform="scale(0.015625)"/>
       </defs>
       <use xlink:href="#DejaVuSans-30"/>
       <use xlink:href="#DejaVuSans-2e" x="63.623047"/>
       <use xlink:href="#DejaVuSans-30" x="95.410156"/>
       <use xlink:href="#DejaVuSans-32" x="159.033203"/>
       <use xlink:href="#DejaVuSans-35" x="222.65625"/>
      </g>
     </g>
    </g>
    <g id="ytick_10">
     <g id="line2d_54">
      <path d="M 842.645455 306.67336 
C 851.271345 306.67336 859.81336 308.372472 867.782644 311.673457 
C 875.751927 314.974443 882.993498 319.813105 889.092923 325.912531 
C 895.192349 332.011957 900.031012 339.253527 903.331997 347.222811 
C 906.632983 355.192095 908.332095 363.734109 908.332095 372.36 
C 908.332095 380.985891 906.632983 389.527905 903.331997 397.497189 
C 900.031012 405.466473 895.192349 412.708043 889.092923 418.807469 
C 882.993498 424.906895 875.751927 429.745557 867.782644 433.046543 
C 859.81336 436.347528 851.271345 438.04664 842.645455 438.04664 
C 834.019564 438.04664 825.477549 436.347528 817.508266 433.046543 
C 809.538982 429.745557 802.297411 424.906895 796.197986 418.807469 
C 790.09856 412.708043 785.259897 405.466473 781.958912 397.497189 
C 778.657926 389.527905 776.958814 380.985891 776.958814 372.36 
C 776.958814 363.734109 778.657926 355.192095 781.958912 347.222811 
C 785.259897 339.253527 790.09856 332.011957 796.197986 325.912531 
C 802.297411 319.813105 809.538982 314.974443 817.508266 311.673457 
C 825.477549 308.372472 834.019564 306.67336 842.645455 306.67336 
" clip-path="url(#p6d03a40891)" style="fill: none; stroke: #b0b0b0; stroke-width: 0.8; stroke-linecap: square"/>
     </g>
     <g id="text_51">
      <!-- 0.050 -->
      <g transform="translate(842.645455 302.513985) scale(0.2 -0.2)">
       <use xlink:href="#DejaVuSans-30"/>
       <use xlink:href="#DejaVuSans-2e" x="63.623047"/>
       <use xlink:href="#DejaVuSans-30" x="95.410156"/>
       <use xlink:href="#DejaVuSans-35" x="159.033203"/>
       <use xlink:href="#DejaVuSans-30" x="222.65625"/>
      </g>
     </g>
    </g>
    <g id="ytick_11">
     <g id="line2d_55">
      <path d="M 842.645455 273.830039 
C 855.58429 273.830039 868.397312 276.378708 880.351238 281.330186 
C 892.305164 286.281664 903.167519 293.539658 912.316658 302.688797 
C 921.465796 311.837935 928.72379 322.700291 933.675269 334.654216 
C 938.626747 346.608142 941.175415 359.421164 941.175415 372.36 
C 941.175415 385.298836 938.626747 398.111858 933.675269 410.065784 
C 928.72379 422.019709 921.465796 432.882065 912.316658 442.031203 
C 903.167519 451.180342 892.305164 458.438336 880.351238 463.389814 
C 868.397312 468.341292 855.58429 470.889961 842.645455 470.889961 
C 829.706619 470.889961 816.893597 468.341292 804.939671 463.389814 
C 792.985745 458.438336 782.12339 451.180342 772.974251 442.031203 
C 763.825113 432.882065 756.567119 422.019709 751.615641 410.065784 
C 746.664162 398.111858 744.115494 385.298836 744.115494 372.36 
C 744.115494 359.421164 746.664162 346.608142 751.615641 334.654216 
C 756.567119 322.700291 763.825113 311.837935 772.974251 302.688797 
C 782.12339 293.539658 792.985745 286.281664 804.939671 281.330186 
C 816.893597 276.378708 829.706619 273.830039 842.645455 273.830039 
" clip-path="url(#p6d03a40891)" style="fill: none; stroke: #b0b0b0; stroke-width: 0.8; stroke-linecap: square"/>
     </g>
     <g id="text_52">
      <!-- 0.075 -->
      <g transform="translate(842.645455 269.670664) scale(0.2 -0.2)">
       <defs>
        <path id="DejaVuSans-37" d="M 525 4666 
L 3525 4666 
L 3525 4397 
L 1831 0 
L 1172 0 
L 2766 4134 
L 525 4134 
L 525 4666 
z
" transform="scale(0.015625)"/>
       </defs>
       <use xlink:href="#DejaVuSans-30"/>
       <use xlink:href="#DejaVuSans-2e" x="63.623047"/>
       <use xlink:href="#DejaVuSans-30" x="95.410156"/>
       <use xlink:href="#DejaVuSans-37" x="159.033203"/>
       <use xlink:href="#DejaVuSans-35" x="222.65625"/>
      </g>
     </g>
    </g>
    <g id="ytick_12">
     <g id="line2d_56">
      <path d="M 842.645455 240.986719 
C 859.897236 240.986719 876.981265 244.384944 892.919833 250.986915 
C 908.8584 257.588885 923.341541 267.266211 935.540392 279.465062 
C 947.739244 291.663914 957.416569 306.147054 964.01854 322.085622 
C 970.620511 338.024189 974.018735 355.108219 974.018735 372.36 
C 974.018735 389.611781 970.620511 406.695811 964.01854 422.634378 
C 957.416569 438.572946 947.739244 453.056086 935.540392 465.254938 
C 923.341541 477.453789 908.8584 487.131115 892.919833 493.733085 
C 876.981265 500.335056 859.897236 503.733281 842.645455 503.733281 
C 825.393673 503.733281 808.309644 500.335056 792.371076 493.733085 
C 776.432509 487.131115 761.949368 477.453789 749.750517 465.254938 
C 737.551665 453.056086 727.87434 438.572946 721.272369 422.634378 
C 714.670398 406.695811 711.272174 389.611781 711.272174 372.36 
C 711.272174 355.108219 714.670398 338.024189 721.272369 322.085622 
C 727.87434 306.147054 737.551665 291.663914 749.750517 279.465062 
C 761.949368 267.266211 776.432509 257.588885 792.371076 250.986915 
C 808.309644 244.384944 825.393673 240.986719 842.645455 240.986719 
" clip-path="url(#p6d03a40891)" style="fill: none; stroke: #b0b0b0; stroke-width: 0.8; stroke-linecap: square"/>
     </g>
     <g id="text_53">
      <!-- 0.100 -->
      <g transform="translate(842.645455 236.827344) scale(0.2 -0.2)">
       <use xlink:href="#DejaVuSans-30"/>
       <use xlink:href="#DejaVuSans-2e" x="63.623047"/>
       <use xlink:href="#DejaVuSans-31" x="95.410156"/>
       <use xlink:href="#DejaVuSans-30" x="159.033203"/>
       <use xlink:href="#DejaVuSans-30" x="222.65625"/>
      </g>
     </g>
    </g>
    <g id="ytick_13">
     <g id="line2d_57">
      <path d="M 842.645455 208.143399 
C 864.210181 208.143399 885.565218 212.39118 905.488427 220.643643 
C 925.411637 228.896107 943.515562 240.992763 958.764127 256.241328 
C 974.012691 271.489892 986.109348 289.593818 994.361811 309.517027 
C 1002.614275 329.440237 1006.862056 350.795274 1006.862056 372.36 
C 1006.862056 393.924726 1002.614275 415.279763 994.361811 435.202973 
C 986.109348 455.126182 974.012691 473.230108 958.764127 488.478672 
C 943.515562 503.727237 925.411637 515.823893 905.488427 524.076357 
C 885.565218 532.32882 864.210181 536.576601 842.645455 536.576601 
C 821.080728 536.576601 799.725691 532.32882 779.802482 524.076357 
C 759.879273 515.823893 741.775347 503.727237 726.526782 488.478672 
C 711.278218 473.230108 699.181561 455.126182 690.929098 435.202973 
C 682.676634 415.279763 678.428853 393.924726 678.428853 372.36 
C 678.428853 350.795274 682.676634 329.440237 690.929098 309.517027 
C 699.181561 289.593818 711.278218 271.489892 726.526782 256.241328 
C 741.775347 240.992763 759.879273 228.896107 779.802482 220.643643 
C 799.725691 212.39118 821.080728 208.143399 842.645455 208.143399 
" clip-path="url(#p6d03a40891)" style="fill: none; stroke: #b0b0b0; stroke-width: 0.8; stroke-linecap: square"/>
     </g>
     <g id="text_54">
      <!-- 0.125 -->
      <g transform="translate(842.645455 203.984024) scale(0.2 -0.2)">
       <use xlink:href="#DejaVuSans-30"/>
       <use xlink:href="#DejaVuSans-2e" x="63.623047"/>
       <use xlink:href="#DejaVuSans-31" x="95.410156"/>
       <use xlink:href="#DejaVuSans-32" x="159.033203"/>
       <use xlink:href="#DejaVuSans-35" x="222.65625"/>
      </g>
     </g>
    </g>
    <g id="ytick_14">
     <g id="line2d_58">
      <path d="M 842.645455 175.300079 
C 868.523126 175.300079 894.14917 180.397416 918.057022 190.300372 
C 941.964873 200.203328 963.689584 214.719316 981.987861 233.017593 
C 1000.286138 251.315871 1014.802126 273.040582 1024.705083 296.948433 
C 1034.608039 320.856284 1039.705376 346.482328 1039.705376 372.36 
C 1039.705376 398.237672 1034.608039 423.863716 1024.705083 447.771567 
C 1014.802126 471.679418 1000.286138 493.404129 981.987861 511.702407 
C 963.689584 530.000684 941.964873 544.516672 918.057022 554.419628 
C 894.14917 564.322584 868.523126 569.419921 842.645455 569.419921 
C 816.767783 569.419921 791.141739 564.322584 767.233887 554.419628 
C 743.326036 544.516672 721.601325 530.000684 703.303048 511.702407 
C 685.004771 493.404129 670.488783 471.679418 660.585827 447.771567 
C 650.68287 423.863716 645.585533 398.237672 645.585533 372.36 
C 645.585533 346.482328 650.68287 320.856284 660.585827 296.948433 
C 670.488783 273.040582 685.004771 251.315871 703.303048 233.017593 
C 721.601325 214.719316 743.326036 200.203328 767.233887 190.300372 
C 791.141739 180.397416 816.767783 175.300079 842.645455 175.300079 
" clip-path="url(#p6d03a40891)" style="fill: none; stroke: #b0b0b0; stroke-width: 0.8; stroke-linecap: square"/>
     </g>
     <g id="text_55">
      <!-- 0.150 -->
      <g transform="translate(842.645455 171.140704) scale(0.2 -0.2)">
       <use xlink:href="#DejaVuSans-30"/>
       <use xlink:href="#DejaVuSans-2e" x="63.623047"/>
       <use xlink:href="#DejaVuSans-31" x="95.410156"/>
       <use xlink:href="#DejaVuSans-35" x="159.033203"/>
       <use xlink:href="#DejaVuSans-30" x="222.65625"/>
      </g>
     </g>
    </g>
    <g id="ytick_15">
     <g id="line2d_59">
      <path d="M 842.645455 142.456758 
C 872.836072 142.456758 902.733123 148.403652 930.625616 159.957101 
C 958.518109 171.51055 983.863606 188.445869 1005.211596 209.793859 
C 1026.559586 231.141849 1043.494905 256.487345 1055.048354 284.379838 
C 1066.601803 312.272332 1072.548696 342.169383 1072.548696 372.36 
C 1072.548696 402.550617 1066.601803 432.447668 1055.048354 460.340162 
C 1043.494905 488.232655 1026.559586 513.578151 1005.211596 534.926141 
C 983.863606 556.274131 958.518109 573.20945 930.625616 584.762899 
C 902.733123 596.316348 872.836072 602.263242 842.645455 602.263242 
C 812.454837 602.263242 782.557786 596.316348 754.665293 584.762899 
C 726.7728 573.20945 701.427303 556.274131 680.079313 534.926141 
C 658.731323 513.578151 641.796004 488.232655 630.242555 460.340162 
C 618.689106 432.447668 612.742213 402.550617 612.742213 372.36 
C 612.742213 342.169383 618.689106 312.272332 630.242555 284.379838 
C 641.796004 256.487345 658.731323 231.141849 680.079313 209.793859 
C 701.427303 188.445869 726.7728 171.51055 754.665293 159.957101 
C 782.557786 148.403652 812.454837 142.456758 842.645455 142.456758 
" clip-path="url(#p6d03a40891)" style="fill: none; stroke: #b0b0b0; stroke-width: 0.8; stroke-linecap: square"/>
     </g>
     <g id="text_56">
      <!-- 0.175 -->
      <g transform="translate(842.645455 138.297383) scale(0.2 -0.2)">
       <use xlink:href="#DejaVuSans-30"/>
       <use xlink:href="#DejaVuSans-2e" x="63.623047"/>
       <use xlink:href="#DejaVuSans-31" x="95.410156"/>
       <use xlink:href="#DejaVuSans-37" x="159.033203"/>
       <use xlink:href="#DejaVuSans-35" x="222.65625"/>
      </g>
     </g>
    </g>
   </g>
   <g id="line2d_60">
    <path d="M 842.645455 256.110299 
L 902.326758 188.679834 
L 866.6031 339.38513 
L 895.589692 333.89376 
L 860.27921 366.630445 
L 882.316515 372.36 
L 973.317581 414.817948 
L 858.801901 384.098345 
L 848.706248 380.701966 
L 853.113167 404.576305 
L 842.645455 396.067642 
L 817.439551 449.935796 
L 800.836641 429.904895 
L 810.105498 396.001662 
L 815.229769 381.267896 
L 672.728095 372.36 
L 817.841569 364.300729 
L 734.060162 293.468167 
L 831.512427 357.036702 
L 829.118822 330.729306 
L 842.645455 256.110299 
" clip-path="url(#p6d03a40891)" style="fill: none; stroke: #1e9cce; stroke-linecap: square"/>
   </g>
   <g id="line2d_61">
    <path d="M 842.645455 231.038603 
L 903.261761 185.802193 
L 859.169231 349.616973 
L 898.236531 331.970719 
L 855.698687 368.118748 
L 893.90475 372.36 
L 1004.343276 424.898807 
L 855.241896 381.511851 
L 849.567457 381.887319 
L 851.040928 398.198609 
L 842.645455 384.251731 
L 815.806233 454.962629 
L 804.778005 424.480072 
L 811.636966 394.888986 
L 811.742892 382.400851 
L 689.864027 372.36 
L 825.862978 366.907043 
L 744.947529 301.378302 
L 833.379765 359.606873 
L 827.514392 325.791379 
L 842.645455 231.038603 
" clip-path="url(#p6d03a40891)" style="fill: none; stroke: #ff0000; stroke-linecap: square"/>
   </g>
   <g id="line2d_62">
    <path d="M 842.645455 228.566687 
L 915.11604 149.318471 
L 851.634429 359.987738 
L 895.809443 333.734101 
L 851.444775 369.500927 
L 891.749354 372.36 
L 1018.805339 429.597816 
L 853.116916 379.967962 
L 847.49385 379.033244 
L 850.021881 395.062305 
L 842.645455 379.84821 
L 826.322038 422.59831 
L 807.233653 421.100164 
L 812.099233 394.553129 
L 818.38986 380.24112 
L 651.852282 372.36 
L 828.749337 367.844878 
L 752.478427 306.84982 
L 835.599903 362.662631 
L 826.234909 321.853533 
L 842.645455 228.566687 
" clip-path="url(#p6d03a40891)" style="fill: none; stroke-dasharray: 3.7,1.6; stroke-dashoffset: 0; stroke: #000000"/>
   </g>
   <g id="line2d_63">
    <path d="M 842.645455 219.129229 
L 906.839293 174.79168 
L 854.594689 355.91329 
L 898.366205 331.876505 
L 852.61027 369.122235 
L 894.47245 372.36 
L 1009.964979 426.725409 
L 852.582797 379.579902 
L 848.558007 380.49793 
L 849.783593 394.328932 
L 842.645455 379.638225 
L 819.425003 443.825201 
L 804.979255 424.203076 
L 814.916268 392.506434 
L 815.010163 381.33925 
L 673.431626 372.36 
L 828.287857 367.694934 
L 743.733633 300.496355 
L 835.281917 362.224961 
L 826.900739 323.902749 
L 842.645455 219.129229 
" clip-path="url(#p6d03a40891)" style="fill: none; stroke-dasharray: 3.7,1.6; stroke-dashoffset: 0; stroke: #b43445"/>
   </g>
   <g id="patch_13">
    <path d="M 842.645455 126.478182 
C 810.35655 126.478182 778.381614 132.838392 748.550556 145.194821 
C 718.719498 157.55125 691.612457 175.663596 668.780754 198.495299 
C 645.94905 221.327002 627.836704 248.434044 615.480275 278.265102 
C 603.123847 308.09616 596.763636 340.071095 596.763636 372.36 
C 596.763636 404.648905 603.123847 436.62384 615.480275 466.454898 
C 627.836704 496.285956 645.94905 523.392998 668.780754 546.224701 
C 691.612457 569.056404 718.719498 587.16875 748.550556 599.525179 
C 778.381614 611.881608 810.35655 618.241818 842.645455 618.241818 
C 874.934359 618.241818 906.909295 611.881608 936.740353 599.525179 
C 966.571411 587.16875 993.678452 569.056404 1016.510156 546.224701 
C 1039.341859 523.392998 1057.454205 496.285956 1069.810634 466.454898 
C 1082.167063 436.62384 1088.527273 404.648905 1088.527273 372.36 
C 1088.527273 340.071095 1082.167063 308.09616 1069.810634 278.265102 
C 1057.454205 248.434044 1039.341859 221.327002 1016.510156 198.495299 
C 993.678452 175.663596 966.571411 157.55125 936.740353 145.194821 
C 906.909295 132.838392 874.934359 126.478182 842.645455 126.478182 
" style="fill: none; stroke: #000000; stroke-width: 0.8; stroke-linejoin: miter; stroke-linecap: square"/>
   </g>
   <g id="text_57">
    <!-- Core amino acid frequencies -->
    <g transform="translate(671.157955 96.800057) scale(0.24 -0.24)">
     <use xlink:href="#DejaVuSans-43"/>
     <use xlink:href="#DejaVuSans-6f" x="69.824219"/>
     <use xlink:href="#DejaVuSans-72" x="131.005859"/>
     <use xlink:href="#DejaVuSans-65" x="169.869141"/>
     <use xlink:href="#DejaVuSans-20" x="231.392578"/>
     <use xlink:href="#DejaVuSans-61" x="263.179688"/>
     <use xlink:href="#DejaVuSans-6d" x="324.458984"/>
     <use xlink:href="#DejaVuSans-69" x="421.871094"/>
     <use xlink:href="#DejaVuSans-6e" x="449.654297"/>
     <use xlink:href="#DejaVuSans-6f" x="513.033203"/>
     <use xlink:href="#DejaVuSans-20" x="574.214844"/>
     <use xlink:href="#DejaVuSans-61" x="606.001953"/>
     <use xlink:href="#DejaVuSans-63" x="667.28125"/>
     <use xlink:href="#DejaVuSans-69" x="722.261719"/>
     <use xlink:href="#DejaVuSans-64" x="750.044922"/>
     <use xlink:href="#DejaVuSans-20" x="813.521484"/>
     <use xlink:href="#DejaVuSans-66" x="845.308594"/>
     <use xlink:href="#DejaVuSans-72" x="880.513672"/>
     <use xlink:href="#DejaVuSans-65" x="919.376953"/>
     <use xlink:href="#DejaVuSans-71" x="980.900391"/>
     <use xlink:href="#DejaVuSans-75" x="1044.376953"/>
     <use xlink:href="#DejaVuSans-65" x="1107.755859"/>
     <use xlink:href="#DejaVuSans-6e" x="1169.279297"/>
     <use xlink:href="#DejaVuSans-63" x="1232.658203"/>
     <use xlink:href="#DejaVuSans-69" x="1287.638672"/>
     <use xlink:href="#DejaVuSans-65" x="1315.421875"/>
     <use xlink:href="#DejaVuSans-73" x="1376.945312"/>
    </g>
   </g>
   <g id="legend_1">
    <g id="patch_14">
     <path d="M 1034.215159 210.726818 
L 1404.008909 210.726818 
Q 1408.008909 210.726818 1408.008909 206.726818 
L 1408.008909 91.301818 
Q 1408.008909 87.301818 1404.008909 87.301818 
L 1034.215159 87.301818 
Q 1030.215159 87.301818 1030.215159 91.301818 
L 1030.215159 206.726818 
Q 1030.215159 210.726818 1034.215159 210.726818 
z
" style="fill: #ffffff; opacity: 0.8; stroke: #cccccc; stroke-linejoin: miter"/>
    </g>
    <g id="line2d_64">
     <path d="M 1038.215159 103.498693 
L 1058.215159 103.498693 
L 1078.215159 103.498693 
" style="fill: none; stroke: #1e9cce; stroke-linecap: square"/>
    </g>
    <g id="text_58">
     <!-- E. coli -->
     <g transform="translate(1094.215159 110.498693) scale(0.2 -0.2)">
      <defs>
       <path id="DejaVuSans-6c" d="M 603 4863 
L 1178 4863 
L 1178 0 
L 603 0 
L 603 4863 
z
" transform="scale(0.015625)"/>
      </defs>
      <use xlink:href="#DejaVuSans-45"/>
      <use xlink:href="#DejaVuSans-2e" x="63.183594"/>
      <use xlink:href="#DejaVuSans-20" x="94.970703"/>
      <use xlink:href="#DejaVuSans-63" x="126.757812"/>
      <use xlink:href="#DejaVuSans-6f" x="181.738281"/>
      <use xlink:href="#DejaVuSans-6c" x="242.919922"/>
      <use xlink:href="#DejaVuSans-69" x="270.703125"/>
     </g>
    </g>
    <g id="line2d_65">
     <path d="M 1038.215159 132.854943 
L 1058.215159 132.854943 
L 1078.215159 132.854943 
" style="fill: none; stroke: #ff0000; stroke-linecap: square"/>
    </g>
    <g id="text_59">
     <!-- Hyperthermophiles -->
     <g transform="translate(1094.215159 139.854943) scale(0.2 -0.2)">
      <defs>
       <path id="DejaVuSans-79" d="M 2059 -325 
Q 1816 -950 1584 -1140 
Q 1353 -1331 966 -1331 
L 506 -1331 
L 506 -850 
L 844 -850 
Q 1081 -850 1212 -737 
Q 1344 -625 1503 -206 
L 1606 56 
L 191 3500 
L 800 3500 
L 1894 763 
L 2988 3500 
L 3597 3500 
L 2059 -325 
z
" transform="scale(0.015625)"/>
       <path id="DejaVuSans-70" d="M 1159 525 
L 1159 -1331 
L 581 -1331 
L 581 3500 
L 1159 3500 
L 1159 2969 
Q 1341 3281 1617 3432 
Q 1894 3584 2278 3584 
Q 2916 3584 3314 3078 
Q 3713 2572 3713 1747 
Q 3713 922 3314 415 
Q 2916 -91 2278 -91 
Q 1894 -91 1617 61 
Q 1341 213 1159 525 
z
M 3116 1747 
Q 3116 2381 2855 2742 
Q 2594 3103 2138 3103 
Q 1681 3103 1420 2742 
Q 1159 2381 1159 1747 
Q 1159 1113 1420 752 
Q 1681 391 2138 391 
Q 2594 391 2855 752 
Q 3116 1113 3116 1747 
z
" transform="scale(0.015625)"/>
       <path id="DejaVuSans-74" d="M 1172 4494 
L 1172 3500 
L 2356 3500 
L 2356 3053 
L 1172 3053 
L 1172 1153 
Q 1172 725 1289 603 
Q 1406 481 1766 481 
L 2356 481 
L 2356 0 
L 1766 0 
Q 1100 0 847 248 
Q 594 497 594 1153 
L 594 3053 
L 172 3053 
L 172 3500 
L 594 3500 
L 594 4494 
L 1172 4494 
z
" transform="scale(0.015625)"/>
       <path id="DejaVuSans-68" d="M 3513 2113 
L 3513 0 
L 2938 0 
L 2938 2094 
Q 2938 2591 2744 2837 
Q 2550 3084 2163 3084 
Q 1697 3084 1428 2787 
Q 1159 2491 1159 1978 
L 1159 0 
L 581 0 
L 581 4863 
L 1159 4863 
L 1159 2956 
Q 1366 3272 1645 3428 
Q 1925 3584 2291 3584 
Q 2894 3584 3203 3211 
Q 3513 2838 3513 2113 
z
" transform="scale(0.015625)"/>
      </defs>
      <use xlink:href="#DejaVuSans-48"/>
      <use xlink:href="#DejaVuSans-79" x="75.195312"/>
      <use xlink:href="#DejaVuSans-70" x="134.375"/>
      <use xlink:href="#DejaVuSans-65" x="197.851562"/>
      <use xlink:href="#DejaVuSans-72" x="259.375"/>
      <use xlink:href="#DejaVuSans-74" x="300.488281"/>
      <use xlink:href="#DejaVuSans-68" x="339.697266"/>
      <use xlink:href="#DejaVuSans-65" x="403.076172"/>
      <use xlink:href="#DejaVuSans-72" x="464.599609"/>
      <use xlink:href="#DejaVuSans-6d" x="503.962891"/>
      <use xlink:href="#DejaVuSans-6f" x="601.375"/>
      <use xlink:href="#DejaVuSans-70" x="662.556641"/>
      <use xlink:href="#DejaVuSans-68" x="726.033203"/>
      <use xlink:href="#DejaVuSans-69" x="789.412109"/>
      <use xlink:href="#DejaVuSans-6c" x="817.195312"/>
      <use xlink:href="#DejaVuSans-65" x="844.978516"/>
      <use xlink:href="#DejaVuSans-73" x="906.501953"/>
     </g>
    </g>
    <g id="line2d_66">
     <path d="M 1038.215159 162.211193 
L 1058.215159 162.211193 
L 1078.215159 162.211193 
" style="fill: none; stroke-dasharray: 3.7,1.6; stroke-dashoffset: 0; stroke: #000000"/>
    </g>
    <g id="text_60">
     <!-- Hyperth. ProteinMPNN designs -->
     <g transform="translate(1094.215159 169.211193) scale(0.2 -0.2)">
      <defs>
       <path id="DejaVuSans-67" d="M 2906 1791 
Q 2906 2416 2648 2759 
Q 2391 3103 1925 3103 
Q 1463 3103 1205 2759 
Q 947 2416 947 1791 
Q 947 1169 1205 825 
Q 1463 481 1925 481 
Q 2391 481 2648 825 
Q 2906 1169 2906 1791 
z
M 3481 434 
Q 3481 -459 3084 -895 
Q 2688 -1331 1869 -1331 
Q 1566 -1331 1297 -1286 
Q 1028 -1241 775 -1147 
L 775 -588 
Q 1028 -725 1275 -790 
Q 1522 -856 1778 -856 
Q 2344 -856 2625 -561 
Q 2906 -266 2906 331 
L 2906 616 
Q 2728 306 2450 153 
Q 2172 0 1784 0 
Q 1141 0 747 490 
Q 353 981 353 1791 
Q 353 2603 747 3093 
Q 1141 3584 1784 3584 
Q 2172 3584 2450 3431 
Q 2728 3278 2906 2969 
L 2906 3500 
L 3481 3500 
L 3481 434 
z
" transform="scale(0.015625)"/>
      </defs>
      <use xlink:href="#DejaVuSans-48"/>
      <use xlink:href="#DejaVuSans-79" x="75.195312"/>
      <use xlink:href="#DejaVuSans-70" x="134.375"/>
      <use xlink:href="#DejaVuSans-65" x="197.851562"/>
      <use xlink:href="#DejaVuSans-72" x="259.375"/>
      <use xlink:href="#DejaVuSans-74" x="300.488281"/>
      <use xlink:href="#DejaVuSans-68" x="339.697266"/>
      <use xlink:href="#DejaVuSans-2e" x="403.076172"/>
      <use xlink:href="#DejaVuSans-20" x="434.863281"/>
      <use xlink:href="#DejaVuSans-50" x="466.650391"/>
      <use xlink:href="#DejaVuSans-72" x="525.203125"/>
      <use xlink:href="#DejaVuSans-6f" x="564.066406"/>
      <use xlink:href="#DejaVuSans-74" x="625.248047"/>
      <use xlink:href="#DejaVuSans-65" x="664.457031"/>
      <use xlink:href="#DejaVuSans-69" x="725.980469"/>
      <use xlink:href="#DejaVuSans-6e" x="753.763672"/>
      <use xlink:href="#DejaVuSans-4d" x="817.142578"/>
      <use xlink:href="#DejaVuSans-50" x="903.421875"/>
      <use xlink:href="#DejaVuSans-4e" x="963.724609"/>
      <use xlink:href="#DejaVuSans-4e" x="1038.529297"/>
      <use xlink:href="#DejaVuSans-20" x="1113.333984"/>
      <use xlink:href="#DejaVuSans-64" x="1145.121094"/>
      <use xlink:href="#DejaVuSans-65" x="1208.597656"/>
      <use xlink:href="#DejaVuSans-73" x="1270.121094"/>
      <use xlink:href="#DejaVuSans-69" x="1322.220703"/>
      <use xlink:href="#DejaVuSans-67" x="1350.003906"/>
      <use xlink:href="#DejaVuSans-6e" x="1413.480469"/>
      <use xlink:href="#DejaVuSans-73" x="1476.859375"/>
     </g>
    </g>
    <g id="line2d_67">
     <path d="M 1038.215159 191.567443 
L 1058.215159 191.567443 
L 1078.215159 191.567443 
" style="fill: none; stroke-dasharray: 3.7,1.6; stroke-dashoffset: 0; stroke: #b43445"/>
    </g>
    <g id="text_61">
     <!-- Hyperth. HyperMPNN designs -->
     <g transform="translate(1094.215159 198.567443) scale(0.2 -0.2)">
      <use xlink:href="#DejaVuSans-48"/>
      <use xlink:href="#DejaVuSans-79" x="75.195312"/>
      <use xlink:href="#DejaVuSans-70" x="134.375"/>
      <use xlink:href="#DejaVuSans-65" x="197.851562"/>
      <use xlink:href="#DejaVuSans-72" x="259.375"/>
      <use xlink:href="#DejaVuSans-74" x="300.488281"/>
      <use xlink:href="#DejaVuSans-68" x="339.697266"/>
      <use xlink:href="#DejaVuSans-2e" x="403.076172"/>
      <use xlink:href="#DejaVuSans-20" x="434.863281"/>
      <use xlink:href="#DejaVuSans-48" x="466.650391"/>
      <use xlink:href="#DejaVuSans-79" x="541.845703"/>
      <use xlink:href="#DejaVuSans-70" x="601.025391"/>
      <use xlink:href="#DejaVuSans-65" x="664.501953"/>
      <use xlink:href="#DejaVuSans-72" x="726.025391"/>
      <use xlink:href="#DejaVuSans-4d" x="767.138672"/>
      <use xlink:href="#DejaVuSans-50" x="853.417969"/>
      <use xlink:href="#DejaVuSans-4e" x="913.720703"/>
      <use xlink:href="#DejaVuSans-4e" x="988.525391"/>
      <use xlink:href="#DejaVuSans-20" x="1063.330078"/>
      <use xlink:href="#DejaVuSans-64" x="1095.117188"/>
      <use xlink:href="#DejaVuSans-65" x="1158.59375"/>
      <use xlink:href="#DejaVuSans-73" x="1220.117188"/>
      <use xlink:href="#DejaVuSans-69" x="1272.216797"/>
      <use xlink:href="#DejaVuSans-67" x="1300"/>
      <use xlink:href="#DejaVuSans-6e" x="1363.476562"/>
      <use xlink:href="#DejaVuSans-73" x="1426.855469"/>
     </g>
    </g>
   </g>
  </g>
 </g>
 <defs>
  <clipPath id="pfc818532d6">
   <path d="M 534.203636 372.36 
C 534.203636 340.071095 527.843426 308.09616 515.486997 278.265102 
C 503.130569 248.434044 485.018223 221.327002 462.186519 198.495299 
C 439.354816 175.663596 412.247774 157.55125 382.416716 145.194821 
C 352.585658 132.838392 320.610723 126.478182 288.321818 126.478182 
C 256.032914 126.478182 224.057978 132.838392 194.22692 145.194821 
C 164.395862 157.55125 137.288821 175.663596 114.457117 198.495299 
C 91.625414 221.327002 73.513068 248.434044 61.156639 278.265102 
C 48.80021 308.09616 42.44 340.071095 42.44 372.36 
C 42.44 404.648905 48.80021 436.62384 61.156639 466.454898 
C 73.513068 496.285956 91.625414 523.392998 114.457117 546.224701 
C 137.288821 569.056404 164.395862 587.16875 194.22692 599.525179 
C 224.057978 611.881608 256.032914 618.241818 288.321818 618.241818 
C 320.610723 618.241818 352.585658 611.881608 382.416716 599.525179 
C 412.247774 587.16875 439.354816 569.056404 462.186519 546.224701 
C 485.018223 523.392998 503.130569 496.285956 515.486997 466.454898 
C 527.843426 436.62384 534.203636 404.648905 534.203636 372.36 
M 288.321818 372.36 
C 288.321818 372.36 288.321818 372.36 288.321818 372.36 
C 288.321818 372.36 288.321818 372.36 288.321818 372.36 
C 288.321818 372.36 288.321818 372.36 288.321818 372.36 
C 288.321818 372.36 288.321818 372.36 288.321818 372.36 
C 288.321818 372.36 288.321818 372.36 288.321818 372.36 
C 288.321818 372.36 288.321818 372.36 288.321818 372.36 
C 288.321818 372.36 288.321818 372.36 288.321818 372.36 
C 288.321818 372.36 288.321818 372.36 288.321818 372.36 
C 288.321818 372.36 288.321818 372.36 288.321818 372.36 
C 288.321818 372.36 288.321818 372.36 288.321818 372.36 
C 288.321818 372.36 288.321818 372.36 288.321818 372.36 
C 288.321818 372.36 288.321818 372.36 288.321818 372.36 
C 288.321818 372.36 288.321818 372.36 288.321818 372.36 
C 288.321818 372.36 288.321818 372.36 288.321818 372.36 
C 288.321818 372.36 288.321818 372.36 288.321818 372.36 
C 288.321818 372.36 288.321818 372.36 288.321818 372.36 
z
"/>
  </clipPath>
  <clipPath id="p6d03a40891">
   <path d="M 1088.527273 372.36 
C 1088.527273 340.071095 1082.167063 308.09616 1069.810634 278.265102 
C 1057.454205 248.434044 1039.341859 221.327002 1016.510156 198.495299 
C 993.678452 175.663596 966.571411 157.55125 936.740353 145.194821 
C 906.909295 132.838392 874.934359 126.478182 842.645455 126.478182 
C 810.35655 126.478182 778.381614 132.838392 748.550556 145.194821 
C 718.719498 157.55125 691.612457 175.663596 668.780754 198.495299 
C 645.94905 221.327002 627.836704 248.434044 615.480275 278.265102 
C 603.123847 308.09616 596.763636 340.071095 596.763636 372.36 
C 596.763636 404.648905 603.123847 436.62384 615.480275 466.454898 
C 627.836704 496.285956 645.94905 523.392998 668.780754 546.224701 
C 691.612457 569.056404 718.719498 587.16875 748.550556 599.525179 
C 778.381614 611.881608 810.35655 618.241818 842.645455 618.241818 
C 874.934359 618.241818 906.909295 611.881608 936.740353 599.525179 
C 966.571411 587.16875 993.678452 569.056404 1016.510156 546.224701 
C 1039.341859 523.392998 1057.454205 496.285956 1069.810634 466.454898 
C 1082.167063 436.62384 1088.527273 404.648905 1088.527273 372.36 
M 842.645455 372.36 
C 842.645455 372.36 842.645455 372.36 842.645455 372.36 
C 842.645455 372.36 842.645455 372.36 842.645455 372.36 
C 842.645455 372.36 842.645455 372.36 842.645455 372.36 
C 842.645455 372.36 842.645455 372.36 842.645455 372.36 
C 842.645455 372.36 842.645455 372.36 842.645455 372.36 
C 842.645455 372.36 842.645455 372.36 842.645455 372.36 
C 842.645455 372.36 842.645455 372.36 842.645455 372.36 
C 842.645455 372.36 842.645455 372.36 842.645455 372.36 
C 842.645455 372.36 842.645455 372.36 842.645455 372.36 
C 842.645455 372.36 842.645455 372.36 842.645455 372.36 
C 842.645455 372.36 842.645455 372.36 842.645455 372.36 
C 842.645455 372.36 842.645455 372.36 842.645455 372.36 
C 842.645455 372.36 842.645455 372.36 842.645455 372.36 
C 842.645455 372.36 842.645455 372.36 842.645455 372.36 
C 842.645455 372.36 842.645455 372.36 842.645455 372.36 
C 842.645455 372.36 842.645455 372.36 842.645455 372.36 
z
"/>
  </clipPath>
 </defs>
</svg>
