<?xml version="1.0" encoding="utf-8" standalone="no"?>
<!DOCTYPE svg PUBLIC "-//W3C//DTD SVG 1.1//EN"
  "http://www.w3.org/Graphics/SVG/1.1/DTD/svg11.dtd">
<svg xmlns:xlink="http://www.w3.org/1999/xlink" width="1800pt" height="720pt" viewBox="0 0 1800 720" xmlns="http://www.w3.org/2000/svg" version="1.1">
 <metadata>
  <rdf:RDF xmlns:dc="http://purl.org/dc/elements/1.1/" xmlns:cc="http://creativecommons.org/ns#" xmlns:rdf="http://www.w3.org/1999/02/22-rdf-syntax-ns#">
   <cc:Work>
    <dc:type rdf:resource="http://purl.org/dc/dcmitype/StillImage"/>
    <dc:date>2024-08-20T17:47:46.884013</dc:date>
    <dc:format>image/svg+xml</dc:format>
    <dc:creator>
     <cc:Agent>
      <dc:title>Matplotlib v3.9.2, https://matplotlib.org/</dc:title>
     </cc:Agent>
    </dc:creator>
   </cc:Work>
  </rdf:RDF>
 </metadata>
 <defs>
  <style type="text/css">*{stroke-linejoin: round; stroke-linecap: butt}</style>
 </defs>
 <g id="figure_1">
  <g id="patch_1">
   <path d="M 0 720 
L 1800 720 
L 1800 0 
L 0 0 
z
" style="fill: #ffffff"/>
  </g>
  <g id="axes_1">
   <g id="patch_2">
    <path d="M 686.642091 372.36 
C 686.642091 332.706976 678.83131 293.439528 663.656755 256.804911 
C 648.482199 220.170294 626.238977 186.880958 598.200055 158.842036 
C 570.161132 130.803114 536.871797 108.559892 500.23718 93.385336 
C 463.602563 78.210781 424.335115 70.4 384.682091 70.4 
C 345.029067 70.4 305.761619 78.210781 269.127002 93.385336 
C 232.492385 108.559892 199.203049 130.803114 171.164127 158.842036 
C 143.125205 186.880958 120.881983 220.170294 105.707427 256.804911 
C 90.532872 293.439528 82.722091 332.706976 82.722091 372.36 
C 82.722091 412.013024 90.532872 451.280472 105.707427 487.915089 
C 120.881983 524.549706 143.125205 557.839042 171.164127 585.877964 
C 199.203049 613.916886 232.492385 636.160108 269.127002 651.334664 
C 305.761619 666.509219 345.029067 674.32 384.682091 674.32 
C 424.335115 674.32 463.602563 666.509219 500.23718 651.334664 
C 536.871797 636.160108 570.161132 613.916886 598.200055 585.877964 
C 626.238977 557.839042 648.482199 524.549706 663.656755 487.915089 
C 678.83131 451.280472 686.642091 412.013024 686.642091 372.36 
M 384.682091 372.36 
C 384.682091 372.36 384.682091 372.36 384.682091 372.36 
C 384.682091 372.36 384.682091 372.36 384.682091 372.36 
C 384.682091 372.36 384.682091 372.36 384.682091 372.36 
C 384.682091 372.36 384.682091 372.36 384.682091 372.36 
C 384.682091 372.36 384.682091 372.36 384.682091 372.36 
C 384.682091 372.36 384.682091 372.36 384.682091 372.36 
C 384.682091 372.36 384.682091 372.36 384.682091 372.36 
C 384.682091 372.36 384.682091 372.36 384.682091 372.36 
C 384.682091 372.36 384.682091 372.36 384.682091 372.36 
C 384.682091 372.36 384.682091 372.36 384.682091 372.36 
C 384.682091 372.36 384.682091 372.36 384.682091 372.36 
C 384.682091 372.36 384.682091 372.36 384.682091 372.36 
C 384.682091 372.36 384.682091 372.36 384.682091 372.36 
C 384.682091 372.36 384.682091 372.36 384.682091 372.36 
C 384.682091 372.36 384.682091 372.36 384.682091 372.36 
C 384.682091 372.36 384.682091 372.36 384.682091 372.36 
z
" style="fill: #ffffff"/>
   </g>
   <g id="patch_3">
    <path d="M 384.682091 287.236993 
L 434.701575 218.415858 
L 415.530895 329.900264 
L 438.738679 333.08559 
L 418.294652 361.438617 
L 446.532586 372.36 
L 475.802184 401.966713 
L 536.930508 482.97495 
L 480.133258 503.737261 
L 419.962824 480.942932 
L 384.682091 513.26351 
L 346.603805 489.552914 
L 315.553521 467.507314 
L 261.94344 461.534849 
L 205.180232 430.68369 
L 241.87592 372.36 
L 375.060582 369.233782 
L 294.07771 306.532064 
L 347.898414 321.731612 
L 350.004054 265.631978 
z
" clip-path="url(#p8c9eac85d7)" style="fill: #808080; opacity: 0.1; stroke: #808080; stroke-linejoin: miter"/>
   </g>
   <g id="patch_4">
    <path d="M 384.682091 260.370533 
L 440.317248 201.132592 
L 411.173495 335.897711 
L 445.84708 327.921034 
L 409.922053 364.159039 
L 485.605313 372.36 
L 487.675846 405.8247 
L 549.658905 492.222672 
L 520.21847 558.909821 
L 418.313442 475.866654 
L 384.682091 433.714529 
L 343.06756 500.436356 
L 331.729553 445.242916 
L 283.078371 446.179423 
L 153.564816 447.454555 
L 303.196799 372.36 
L 377.352766 369.978558 
L 291.087576 304.359605 
L 363.744297 343.541598 
L 354.109984 278.268731 
z
" clip-path="url(#p8c9eac85d7)" style="fill: #808080; opacity: 0.1; stroke: #808080; stroke-linejoin: miter"/>
   </g>
   <g id="patch_5">
    <path d="M 384.682091 321.094869 
L 451.588222 166.444103 
L 390.140478 364.847175 
L 413.505034 351.418906 
L 401.452134 366.911083 
L 442.538611 372.36 
L 473.475001 401.210565 
L 523.007249 472.85911 
L 515.921476 552.995517 
L 406.128634 438.365674 
L 384.682091 398.651153 
L 363.912511 436.282194 
L 317.092034 465.389732 
L 270.669952 455.194668 
L 111.07015 461.261909 
L 116.011359 372.36 
L 382.451851 371.635351 
L 299.321236 310.341709 
L 372.147237 355.107254 
L 321.092655 176.651841 
z
" clip-path="url(#p8c9eac85d7)" style="fill: #808080; opacity: 0.05; stroke: #808080; stroke-linejoin: miter"/>
   </g>
   <g id="patch_6">
    <path d="M 384.682091 282.792717 
L 446.881762 180.929095 
L 398.564096 353.253059 
L 425.962686 342.367892 
L 404.274307 365.994103 
L 484.836615 372.36 
L 482.99129 404.302595 
L 560.875594 500.372073 
L 525.295055 565.897141 
L 419.14311 478.420111 
L 384.682091 410.04481 
L 343.347034 499.576223 
L 333.484759 442.827082 
L 297.640854 435.599161 
L 131.721237 454.551964 
L 256.04628 372.36 
L 381.628142 371.367712 
L 291.886562 304.940102 
L 372.068161 354.998415 
L 345.227926 250.932566 
z
" clip-path="url(#p8c9eac85d7)" style="fill: #808080; opacity: 0.1; stroke: #808080; stroke-linejoin: miter"/>
   </g>
   <g id="matplotlib.axis_1">
    <g id="xtick_1">
     <g id="line2d_1">
      <path d="M 384.682091 372.36 
L 384.682091 70.4 
" clip-path="url(#p8c9eac85d7)" style="fill: none; stroke: #b0b0b0; stroke-width: 0.8; stroke-linecap: square"/>
     </g>
     <g id="text_1">
      <!-- I -->
      <g transform="translate(381.732091 61.91875) scale(0.2 -0.2)">
       <defs>
        <path id="DejaVuSans-49" d="M 628 4666 
L 1259 4666 
L 1259 0 
L 628 0 
L 628 4666 
z
" transform="scale(0.015625)"/>
       </defs>
       <use xlink:href="#DejaVuSans-49"/>
      </g>
     </g>
    </g>
    <g id="xtick_2">
     <g id="line2d_2">
      <path d="M 384.682091 372.36 
L 477.992863 85.178974 
" clip-path="url(#p8c9eac85d7)" style="fill: none; stroke: #b0b0b0; stroke-width: 0.8; stroke-linecap: square"/>
     </g>
     <g id="text_2">
      <!-- L -->
      <g transform="translate(476.747225 77.382933) scale(0.2 -0.2)">
       <defs>
        <path id="DejaVuSans-4c" d="M 628 4666 
L 1259 4666 
L 1259 531 
L 3531 531 
L 3531 0 
L 628 0 
L 628 4666 
z
" transform="scale(0.015625)"/>
       </defs>
       <use xlink:href="#DejaVuSans-4c"/>
      </g>
     </g>
    </g>
    <g id="xtick_3">
     <g id="line2d_3">
      <path d="M 384.682091 372.36 
L 562.169726 128.069228 
" clip-path="url(#p8c9eac85d7)" style="fill: none; stroke: #b0b0b0; stroke-width: 0.8; stroke-linecap: square"/>
     </g>
     <g id="text_3">
      <!-- M -->
      <g transform="translate(561.770594 122.26174) scale(0.2 -0.2)">
       <defs>
        <path id="DejaVuSans-4d" d="M 628 4666 
L 1569 4666 
L 2759 1491 
L 3956 4666 
L 4897 4666 
L 4897 0 
L 4281 0 
L 4281 4097 
L 3078 897 
L 2444 897 
L 1241 4097 
L 1241 0 
L 628 0 
L 628 4666 
z
" transform="scale(0.015625)"/>
       </defs>
       <use xlink:href="#DejaVuSans-4d"/>
      </g>
     </g>
    </g>
    <g id="xtick_4">
     <g id="line2d_4">
      <path d="M 384.682091 372.36 
L 628.972863 194.872365 
" clip-path="url(#p8c9eac85d7)" style="fill: none; stroke: #b0b0b0; stroke-width: 0.8; stroke-linecap: square"/>
     </g>
     <g id="text_4">
      <!-- F -->
      <g transform="translate(634.547538 192.162122) scale(0.2 -0.2)">
       <defs>
        <path id="DejaVuSans-46" d="M 628 4666 
L 3309 4666 
L 3309 4134 
L 1259 4134 
L 1259 2759 
L 3109 2759 
L 3109 2228 
L 1259 2228 
L 1259 0 
L 628 0 
L 628 4666 
z
" transform="scale(0.015625)"/>
       </defs>
       <use xlink:href="#DejaVuSans-46"/>
      </g>
     </g>
    </g>
    <g id="xtick_5">
     <g id="line2d_5">
      <path d="M 384.682091 372.36 
L 671.863117 279.049228 
" clip-path="url(#p8c9eac85d7)" style="fill: none; stroke: #b0b0b0; stroke-width: 0.8; stroke-linecap: square"/>
     </g>
     <g id="text_5">
      <!-- W -->
      <g transform="translate(675.290408 280.24174) scale(0.2 -0.2)">
       <defs>
        <path id="DejaVuSans-57" d="M 213 4666 
L 850 4666 
L 1831 722 
L 2809 4666 
L 3519 4666 
L 4500 722 
L 5478 4666 
L 6119 4666 
L 4947 0 
L 4153 0 
L 3169 4050 
L 2175 0 
L 1381 0 
L 213 4666 
z
" transform="scale(0.015625)"/>
       </defs>
       <use xlink:href="#DejaVuSans-57"/>
      </g>
     </g>
    </g>
    <g id="xtick_6">
     <g id="line2d_6">
      <path d="M 384.682091 372.36 
L 686.642091 372.36 
" clip-path="url(#p8c9eac85d7)" style="fill: none; stroke: #b0b0b0; stroke-width: 0.8; stroke-linecap: square"/>
     </g>
     <g id="text_6">
      <!-- Y -->
      <g transform="translate(694.534278 377.87875) scale(0.2 -0.2)">
       <defs>
        <path id="DejaVuSans-59" d="M -13 4666 
L 666 4666 
L 1959 2747 
L 3244 4666 
L 3922 4666 
L 2272 2222 
L 2272 0 
L 1638 0 
L 1638 2222 
L -13 4666 
z
" transform="scale(0.015625)"/>
       </defs>
       <use xlink:href="#DejaVuSans-59"/>
      </g>
     </g>
    </g>
    <g id="xtick_7">
     <g id="line2d_7">
      <path d="M 384.682091 372.36 
L 671.863117 465.670772 
" clip-path="url(#p8c9eac85d7)" style="fill: none; stroke: #b0b0b0; stroke-width: 0.8; stroke-linecap: square"/>
     </g>
     <g id="text_7">
      <!-- V -->
      <g transform="translate(678.337283 475.51576) scale(0.2 -0.2)">
       <defs>
        <path id="DejaVuSans-56" d="M 1831 0 
L 50 4666 
L 709 4666 
L 2188 738 
L 3669 4666 
L 4325 4666 
L 2547 0 
L 1831 0 
z
" transform="scale(0.015625)"/>
       </defs>
       <use xlink:href="#DejaVuSans-56"/>
      </g>
     </g>
    </g>
    <g id="xtick_8">
     <g id="line2d_8">
      <path d="M 384.682091 372.36 
L 628.972863 549.847635 
" clip-path="url(#p8c9eac85d7)" style="fill: none; stroke: #b0b0b0; stroke-width: 0.8; stroke-linecap: square"/>
     </g>
     <g id="text_8">
      <!-- R -->
      <g transform="translate(633.350663 563.595378) scale(0.2 -0.2)">
       <defs>
        <path id="DejaVuSans-52" d="M 2841 2188 
Q 3044 2119 3236 1894 
Q 3428 1669 3622 1275 
L 4263 0 
L 3584 0 
L 2988 1197 
Q 2756 1666 2539 1819 
Q 2322 1972 1947 1972 
L 1259 1972 
L 1259 0 
L 628 0 
L 628 4666 
L 2053 4666 
Q 2853 4666 3247 4331 
Q 3641 3997 3641 3322 
Q 3641 2881 3436 2590 
Q 3231 2300 2841 2188 
z
M 1259 4147 
L 1259 2491 
L 2053 2491 
Q 2509 2491 2742 2702 
Q 2975 2913 2975 3322 
Q 2975 3731 2742 3939 
Q 2509 4147 2053 4147 
L 1259 4147 
z
" transform="scale(0.015625)"/>
       </defs>
       <use xlink:href="#DejaVuSans-52"/>
      </g>
     </g>
    </g>
    <g id="xtick_9">
     <g id="line2d_9">
      <path d="M 384.682091 372.36 
L 562.169726 616.650772 
" clip-path="url(#p8c9eac85d7)" style="fill: none; stroke: #b0b0b0; stroke-width: 0.8; stroke-linecap: square"/>
     </g>
     <g id="text_9">
      <!-- K -->
      <g transform="translate(563.840907 633.49576) scale(0.2 -0.2)">
       <defs>
        <path id="DejaVuSans-4b" d="M 628 4666 
L 1259 4666 
L 1259 2694 
L 3353 4666 
L 4166 4666 
L 1850 2491 
L 4331 0 
L 3500 0 
L 1259 2247 
L 1259 0 
L 628 0 
L 628 4666 
z
" transform="scale(0.015625)"/>
       </defs>
       <use xlink:href="#DejaVuSans-4b"/>
      </g>
     </g>
    </g>
    <g id="xtick_10">
     <g id="line2d_10">
      <path d="M 384.682091 372.36 
L 477.992863 659.541026 
" clip-path="url(#p8c9eac85d7)" style="fill: none; stroke: #b0b0b0; stroke-width: 0.8; stroke-linecap: square"/>
     </g>
     <g id="text_10">
      <!-- N -->
      <g transform="translate(474.83785 678.374567) scale(0.2 -0.2)">
       <defs>
        <path id="DejaVuSans-4e" d="M 628 4666 
L 1478 4666 
L 3547 763 
L 3547 4666 
L 4159 4666 
L 4159 0 
L 3309 0 
L 1241 3903 
L 1241 0 
L 628 0 
L 628 4666 
z
" transform="scale(0.015625)"/>
       </defs>
       <use xlink:href="#DejaVuSans-4e"/>
      </g>
     </g>
    </g>
    <g id="xtick_11">
     <g id="line2d_11">
      <path d="M 384.682091 372.36 
L 384.682091 674.32 
" clip-path="url(#p8c9eac85d7)" style="fill: none; stroke: #b0b0b0; stroke-width: 0.8; stroke-linecap: square"/>
     </g>
     <g id="text_11">
      <!-- Q -->
      <g transform="translate(376.810216 693.83875) scale(0.2 -0.2)">
       <defs>
        <path id="DejaVuSans-51" d="M 2522 4238 
Q 1834 4238 1429 3725 
Q 1025 3213 1025 2328 
Q 1025 1447 1429 934 
Q 1834 422 2522 422 
Q 3209 422 3611 934 
Q 4013 1447 4013 2328 
Q 4013 3213 3611 3725 
Q 3209 4238 2522 4238 
z
M 3406 84 
L 4238 -825 
L 3475 -825 
L 2784 -78 
Q 2681 -84 2626 -87 
Q 2572 -91 2522 -91 
Q 1538 -91 948 567 
Q 359 1225 359 2328 
Q 359 3434 948 4092 
Q 1538 4750 2522 4750 
Q 3503 4750 4090 4092 
Q 4678 3434 4678 2328 
Q 4678 1516 4351 937 
Q 4025 359 3406 84 
z
" transform="scale(0.015625)"/>
       </defs>
       <use xlink:href="#DejaVuSans-51"/>
      </g>
     </g>
    </g>
    <g id="xtick_12">
     <g id="line2d_12">
      <path d="M 384.682091 372.36 
L 291.371319 659.541026 
" clip-path="url(#p8c9eac85d7)" style="fill: none; stroke: #b0b0b0; stroke-width: 0.8; stroke-linecap: square"/>
     </g>
     <g id="text_12">
      <!-- S -->
      <g transform="translate(280.696644 678.374567) scale(0.2 -0.2)">
       <defs>
        <path id="DejaVuSans-53" d="M 3425 4513 
L 3425 3897 
Q 3066 4069 2747 4153 
Q 2428 4238 2131 4238 
Q 1616 4238 1336 4038 
Q 1056 3838 1056 3469 
Q 1056 3159 1242 3001 
Q 1428 2844 1947 2747 
L 2328 2669 
Q 3034 2534 3370 2195 
Q 3706 1856 3706 1288 
Q 3706 609 3251 259 
Q 2797 -91 1919 -91 
Q 1588 -91 1214 -16 
Q 841 59 441 206 
L 441 856 
Q 825 641 1194 531 
Q 1563 422 1919 422 
Q 2459 422 2753 634 
Q 3047 847 3047 1241 
Q 3047 1584 2836 1778 
Q 2625 1972 2144 2069 
L 1759 2144 
Q 1053 2284 737 2584 
Q 422 2884 422 3419 
Q 422 4038 858 4394 
Q 1294 4750 2059 4750 
Q 2388 4750 2728 4690 
Q 3069 4631 3425 4513 
z
" transform="scale(0.015625)"/>
       </defs>
       <use xlink:href="#DejaVuSans-53"/>
      </g>
     </g>
    </g>
    <g id="xtick_13">
     <g id="line2d_13">
      <path d="M 384.682091 372.36 
L 207.194456 616.650772 
" clip-path="url(#p8c9eac85d7)" style="fill: none; stroke: #b0b0b0; stroke-width: 0.8; stroke-linecap: square"/>
     </g>
     <g id="text_13">
      <!-- T -->
      <g transform="translate(192.85765 633.49576) scale(0.2 -0.2)">
       <defs>
        <path id="DejaVuSans-54" d="M -19 4666 
L 3928 4666 
L 3928 4134 
L 2272 4134 
L 2272 0 
L 1638 0 
L 1638 4134 
L -19 4134 
L -19 4666 
z
" transform="scale(0.015625)"/>
       </defs>
       <use xlink:href="#DejaVuSans-54"/>
      </g>
     </g>
    </g>
    <g id="xtick_14">
     <g id="line2d_14">
      <path d="M 384.682091 372.36 
L 140.391319 549.847635 
" clip-path="url(#p8c9eac85d7)" style="fill: none; stroke: #b0b0b0; stroke-width: 0.8; stroke-linecap: square"/>
     </g>
     <g id="text_14">
      <!-- D -->
      <g transform="translate(121.365081 563.595378) scale(0.2 -0.2)">
       <defs>
        <path id="DejaVuSans-44" d="M 1259 4147 
L 1259 519 
L 2022 519 
Q 2988 519 3436 956 
Q 3884 1394 3884 2338 
Q 3884 3275 3436 3711 
Q 2988 4147 2022 4147 
L 1259 4147 
z
M 628 4666 
L 1925 4666 
Q 3281 4666 3915 4102 
Q 4550 3538 4550 2338 
Q 4550 1131 3912 565 
Q 3275 0 1925 0 
L 628 0 
L 628 4666 
z
" transform="scale(0.015625)"/>
       </defs>
       <use xlink:href="#DejaVuSans-44"/>
      </g>
     </g>
    </g>
    <g id="xtick_15">
     <g id="line2d_15">
      <path d="M 384.682091 372.36 
L 97.501065 465.670772 
" clip-path="url(#p8c9eac85d7)" style="fill: none; stroke: #b0b0b0; stroke-width: 0.8; stroke-linecap: square"/>
     </g>
     <g id="text_15">
      <!-- E -->
      <g transform="translate(77.867524 475.51576) scale(0.2 -0.2)">
       <defs>
        <path id="DejaVuSans-45" d="M 628 4666 
L 3578 4666 
L 3578 4134 
L 1259 4134 
L 1259 2753 
L 3481 2753 
L 3481 2222 
L 1259 2222 
L 1259 531 
L 3634 531 
L 3634 0 
L 628 0 
L 628 4666 
z
" transform="scale(0.015625)"/>
       </defs>
       <use xlink:href="#DejaVuSans-45"/>
      </g>
     </g>
    </g>
    <g id="xtick_16">
     <g id="line2d_16">
      <path d="M 384.682091 372.36 
L 82.722091 372.36 
" clip-path="url(#p8c9eac85d7)" style="fill: none; stroke: #b0b0b0; stroke-width: 0.8; stroke-linecap: square"/>
     </g>
     <g id="text_16">
      <!-- A -->
      <g transform="translate(61.881466 377.87875) scale(0.2 -0.2)">
       <defs>
        <path id="DejaVuSans-41" d="M 2188 4044 
L 1331 1722 
L 3047 1722 
L 2188 4044 
z
M 1831 4666 
L 2547 4666 
L 4325 0 
L 3669 0 
L 3244 1197 
L 1141 1197 
L 716 0 
L 50 0 
L 1831 4666 
z
" transform="scale(0.015625)"/>
       </defs>
       <use xlink:href="#DejaVuSans-41"/>
      </g>
     </g>
    </g>
    <g id="xtick_17">
     <g id="line2d_17">
      <path d="M 384.682091 372.36 
L 97.501065 279.049228 
" clip-path="url(#p8c9eac85d7)" style="fill: none; stroke: #b0b0b0; stroke-width: 0.8; stroke-linecap: square"/>
     </g>
     <g id="text_17">
      <!-- C -->
      <g transform="translate(77.203462 280.24174) scale(0.2 -0.2)">
       <defs>
        <path id="DejaVuSans-43" d="M 4122 4306 
L 4122 3641 
Q 3803 3938 3442 4084 
Q 3081 4231 2675 4231 
Q 1875 4231 1450 3742 
Q 1025 3253 1025 2328 
Q 1025 1406 1450 917 
Q 1875 428 2675 428 
Q 3081 428 3442 575 
Q 3803 722 4122 1019 
L 4122 359 
Q 3791 134 3420 21 
Q 3050 -91 2638 -91 
Q 1578 -91 968 557 
Q 359 1206 359 2328 
Q 359 3453 968 4101 
Q 1578 4750 2638 4750 
Q 3056 4750 3426 4639 
Q 3797 4528 4122 4306 
z
" transform="scale(0.015625)"/>
       </defs>
       <use xlink:href="#DejaVuSans-43"/>
      </g>
     </g>
    </g>
    <g id="xtick_18">
     <g id="line2d_18">
      <path d="M 384.682091 372.36 
L 140.391319 194.872365 
" clip-path="url(#p8c9eac85d7)" style="fill: none; stroke: #b0b0b0; stroke-width: 0.8; stroke-linecap: square"/>
     </g>
     <g id="text_18">
      <!-- G -->
      <g transform="translate(121.316644 192.162122) scale(0.2 -0.2)">
       <defs>
        <path id="DejaVuSans-47" d="M 3809 666 
L 3809 1919 
L 2778 1919 
L 2778 2438 
L 4434 2438 
L 4434 434 
Q 4069 175 3628 42 
Q 3188 -91 2688 -91 
Q 1594 -91 976 548 
Q 359 1188 359 2328 
Q 359 3472 976 4111 
Q 1594 4750 2688 4750 
Q 3144 4750 3555 4637 
Q 3966 4525 4313 4306 
L 4313 3634 
Q 3963 3931 3569 4081 
Q 3175 4231 2741 4231 
Q 1884 4231 1454 3753 
Q 1025 3275 1025 2328 
Q 1025 1384 1454 906 
Q 1884 428 2741 428 
Q 3075 428 3337 486 
Q 3600 544 3809 666 
z
" transform="scale(0.015625)"/>
       </defs>
       <use xlink:href="#DejaVuSans-47"/>
      </g>
     </g>
    </g>
    <g id="xtick_19">
     <g id="line2d_19">
      <path d="M 384.682091 372.36 
L 207.194456 128.069228 
" clip-path="url(#p8c9eac85d7)" style="fill: none; stroke: #b0b0b0; stroke-width: 0.8; stroke-linecap: square"/>
     </g>
     <g id="text_19">
      <!-- H -->
      <g transform="translate(191.44515 122.26174) scale(0.2 -0.2)">
       <defs>
        <path id="DejaVuSans-48" d="M 628 4666 
L 1259 4666 
L 1259 2753 
L 3553 2753 
L 3553 4666 
L 4184 4666 
L 4184 0 
L 3553 0 
L 3553 2222 
L 1259 2222 
L 1259 0 
L 628 0 
L 628 4666 
z
" transform="scale(0.015625)"/>
       </defs>
       <use xlink:href="#DejaVuSans-48"/>
      </g>
     </g>
    </g>
    <g id="xtick_20">
     <g id="line2d_20">
      <path d="M 384.682091 372.36 
L 291.371319 85.178974 
" clip-path="url(#p8c9eac85d7)" style="fill: none; stroke: #b0b0b0; stroke-width: 0.8; stroke-linecap: square"/>
     </g>
     <g id="text_20">
      <!-- P -->
      <g transform="translate(281.015394 77.382933) scale(0.2 -0.2)">
       <defs>
        <path id="DejaVuSans-50" d="M 1259 4147 
L 1259 2394 
L 2053 2394 
Q 2494 2394 2734 2622 
Q 2975 2850 2975 3272 
Q 2975 3691 2734 3919 
Q 2494 4147 2053 4147 
L 1259 4147 
z
M 628 4666 
L 2053 4666 
Q 2838 4666 3239 4311 
Q 3641 3956 3641 3272 
Q 3641 2581 3239 2228 
Q 2838 1875 2053 1875 
L 1259 1875 
L 1259 0 
L 628 0 
L 628 4666 
z
" transform="scale(0.015625)"/>
       </defs>
       <use xlink:href="#DejaVuSans-50"/>
      </g>
     </g>
    </g>
   </g>
   <g id="matplotlib.axis_2">
    <g id="ytick_1">
     <g id="line2d_21">
      <path d="M 384.682091 328.641017 
C 390.423215 328.641017 396.108514 329.771893 401.412621 331.968926 
C 406.716729 334.165959 411.536493 337.386423 415.59608 341.44601 
C 419.655668 345.505598 422.876132 350.325362 425.073165 355.629469 
C 427.270198 360.933577 428.401074 366.618876 428.401074 372.36 
C 428.401074 378.101124 427.270198 383.786423 425.073165 389.090531 
C 422.876132 394.394638 419.655668 399.214402 415.59608 403.27399 
C 411.536493 407.333577 406.716729 410.554041 401.412621 412.751074 
C 396.108514 414.948107 390.423215 416.078983 384.682091 416.078983 
C 378.940967 416.078983 373.255668 414.948107 367.95156 412.751074 
C 362.647453 410.554041 357.827689 407.333577 353.768101 403.27399 
C 349.708513 399.214402 346.48805 394.394638 344.291017 389.090531 
C 342.093984 383.786423 340.963108 378.101124 340.963108 372.36 
C 340.963108 366.618876 342.093984 360.933577 344.291017 355.629469 
C 346.48805 350.325362 349.708513 345.505598 353.768101 341.44601 
C 357.827689 337.386423 362.647453 334.165959 367.95156 331.968926 
C 373.255668 329.771893 378.940967 328.641017 384.682091 328.641017 
" clip-path="url(#p8c9eac85d7)" style="fill: none; stroke: #b0b0b0; stroke-width: 0.8; stroke-linecap: square"/>
     </g>
     <g id="text_21">
      <!-- 0.02 -->
      <g transform="translate(384.682091 324.481642) scale(0.2 -0.2)">
       <defs>
        <path id="DejaVuSans-30" d="M 2034 4250 
Q 1547 4250 1301 3770 
Q 1056 3291 1056 2328 
Q 1056 1369 1301 889 
Q 1547 409 2034 409 
Q 2525 409 2770 889 
Q 3016 1369 3016 2328 
Q 3016 3291 2770 3770 
Q 2525 4250 2034 4250 
z
M 2034 4750 
Q 2819 4750 3233 4129 
Q 3647 3509 3647 2328 
Q 3647 1150 3233 529 
Q 2819 -91 2034 -91 
Q 1250 -91 836 529 
Q 422 1150 422 2328 
Q 422 3509 836 4129 
Q 1250 4750 2034 4750 
z
" transform="scale(0.015625)"/>
        <path id="DejaVuSans-2e" d="M 684 794 
L 1344 794 
L 1344 0 
L 684 0 
L 684 794 
z
" transform="scale(0.015625)"/>
        <path id="DejaVuSans-32" d="M 1228 531 
L 3431 531 
L 3431 0 
L 469 0 
L 469 531 
Q 828 903 1448 1529 
Q 2069 2156 2228 2338 
Q 2531 2678 2651 2914 
Q 2772 3150 2772 3378 
Q 2772 3750 2511 3984 
Q 2250 4219 1831 4219 
Q 1534 4219 1204 4116 
Q 875 4013 500 3803 
L 500 4441 
Q 881 4594 1212 4672 
Q 1544 4750 1819 4750 
Q 2544 4750 2975 4387 
Q 3406 4025 3406 3419 
Q 3406 3131 3298 2873 
Q 3191 2616 2906 2266 
Q 2828 2175 2409 1742 
Q 1991 1309 1228 531 
z
" transform="scale(0.015625)"/>
       </defs>
       <use xlink:href="#DejaVuSans-30"/>
       <use xlink:href="#DejaVuSans-2e" x="63.623047"/>
       <use xlink:href="#DejaVuSans-30" x="95.410156"/>
       <use xlink:href="#DejaVuSans-32" x="159.033203"/>
      </g>
     </g>
    </g>
    <g id="ytick_2">
     <g id="line2d_22">
      <path d="M 384.682091 284.922033 
C 396.164339 284.922033 407.534938 287.183786 418.143152 291.577852 
C 428.751367 295.971919 438.390894 302.412845 446.51007 310.532021 
C 454.629246 318.651197 461.070172 328.290724 465.464239 338.898939 
C 469.858305 349.507153 472.120057 360.877751 472.120057 372.36 
C 472.120057 383.842249 469.858305 395.212847 465.464239 405.821061 
C 461.070172 416.429276 454.629246 426.068803 446.51007 434.187979 
C 438.390894 442.307155 428.751367 448.748081 418.143152 453.142148 
C 407.534938 457.536214 396.164339 459.797967 384.682091 459.797967 
C 373.199842 459.797967 361.829244 457.536214 351.22103 453.142148 
C 340.612815 448.748081 330.973288 442.307155 322.854112 434.187979 
C 314.734936 426.068803 308.29401 416.429276 303.899943 405.821061 
C 299.505877 395.212847 297.244124 383.842249 297.244124 372.36 
C 297.244124 360.877751 299.505877 349.507153 303.899943 338.898939 
C 308.29401 328.290724 314.734936 318.651197 322.854112 310.532021 
C 330.973288 302.412845 340.612815 295.971919 351.22103 291.577852 
C 361.829244 287.183786 373.199842 284.922033 384.682091 284.922033 
" clip-path="url(#p8c9eac85d7)" style="fill: none; stroke: #b0b0b0; stroke-width: 0.8; stroke-linecap: square"/>
     </g>
     <g id="text_22">
      <!-- 0.04 -->
      <g transform="translate(384.682091 280.762658) scale(0.2 -0.2)">
       <defs>
        <path id="DejaVuSans-34" d="M 2419 4116 
L 825 1625 
L 2419 1625 
L 2419 4116 
z
M 2253 4666 
L 3047 4666 
L 3047 1625 
L 3713 1625 
L 3713 1100 
L 3047 1100 
L 3047 0 
L 2419 0 
L 2419 1100 
L 313 1100 
L 313 1709 
L 2253 4666 
z
" transform="scale(0.015625)"/>
       </defs>
       <use xlink:href="#DejaVuSans-30"/>
       <use xlink:href="#DejaVuSans-2e" x="63.623047"/>
       <use xlink:href="#DejaVuSans-30" x="95.410156"/>
       <use xlink:href="#DejaVuSans-34" x="159.033203"/>
      </g>
     </g>
    </g>
    <g id="ytick_3">
     <g id="line2d_23">
      <path d="M 384.682091 241.20305 
C 401.905464 241.20305 418.961361 244.595679 434.873683 251.186778 
C 450.786004 257.777878 465.245296 267.439268 477.42406 279.618031 
C 489.602823 291.796795 499.264213 306.256087 505.855312 322.168408 
C 512.446412 338.08073 515.839041 355.136627 515.839041 372.36 
C 515.839041 389.583373 512.446412 406.63927 505.855312 422.551592 
C 499.264213 438.463913 489.602823 452.923205 477.42406 465.101969 
C 465.245296 477.280732 450.786004 486.942122 434.873683 493.533222 
C 418.961361 500.124321 401.905464 503.51695 384.682091 503.51695 
C 367.458718 503.51695 350.402821 500.124321 334.490499 493.533222 
C 318.578178 486.942122 304.118886 477.280732 291.940122 465.101969 
C 279.761359 452.923205 270.099969 438.463913 263.508869 422.551592 
C 256.91777 406.63927 253.525141 389.583373 253.525141 372.36 
C 253.525141 355.136627 256.91777 338.08073 263.508869 322.168408 
C 270.099969 306.256087 279.761359 291.796795 291.940122 279.618031 
C 304.118886 267.439268 318.578178 257.777878 334.490499 251.186778 
C 350.402821 244.595679 367.458718 241.20305 384.682091 241.20305 
" clip-path="url(#p8c9eac85d7)" style="fill: none; stroke: #b0b0b0; stroke-width: 0.8; stroke-linecap: square"/>
     </g>
     <g id="text_23">
      <!-- 0.06 -->
      <g transform="translate(384.682091 237.043675) scale(0.2 -0.2)">
       <defs>
        <path id="DejaVuSans-36" d="M 2113 2584 
Q 1688 2584 1439 2293 
Q 1191 2003 1191 1497 
Q 1191 994 1439 701 
Q 1688 409 2113 409 
Q 2538 409 2786 701 
Q 3034 994 3034 1497 
Q 3034 2003 2786 2293 
Q 2538 2584 2113 2584 
z
M 3366 4563 
L 3366 3988 
Q 3128 4100 2886 4159 
Q 2644 4219 2406 4219 
Q 1781 4219 1451 3797 
Q 1122 3375 1075 2522 
Q 1259 2794 1537 2939 
Q 1816 3084 2150 3084 
Q 2853 3084 3261 2657 
Q 3669 2231 3669 1497 
Q 3669 778 3244 343 
Q 2819 -91 2113 -91 
Q 1303 -91 875 529 
Q 447 1150 447 2328 
Q 447 3434 972 4092 
Q 1497 4750 2381 4750 
Q 2619 4750 2861 4703 
Q 3103 4656 3366 4563 
z
" transform="scale(0.015625)"/>
       </defs>
       <use xlink:href="#DejaVuSans-30"/>
       <use xlink:href="#DejaVuSans-2e" x="63.623047"/>
       <use xlink:href="#DejaVuSans-30" x="95.410156"/>
       <use xlink:href="#DejaVuSans-36" x="159.033203"/>
      </g>
     </g>
    </g>
    <g id="ytick_4">
     <g id="line2d_24">
      <path d="M 384.682091 197.484067 
C 407.646588 197.484067 430.387784 202.007572 451.604213 210.795705 
C 472.820642 219.583837 492.099697 232.46569 508.338049 248.704042 
C 524.576401 264.942393 537.458254 284.221449 546.246386 305.437878 
C 555.034519 326.654307 559.558024 349.395503 559.558024 372.36 
C 559.558024 395.324497 555.034519 418.065693 546.246386 439.282122 
C 537.458254 460.498551 524.576401 479.777607 508.338049 496.015958 
C 492.099697 512.25431 472.820642 525.136163 451.604213 533.924295 
C 430.387784 542.712428 407.646588 547.235933 384.682091 547.235933 
C 361.717594 547.235933 338.976397 542.712428 317.759969 533.924295 
C 296.54354 525.136163 277.264484 512.25431 261.026133 496.015958 
C 244.787781 479.777607 231.905928 460.498551 223.117796 439.282122 
C 214.329663 418.065693 209.806158 395.324497 209.806158 372.36 
C 209.806158 349.395503 214.329663 326.654307 223.117796 305.437878 
C 231.905928 284.221449 244.787781 264.942393 261.026133 248.704042 
C 277.264484 232.46569 296.54354 219.583837 317.759969 210.795705 
C 338.976397 202.007572 361.717594 197.484067 384.682091 197.484067 
" clip-path="url(#p8c9eac85d7)" style="fill: none; stroke: #b0b0b0; stroke-width: 0.8; stroke-linecap: square"/>
     </g>
     <g id="text_24">
      <!-- 0.08 -->
      <g transform="translate(384.682091 193.324692) scale(0.2 -0.2)">
       <defs>
        <path id="DejaVuSans-38" d="M 2034 2216 
Q 1584 2216 1326 1975 
Q 1069 1734 1069 1313 
Q 1069 891 1326 650 
Q 1584 409 2034 409 
Q 2484 409 2743 651 
Q 3003 894 3003 1313 
Q 3003 1734 2745 1975 
Q 2488 2216 2034 2216 
z
M 1403 2484 
Q 997 2584 770 2862 
Q 544 3141 544 3541 
Q 544 4100 942 4425 
Q 1341 4750 2034 4750 
Q 2731 4750 3128 4425 
Q 3525 4100 3525 3541 
Q 3525 3141 3298 2862 
Q 3072 2584 2669 2484 
Q 3125 2378 3379 2068 
Q 3634 1759 3634 1313 
Q 3634 634 3220 271 
Q 2806 -91 2034 -91 
Q 1263 -91 848 271 
Q 434 634 434 1313 
Q 434 1759 690 2068 
Q 947 2378 1403 2484 
z
M 1172 3481 
Q 1172 3119 1398 2916 
Q 1625 2713 2034 2713 
Q 2441 2713 2670 2916 
Q 2900 3119 2900 3481 
Q 2900 3844 2670 4047 
Q 2441 4250 2034 4250 
Q 1625 4250 1398 4047 
Q 1172 3844 1172 3481 
z
" transform="scale(0.015625)"/>
       </defs>
       <use xlink:href="#DejaVuSans-30"/>
       <use xlink:href="#DejaVuSans-2e" x="63.623047"/>
       <use xlink:href="#DejaVuSans-30" x="95.410156"/>
       <use xlink:href="#DejaVuSans-38" x="159.033203"/>
      </g>
     </g>
    </g>
    <g id="ytick_5">
     <g id="line2d_25">
      <path d="M 384.682091 153.765084 
C 413.387712 153.765084 441.814208 159.419465 468.334744 170.404631 
C 494.85528 181.389797 518.954099 197.492113 539.252039 217.790052 
C 559.549978 238.087992 575.652294 262.186811 586.63746 288.707347 
C 597.622626 315.227883 603.277007 343.654379 603.277007 372.36 
C 603.277007 401.065621 597.622626 429.492117 586.63746 456.012653 
C 575.652294 482.533189 559.549978 506.632008 539.252039 526.929948 
C 518.954099 547.227887 494.85528 563.330203 468.334744 574.315369 
C 441.814208 585.300535 413.387712 590.954916 384.682091 590.954916 
C 355.976469 590.954916 327.549974 585.300535 301.029438 574.315369 
C 274.508902 563.330203 250.410083 547.227887 230.112143 526.929948 
C 209.814204 506.632008 193.711887 482.533189 182.726722 456.012653 
C 171.741556 429.492117 166.087175 401.065621 166.087175 372.36 
C 166.087175 343.654379 171.741556 315.227883 182.726722 288.707347 
C 193.711887 262.186811 209.814204 238.087992 230.112143 217.790052 
C 250.410083 197.492113 274.508902 181.389797 301.029438 170.404631 
C 327.549974 159.419465 355.976469 153.765084 384.682091 153.765084 
" clip-path="url(#p8c9eac85d7)" style="fill: none; stroke: #b0b0b0; stroke-width: 0.8; stroke-linecap: square"/>
     </g>
     <g id="text_25">
      <!-- 0.10 -->
      <g transform="translate(384.682091 149.605709) scale(0.2 -0.2)">
       <defs>
        <path id="DejaVuSans-31" d="M 794 531 
L 1825 531 
L 1825 4091 
L 703 3866 
L 703 4441 
L 1819 4666 
L 2450 4666 
L 2450 531 
L 3481 531 
L 3481 0 
L 794 0 
L 794 531 
z
" transform="scale(0.015625)"/>
       </defs>
       <use xlink:href="#DejaVuSans-30"/>
       <use xlink:href="#DejaVuSans-2e" x="63.623047"/>
       <use xlink:href="#DejaVuSans-31" x="95.410156"/>
       <use xlink:href="#DejaVuSans-30" x="159.033203"/>
      </g>
     </g>
    </g>
    <g id="ytick_6">
     <g id="line2d_26">
      <path d="M 384.682091 110.0461 
C 419.128837 110.0461 453.240631 116.831358 485.065274 130.013557 
C 516.889918 143.195756 545.808501 162.518535 570.166028 186.876063 
C 594.523556 211.23359 613.846335 240.152173 627.028534 271.976817 
C 640.210733 303.80146 646.995991 337.913254 646.995991 372.36 
C 646.995991 406.806746 640.210733 440.91854 627.028534 472.743183 
C 613.846335 504.567827 594.523556 533.48641 570.166028 557.843937 
C 545.808501 582.201465 516.889918 601.524244 485.065274 614.706443 
C 453.240631 627.888642 419.128837 634.6739 384.682091 634.6739 
C 350.235345 634.6739 316.123551 627.888642 284.298907 614.706443 
C 252.474264 601.524244 223.555681 582.201465 199.198154 557.843937 
C 174.840626 533.48641 155.517847 504.567827 142.335648 472.743183 
C 129.153449 440.91854 122.368191 406.806746 122.368191 372.36 
C 122.368191 337.913254 129.153449 303.80146 142.335648 271.976817 
C 155.517847 240.152173 174.840626 211.23359 199.198154 186.876063 
C 223.555681 162.518535 252.474264 143.195756 284.298907 130.013557 
C 316.123551 116.831358 350.235345 110.0461 384.682091 110.0461 
" clip-path="url(#p8c9eac85d7)" style="fill: none; stroke: #b0b0b0; stroke-width: 0.8; stroke-linecap: square"/>
     </g>
     <g id="text_26">
      <!-- 0.12 -->
      <g transform="translate(384.682091 105.886725) scale(0.2 -0.2)">
       <use xlink:href="#DejaVuSans-30"/>
       <use xlink:href="#DejaVuSans-2e" x="63.623047"/>
       <use xlink:href="#DejaVuSans-31" x="95.410156"/>
       <use xlink:href="#DejaVuSans-32" x="159.033203"/>
      </g>
     </g>
    </g>
   </g>
   <g id="line2d_27">
    <path d="M 384.682091 287.236993 
L 434.701575 218.415858 
L 415.530895 329.900264 
L 438.738679 333.08559 
L 418.294652 361.438617 
L 446.532586 372.36 
L 475.802184 401.966713 
L 536.930508 482.97495 
L 480.133258 503.737261 
L 419.962824 480.942932 
L 384.682091 513.26351 
L 346.603805 489.552914 
L 315.553521 467.507314 
L 261.94344 461.534849 
L 205.180232 430.68369 
L 241.87592 372.36 
L 375.060582 369.233782 
L 294.07771 306.532064 
L 347.898414 321.731612 
L 350.004054 265.631978 
L 384.682091 287.236993 
" clip-path="url(#p8c9eac85d7)" style="fill: none; stroke: #1e9cce; stroke-width: 2; stroke-linecap: square"/>
   </g>
   <g id="line2d_28">
    <path d="M 384.682091 260.370533 
L 440.317248 201.132592 
L 411.173495 335.897711 
L 445.84708 327.921034 
L 409.922053 364.159039 
L 485.605313 372.36 
L 487.675846 405.8247 
L 549.658905 492.222672 
L 520.21847 558.909821 
L 418.313442 475.866654 
L 384.682091 433.714529 
L 343.06756 500.436356 
L 331.729553 445.242916 
L 283.078371 446.179423 
L 153.564816 447.454555 
L 303.196799 372.36 
L 377.352766 369.978558 
L 291.087576 304.359605 
L 363.744297 343.541598 
L 354.109984 278.268731 
L 384.682091 260.370533 
" clip-path="url(#p8c9eac85d7)" style="fill: none; stroke: #ff0000; stroke-width: 2; stroke-linecap: square"/>
   </g>
   <g id="line2d_29">
    <path d="M 384.682091 321.094869 
L 451.588222 166.444103 
L 390.140478 364.847175 
L 413.505034 351.418906 
L 401.452134 366.911083 
L 442.538611 372.36 
L 473.475001 401.210565 
L 523.007249 472.85911 
L 515.921476 552.995517 
L 406.128634 438.365674 
L 384.682091 398.651153 
L 363.912511 436.282194 
L 317.092034 465.389732 
L 270.669952 455.194668 
L 111.07015 461.261909 
L 116.011359 372.36 
L 382.451851 371.635351 
L 299.321236 310.341709 
L 372.147237 355.107254 
L 321.092655 176.651841 
L 384.682091 321.094869 
" clip-path="url(#p8c9eac85d7)" style="fill: none; stroke-dasharray: 7.4,3.2; stroke-dashoffset: 0; stroke: #51698a; stroke-width: 2"/>
   </g>
   <g id="line2d_30">
    <path d="M 384.682091 282.792717 
L 446.881762 180.929095 
L 398.564096 353.253059 
L 425.962686 342.367892 
L 404.274307 365.994103 
L 484.836615 372.36 
L 482.99129 404.302595 
L 560.875594 500.372073 
L 525.295055 565.897141 
L 419.14311 478.420111 
L 384.682091 410.04481 
L 343.347034 499.576223 
L 333.484759 442.827082 
L 297.640854 435.599161 
L 131.721237 454.551964 
L 256.04628 372.36 
L 381.628142 371.367712 
L 291.886562 304.940102 
L 372.068161 354.998415 
L 345.227926 250.932566 
L 384.682091 282.792717 
" clip-path="url(#p8c9eac85d7)" style="fill: none; stroke-dasharray: 7.4,3.2; stroke-dashoffset: 0; stroke: #b43445; stroke-width: 2"/>
   </g>
   <g id="patch_7">
    <path d="M 384.682091 70.4 
C 345.029067 70.4 305.761619 78.210781 269.127002 93.385336 
C 232.492385 108.559892 199.203049 130.803114 171.164127 158.842036 
C 143.125205 186.880958 120.881983 220.170294 105.707427 256.804911 
C 90.532872 293.439528 82.722091 332.706976 82.722091 372.36 
C 82.722091 412.013024 90.532872 451.280472 105.707427 487.915089 
C 120.881983 524.549706 143.125205 557.839042 171.164127 585.877964 
C 199.203049 613.916886 232.492385 636.160108 269.127002 651.334664 
C 305.761619 666.509219 345.029067 674.32 384.682091 674.32 
C 424.335115 674.32 463.602563 666.509219 500.23718 651.334664 
C 536.871797 636.160108 570.161132 613.916886 598.200055 585.877964 
C 626.238977 557.839042 648.482199 524.549706 663.656755 487.915089 
C 678.83131 451.280472 686.642091 412.013024 686.642091 372.36 
C 686.642091 332.706976 678.83131 293.439528 663.656755 256.804911 
C 648.482199 220.170294 626.238977 186.880958 598.200055 158.842036 
C 570.161132 130.803114 536.871797 108.559892 500.23718 93.385336 
C 463.602563 78.210781 424.335115 70.4 384.682091 70.4 
" style="fill: none; stroke: #000000; stroke-width: 0.8; stroke-linejoin: miter; stroke-linecap: square"/>
   </g>
   <g id="text_27">
    <!-- Surface amino acid frequencies -->
    <g transform="translate(195.247091 40.721875) scale(0.24 -0.24)">
     <defs>
      <path id="DejaVuSans-75" d="M 544 1381 
L 544 3500 
L 1119 3500 
L 1119 1403 
Q 1119 906 1312 657 
Q 1506 409 1894 409 
Q 2359 409 2629 706 
Q 2900 1003 2900 1516 
L 2900 3500 
L 3475 3500 
L 3475 0 
L 2900 0 
L 2900 538 
Q 2691 219 2414 64 
Q 2138 -91 1772 -91 
Q 1169 -91 856 284 
Q 544 659 544 1381 
z
M 1991 3584 
L 1991 3584 
z
" transform="scale(0.015625)"/>
      <path id="DejaVuSans-72" d="M 2631 2963 
Q 2534 3019 2420 3045 
Q 2306 3072 2169 3072 
Q 1681 3072 1420 2755 
Q 1159 2438 1159 1844 
L 1159 0 
L 581 0 
L 581 3500 
L 1159 3500 
L 1159 2956 
Q 1341 3275 1631 3429 
Q 1922 3584 2338 3584 
Q 2397 3584 2469 3576 
Q 2541 3569 2628 3553 
L 2631 2963 
z
" transform="scale(0.015625)"/>
      <path id="DejaVuSans-66" d="M 2375 4863 
L 2375 4384 
L 1825 4384 
Q 1516 4384 1395 4259 
Q 1275 4134 1275 3809 
L 1275 3500 
L 2222 3500 
L 2222 3053 
L 1275 3053 
L 1275 0 
L 697 0 
L 697 3053 
L 147 3053 
L 147 3500 
L 697 3500 
L 697 3744 
Q 697 4328 969 4595 
Q 1241 4863 1831 4863 
L 2375 4863 
z
" transform="scale(0.015625)"/>
      <path id="DejaVuSans-61" d="M 2194 1759 
Q 1497 1759 1228 1600 
Q 959 1441 959 1056 
Q 959 750 1161 570 
Q 1363 391 1709 391 
Q 2188 391 2477 730 
Q 2766 1069 2766 1631 
L 2766 1759 
L 2194 1759 
z
M 3341 1997 
L 3341 0 
L 2766 0 
L 2766 531 
Q 2569 213 2275 61 
Q 1981 -91 1556 -91 
Q 1019 -91 701 211 
Q 384 513 384 1019 
Q 384 1609 779 1909 
Q 1175 2209 1959 2209 
L 2766 2209 
L 2766 2266 
Q 2766 2663 2505 2880 
Q 2244 3097 1772 3097 
Q 1472 3097 1187 3025 
Q 903 2953 641 2809 
L 641 3341 
Q 956 3463 1253 3523 
Q 1550 3584 1831 3584 
Q 2591 3584 2966 3190 
Q 3341 2797 3341 1997 
z
" transform="scale(0.015625)"/>
      <path id="DejaVuSans-63" d="M 3122 3366 
L 3122 2828 
Q 2878 2963 2633 3030 
Q 2388 3097 2138 3097 
Q 1578 3097 1268 2742 
Q 959 2388 959 1747 
Q 959 1106 1268 751 
Q 1578 397 2138 397 
Q 2388 397 2633 464 
Q 2878 531 3122 666 
L 3122 134 
Q 2881 22 2623 -34 
Q 2366 -91 2075 -91 
Q 1284 -91 818 406 
Q 353 903 353 1747 
Q 353 2603 823 3093 
Q 1294 3584 2113 3584 
Q 2378 3584 2631 3529 
Q 2884 3475 3122 3366 
z
" transform="scale(0.015625)"/>
      <path id="DejaVuSans-65" d="M 3597 1894 
L 3597 1613 
L 953 1613 
Q 991 1019 1311 708 
Q 1631 397 2203 397 
Q 2534 397 2845 478 
Q 3156 559 3463 722 
L 3463 178 
Q 3153 47 2828 -22 
Q 2503 -91 2169 -91 
Q 1331 -91 842 396 
Q 353 884 353 1716 
Q 353 2575 817 3079 
Q 1281 3584 2069 3584 
Q 2775 3584 3186 3129 
Q 3597 2675 3597 1894 
z
M 3022 2063 
Q 3016 2534 2758 2815 
Q 2500 3097 2075 3097 
Q 1594 3097 1305 2825 
Q 1016 2553 972 2059 
L 3022 2063 
z
" transform="scale(0.015625)"/>
      <path id="DejaVuSans-20" transform="scale(0.015625)"/>
      <path id="DejaVuSans-6d" d="M 3328 2828 
Q 3544 3216 3844 3400 
Q 4144 3584 4550 3584 
Q 5097 3584 5394 3201 
Q 5691 2819 5691 2113 
L 5691 0 
L 5113 0 
L 5113 2094 
Q 5113 2597 4934 2840 
Q 4756 3084 4391 3084 
Q 3944 3084 3684 2787 
Q 3425 2491 3425 1978 
L 3425 0 
L 2847 0 
L 2847 2094 
Q 2847 2600 2669 2842 
Q 2491 3084 2119 3084 
Q 1678 3084 1418 2786 
Q 1159 2488 1159 1978 
L 1159 0 
L 581 0 
L 581 3500 
L 1159 3500 
L 1159 2956 
Q 1356 3278 1631 3431 
Q 1906 3584 2284 3584 
Q 2666 3584 2933 3390 
Q 3200 3197 3328 2828 
z
" transform="scale(0.015625)"/>
      <path id="DejaVuSans-69" d="M 603 3500 
L 1178 3500 
L 1178 0 
L 603 0 
L 603 3500 
z
M 603 4863 
L 1178 4863 
L 1178 4134 
L 603 4134 
L 603 4863 
z
" transform="scale(0.015625)"/>
      <path id="DejaVuSans-6e" d="M 3513 2113 
L 3513 0 
L 2938 0 
L 2938 2094 
Q 2938 2591 2744 2837 
Q 2550 3084 2163 3084 
Q 1697 3084 1428 2787 
Q 1159 2491 1159 1978 
L 1159 0 
L 581 0 
L 581 3500 
L 1159 3500 
L 1159 2956 
Q 1366 3272 1645 3428 
Q 1925 3584 2291 3584 
Q 2894 3584 3203 3211 
Q 3513 2838 3513 2113 
z
" transform="scale(0.015625)"/>
      <path id="DejaVuSans-6f" d="M 1959 3097 
Q 1497 3097 1228 2736 
Q 959 2375 959 1747 
Q 959 1119 1226 758 
Q 1494 397 1959 397 
Q 2419 397 2687 759 
Q 2956 1122 2956 1747 
Q 2956 2369 2687 2733 
Q 2419 3097 1959 3097 
z
M 1959 3584 
Q 2709 3584 3137 3096 
Q 3566 2609 3566 1747 
Q 3566 888 3137 398 
Q 2709 -91 1959 -91 
Q 1206 -91 779 398 
Q 353 888 353 1747 
Q 353 2609 779 3096 
Q 1206 3584 1959 3584 
z
" transform="scale(0.015625)"/>
      <path id="DejaVuSans-64" d="M 2906 2969 
L 2906 4863 
L 3481 4863 
L 3481 0 
L 2906 0 
L 2906 525 
Q 2725 213 2448 61 
Q 2172 -91 1784 -91 
Q 1150 -91 751 415 
Q 353 922 353 1747 
Q 353 2572 751 3078 
Q 1150 3584 1784 3584 
Q 2172 3584 2448 3432 
Q 2725 3281 2906 2969 
z
M 947 1747 
Q 947 1113 1208 752 
Q 1469 391 1925 391 
Q 2381 391 2643 752 
Q 2906 1113 2906 1747 
Q 2906 2381 2643 2742 
Q 2381 3103 1925 3103 
Q 1469 3103 1208 2742 
Q 947 2381 947 1747 
z
" transform="scale(0.015625)"/>
      <path id="DejaVuSans-71" d="M 947 1747 
Q 947 1113 1208 752 
Q 1469 391 1925 391 
Q 2381 391 2643 752 
Q 2906 1113 2906 1747 
Q 2906 2381 2643 2742 
Q 2381 3103 1925 3103 
Q 1469 3103 1208 2742 
Q 947 2381 947 1747 
z
M 2906 525 
Q 2725 213 2448 61 
Q 2172 -91 1784 -91 
Q 1150 -91 751 415 
Q 353 922 353 1747 
Q 353 2572 751 3078 
Q 1150 3584 1784 3584 
Q 2172 3584 2448 3432 
Q 2725 3281 2906 2969 
L 2906 3500 
L 3481 3500 
L 3481 -1331 
L 2906 -1331 
L 2906 525 
z
" transform="scale(0.015625)"/>
      <path id="DejaVuSans-73" d="M 2834 3397 
L 2834 2853 
Q 2591 2978 2328 3040 
Q 2066 3103 1784 3103 
Q 1356 3103 1142 2972 
Q 928 2841 928 2578 
Q 928 2378 1081 2264 
Q 1234 2150 1697 2047 
L 1894 2003 
Q 2506 1872 2764 1633 
Q 3022 1394 3022 966 
Q 3022 478 2636 193 
Q 2250 -91 1575 -91 
Q 1294 -91 989 -36 
Q 684 19 347 128 
L 347 722 
Q 666 556 975 473 
Q 1284 391 1588 391 
Q 1994 391 2212 530 
Q 2431 669 2431 922 
Q 2431 1156 2273 1281 
Q 2116 1406 1581 1522 
L 1381 1569 
Q 847 1681 609 1914 
Q 372 2147 372 2553 
Q 372 3047 722 3315 
Q 1072 3584 1716 3584 
Q 2034 3584 2315 3537 
Q 2597 3491 2834 3397 
z
" transform="scale(0.015625)"/>
     </defs>
     <use xlink:href="#DejaVuSans-53"/>
     <use xlink:href="#DejaVuSans-75" x="63.476562"/>
     <use xlink:href="#DejaVuSans-72" x="126.855469"/>
     <use xlink:href="#DejaVuSans-66" x="167.96875"/>
     <use xlink:href="#DejaVuSans-61" x="203.173828"/>
     <use xlink:href="#DejaVuSans-63" x="264.453125"/>
     <use xlink:href="#DejaVuSans-65" x="319.433594"/>
     <use xlink:href="#DejaVuSans-20" x="380.957031"/>
     <use xlink:href="#DejaVuSans-61" x="412.744141"/>
     <use xlink:href="#DejaVuSans-6d" x="474.023438"/>
     <use xlink:href="#DejaVuSans-69" x="571.435547"/>
     <use xlink:href="#DejaVuSans-6e" x="599.21875"/>
     <use xlink:href="#DejaVuSans-6f" x="662.597656"/>
     <use xlink:href="#DejaVuSans-20" x="723.779297"/>
     <use xlink:href="#DejaVuSans-61" x="755.566406"/>
     <use xlink:href="#DejaVuSans-63" x="816.845703"/>
     <use xlink:href="#DejaVuSans-69" x="871.826172"/>
     <use xlink:href="#DejaVuSans-64" x="899.609375"/>
     <use xlink:href="#DejaVuSans-20" x="963.085938"/>
     <use xlink:href="#DejaVuSans-66" x="994.873047"/>
     <use xlink:href="#DejaVuSans-72" x="1030.078125"/>
     <use xlink:href="#DejaVuSans-65" x="1068.941406"/>
     <use xlink:href="#DejaVuSans-71" x="1130.464844"/>
     <use xlink:href="#DejaVuSans-75" x="1193.941406"/>
     <use xlink:href="#DejaVuSans-65" x="1257.320312"/>
     <use xlink:href="#DejaVuSans-6e" x="1318.84375"/>
     <use xlink:href="#DejaVuSans-63" x="1382.222656"/>
     <use xlink:href="#DejaVuSans-69" x="1437.203125"/>
     <use xlink:href="#DejaVuSans-65" x="1464.986328"/>
     <use xlink:href="#DejaVuSans-73" x="1526.509766"/>
    </g>
   </g>
  </g>
  <g id="axes_2">
   <g id="patch_8">
    <path d="M 1395.675364 372.36 
C 1395.675364 332.706976 1387.864583 293.439528 1372.690027 256.804911 
C 1357.515472 220.170294 1335.272249 186.880958 1307.233327 158.842036 
C 1279.194405 130.803114 1245.90507 108.559892 1209.270453 93.385336 
C 1172.635836 78.210781 1133.368388 70.4 1093.715364 70.4 
C 1054.06234 70.4 1014.794892 78.210781 978.160274 93.385336 
C 941.525657 108.559892 908.236322 130.803114 880.1974 158.842036 
C 852.158478 186.880958 829.915255 220.170294 814.7407 256.804911 
C 799.566145 293.439528 791.755364 332.706976 791.755364 372.36 
C 791.755364 412.013024 799.566145 451.280472 814.7407 487.915089 
C 829.915255 524.549706 852.158478 557.839042 880.1974 585.877964 
C 908.236322 613.916886 941.525657 636.160108 978.160274 651.334664 
C 1014.794892 666.509219 1054.06234 674.32 1093.715364 674.32 
C 1133.368388 674.32 1172.635836 666.509219 1209.270453 651.334664 
C 1245.90507 636.160108 1279.194405 613.916886 1307.233327 585.877964 
C 1335.272249 557.839042 1357.515472 524.549706 1372.690027 487.915089 
C 1387.864583 451.280472 1395.675364 412.013024 1395.675364 372.36 
M 1093.715364 372.36 
C 1093.715364 372.36 1093.715364 372.36 1093.715364 372.36 
C 1093.715364 372.36 1093.715364 372.36 1093.715364 372.36 
C 1093.715364 372.36 1093.715364 372.36 1093.715364 372.36 
C 1093.715364 372.36 1093.715364 372.36 1093.715364 372.36 
C 1093.715364 372.36 1093.715364 372.36 1093.715364 372.36 
C 1093.715364 372.36 1093.715364 372.36 1093.715364 372.36 
C 1093.715364 372.36 1093.715364 372.36 1093.715364 372.36 
C 1093.715364 372.36 1093.715364 372.36 1093.715364 372.36 
C 1093.715364 372.36 1093.715364 372.36 1093.715364 372.36 
C 1093.715364 372.36 1093.715364 372.36 1093.715364 372.36 
C 1093.715364 372.36 1093.715364 372.36 1093.715364 372.36 
C 1093.715364 372.36 1093.715364 372.36 1093.715364 372.36 
C 1093.715364 372.36 1093.715364 372.36 1093.715364 372.36 
C 1093.715364 372.36 1093.715364 372.36 1093.715364 372.36 
C 1093.715364 372.36 1093.715364 372.36 1093.715364 372.36 
C 1093.715364 372.36 1093.715364 372.36 1093.715364 372.36 
z
" style="fill: #ffffff"/>
   </g>
   <g id="patch_9">
    <path d="M 1093.715364 229.341082 
L 1167.139686 146.383172 
L 1123.189818 331.791893 
L 1158.851253 325.036007 
L 1115.409705 365.311081 
L 1142.521615 372.36 
L 1254.477809 424.594885 
L 1113.59221 386.801374 
L 1101.171796 382.622899 
L 1106.593512 411.994864 
L 1093.715364 401.526882 
L 1062.70521 467.79944 
L 1042.279091 443.155955 
L 1053.68232 401.445709 
L 1059.986574 383.319148 
L 884.670551 372.36 
L 1063.199802 362.444893 
L 960.125764 275.301475 
L 1080.018696 353.508154 
L 1077.073907 321.142863 
z
" clip-path="url(#pdc57ff6881)" style="fill: #808080; opacity: 0.1; stroke: #808080; stroke-linejoin: miter"/>
   </g>
   <g id="patch_10">
    <path d="M 1093.715364 198.49604 
L 1168.289994 142.842887 
L 1114.044127 344.379858 
L 1162.107587 322.670141 
L 1109.774409 367.1421 
L 1156.778313 372.36 
L 1292.647897 436.997098 
L 1109.212431 383.619279 
L 1102.231319 384.081207 
L 1104.044091 404.148554 
L 1093.715364 386.99008 
L 1060.695783 473.98382 
L 1047.128047 436.48194 
L 1055.566444 400.076813 
L 1055.696762 384.712993 
L 905.752434 372.36 
L 1073.068329 365.651372 
L 973.520202 285.033104 
L 1082.316032 356.670166 
L 1075.10002 315.067863 
z
" clip-path="url(#pdc57ff6881)" style="fill: #808080; opacity: 0.1; stroke: #808080; stroke-linejoin: miter"/>
   </g>
   <g id="patch_11">
    <path d="M 1093.715364 223.784157 
L 1182.72014 98.431465 
L 1106.300129 355.038557 
L 1157.642513 325.914207 
L 1106.862692 368.088174 
L 1147.607429 372.36 
L 1292.102384 436.81985 
L 1110.51965 384.569029 
L 1099.202711 379.912686 
L 1103.978841 403.947736 
L 1093.715364 384.810231 
L 1073.258177 435.320747 
L 1048.038631 435.228629 
L 1053.936123 401.26131 
L 1063.240054 382.262028 
L 840.66584 372.36 
L 1075.65525 366.491913 
L 971.963512 283.902102 
L 1084.131692 359.169207 
L 1074.192901 312.276039 
z
" clip-path="url(#pdc57ff6881)" style="fill: #808080; opacity: 0.05; stroke: #808080; stroke-linejoin: miter"/>
   </g>
   <g id="patch_12">
    <path d="M 1093.715364 214.054313 
L 1173.190733 127.759963 
L 1112.66292 346.280926 
L 1159.844367 324.314467 
L 1108.568079 367.53406 
L 1149.560015 372.36 
L 1276.599366 431.782614 
L 1109.230044 383.632075 
L 1100.664229 381.924293 
L 1103.831821 403.495254 
L 1093.715364 385.396717 
L 1065.94661 457.823437 
L 1042.931533 442.257946 
L 1058.788227 397.73605 
L 1061.014234 382.985241 
L 861.410789 372.36 
L 1076.960495 366.916013 
L 958.780228 274.323886 
L 1083.772775 358.675201 
L 1075.542606 316.430004 
z
" clip-path="url(#pdc57ff6881)" style="fill: #808080; opacity: 0.1; stroke: #808080; stroke-linejoin: miter"/>
   </g>
   <g id="matplotlib.axis_3">
    <g id="xtick_21">
     <g id="line2d_31">
      <path d="M 1093.715364 372.36 
L 1093.715364 70.4 
" clip-path="url(#pdc57ff6881)" style="fill: none; stroke: #b0b0b0; stroke-width: 0.8; stroke-linecap: square"/>
     </g>
     <g id="text_28">
      <!-- I -->
      <g transform="translate(1090.765364 61.91875) scale(0.2 -0.2)">
       <use xlink:href="#DejaVuSans-49"/>
      </g>
     </g>
    </g>
    <g id="xtick_22">
     <g id="line2d_32">
      <path d="M 1093.715364 372.36 
L 1187.026135 85.178974 
" clip-path="url(#pdc57ff6881)" style="fill: none; stroke: #b0b0b0; stroke-width: 0.8; stroke-linecap: square"/>
     </g>
     <g id="text_29">
      <!-- L -->
      <g transform="translate(1185.780498 77.382933) scale(0.2 -0.2)">
       <use xlink:href="#DejaVuSans-4c"/>
      </g>
     </g>
    </g>
    <g id="xtick_23">
     <g id="line2d_33">
      <path d="M 1093.715364 372.36 
L 1271.202998 128.069228 
" clip-path="url(#pdc57ff6881)" style="fill: none; stroke: #b0b0b0; stroke-width: 0.8; stroke-linecap: square"/>
     </g>
     <g id="text_30">
      <!-- M -->
      <g transform="translate(1270.803867 122.26174) scale(0.2 -0.2)">
       <use xlink:href="#DejaVuSans-4d"/>
      </g>
     </g>
    </g>
    <g id="xtick_24">
     <g id="line2d_34">
      <path d="M 1093.715364 372.36 
L 1338.006135 194.872365 
" clip-path="url(#pdc57ff6881)" style="fill: none; stroke: #b0b0b0; stroke-width: 0.8; stroke-linecap: square"/>
     </g>
     <g id="text_31">
      <!-- F -->
      <g transform="translate(1343.580811 192.162122) scale(0.2 -0.2)">
       <use xlink:href="#DejaVuSans-46"/>
      </g>
     </g>
    </g>
    <g id="xtick_25">
     <g id="line2d_35">
      <path d="M 1093.715364 372.36 
L 1380.896389 279.049228 
" clip-path="url(#pdc57ff6881)" style="fill: none; stroke: #b0b0b0; stroke-width: 0.8; stroke-linecap: square"/>
     </g>
     <g id="text_32">
      <!-- W -->
      <g transform="translate(1384.323681 280.24174) scale(0.2 -0.2)">
       <use xlink:href="#DejaVuSans-57"/>
      </g>
     </g>
    </g>
    <g id="xtick_26">
     <g id="line2d_36">
      <path d="M 1093.715364 372.36 
L 1395.675364 372.36 
" clip-path="url(#pdc57ff6881)" style="fill: none; stroke: #b0b0b0; stroke-width: 0.8; stroke-linecap: square"/>
     </g>
     <g id="text_33">
      <!-- Y -->
      <g transform="translate(1403.567551 377.87875) scale(0.2 -0.2)">
       <use xlink:href="#DejaVuSans-59"/>
      </g>
     </g>
    </g>
    <g id="xtick_27">
     <g id="line2d_37">
      <path d="M 1093.715364 372.36 
L 1380.896389 465.670772 
" clip-path="url(#pdc57ff6881)" style="fill: none; stroke: #b0b0b0; stroke-width: 0.8; stroke-linecap: square"/>
     </g>
     <g id="text_34">
      <!-- V -->
      <g transform="translate(1387.370556 475.51576) scale(0.2 -0.2)">
       <use xlink:href="#DejaVuSans-56"/>
      </g>
     </g>
    </g>
    <g id="xtick_28">
     <g id="line2d_38">
      <path d="M 1093.715364 372.36 
L 1338.006135 549.847635 
" clip-path="url(#pdc57ff6881)" style="fill: none; stroke: #b0b0b0; stroke-width: 0.8; stroke-linecap: square"/>
     </g>
     <g id="text_35">
      <!-- R -->
      <g transform="translate(1342.383936 563.595378) scale(0.2 -0.2)">
       <use xlink:href="#DejaVuSans-52"/>
      </g>
     </g>
    </g>
    <g id="xtick_29">
     <g id="line2d_39">
      <path d="M 1093.715364 372.36 
L 1271.202998 616.650772 
" clip-path="url(#pdc57ff6881)" style="fill: none; stroke: #b0b0b0; stroke-width: 0.8; stroke-linecap: square"/>
     </g>
     <g id="text_36">
      <!-- K -->
      <g transform="translate(1272.874179 633.49576) scale(0.2 -0.2)">
       <use xlink:href="#DejaVuSans-4b"/>
      </g>
     </g>
    </g>
    <g id="xtick_30">
     <g id="line2d_40">
      <path d="M 1093.715364 372.36 
L 1187.026135 659.541026 
" clip-path="url(#pdc57ff6881)" style="fill: none; stroke: #b0b0b0; stroke-width: 0.8; stroke-linecap: square"/>
     </g>
     <g id="text_37">
      <!-- N -->
      <g transform="translate(1183.871123 678.374567) scale(0.2 -0.2)">
       <use xlink:href="#DejaVuSans-4e"/>
      </g>
     </g>
    </g>
    <g id="xtick_31">
     <g id="line2d_41">
      <path d="M 1093.715364 372.36 
L 1093.715364 674.32 
" clip-path="url(#pdc57ff6881)" style="fill: none; stroke: #b0b0b0; stroke-width: 0.8; stroke-linecap: square"/>
     </g>
     <g id="text_38">
      <!-- Q -->
      <g transform="translate(1085.843489 693.83875) scale(0.2 -0.2)">
       <use xlink:href="#DejaVuSans-51"/>
      </g>
     </g>
    </g>
    <g id="xtick_32">
     <g id="line2d_42">
      <path d="M 1093.715364 372.36 
L 1000.404592 659.541026 
" clip-path="url(#pdc57ff6881)" style="fill: none; stroke: #b0b0b0; stroke-width: 0.8; stroke-linecap: square"/>
     </g>
     <g id="text_39">
      <!-- S -->
      <g transform="translate(989.729917 678.374567) scale(0.2 -0.2)">
       <use xlink:href="#DejaVuSans-53"/>
      </g>
     </g>
    </g>
    <g id="xtick_33">
     <g id="line2d_43">
      <path d="M 1093.715364 372.36 
L 916.227729 616.650772 
" clip-path="url(#pdc57ff6881)" style="fill: none; stroke: #b0b0b0; stroke-width: 0.8; stroke-linecap: square"/>
     </g>
     <g id="text_40">
      <!-- T -->
      <g transform="translate(901.890923 633.49576) scale(0.2 -0.2)">
       <use xlink:href="#DejaVuSans-54"/>
      </g>
     </g>
    </g>
    <g id="xtick_34">
     <g id="line2d_44">
      <path d="M 1093.715364 372.36 
L 849.424592 549.847635 
" clip-path="url(#pdc57ff6881)" style="fill: none; stroke: #b0b0b0; stroke-width: 0.8; stroke-linecap: square"/>
     </g>
     <g id="text_41">
      <!-- D -->
      <g transform="translate(830.398354 563.595378) scale(0.2 -0.2)">
       <use xlink:href="#DejaVuSans-44"/>
      </g>
     </g>
    </g>
    <g id="xtick_35">
     <g id="line2d_45">
      <path d="M 1093.715364 372.36 
L 806.534338 465.670772 
" clip-path="url(#pdc57ff6881)" style="fill: none; stroke: #b0b0b0; stroke-width: 0.8; stroke-linecap: square"/>
     </g>
     <g id="text_42">
      <!-- E -->
      <g transform="translate(786.900797 475.51576) scale(0.2 -0.2)">
       <use xlink:href="#DejaVuSans-45"/>
      </g>
     </g>
    </g>
    <g id="xtick_36">
     <g id="line2d_46">
      <path d="M 1093.715364 372.36 
L 791.755364 372.36 
" clip-path="url(#pdc57ff6881)" style="fill: none; stroke: #b0b0b0; stroke-width: 0.8; stroke-linecap: square"/>
     </g>
     <g id="text_43">
      <!-- A -->
      <g transform="translate(770.914739 377.87875) scale(0.2 -0.2)">
       <use xlink:href="#DejaVuSans-41"/>
      </g>
     </g>
    </g>
    <g id="xtick_37">
     <g id="line2d_47">
      <path d="M 1093.715364 372.36 
L 806.534338 279.049228 
" clip-path="url(#pdc57ff6881)" style="fill: none; stroke: #b0b0b0; stroke-width: 0.8; stroke-linecap: square"/>
     </g>
     <g id="text_44">
      <!-- C -->
      <g transform="translate(786.236734 280.24174) scale(0.2 -0.2)">
       <use xlink:href="#DejaVuSans-43"/>
      </g>
     </g>
    </g>
    <g id="xtick_38">
     <g id="line2d_48">
      <path d="M 1093.715364 372.36 
L 849.424592 194.872365 
" clip-path="url(#pdc57ff6881)" style="fill: none; stroke: #b0b0b0; stroke-width: 0.8; stroke-linecap: square"/>
     </g>
     <g id="text_45">
      <!-- G -->
      <g transform="translate(830.349917 192.162122) scale(0.2 -0.2)">
       <use xlink:href="#DejaVuSans-47"/>
      </g>
     </g>
    </g>
    <g id="xtick_39">
     <g id="line2d_49">
      <path d="M 1093.715364 372.36 
L 916.227729 128.069228 
" clip-path="url(#pdc57ff6881)" style="fill: none; stroke: #b0b0b0; stroke-width: 0.8; stroke-linecap: square"/>
     </g>
     <g id="text_46">
      <!-- H -->
      <g transform="translate(900.478423 122.26174) scale(0.2 -0.2)">
       <use xlink:href="#DejaVuSans-48"/>
      </g>
     </g>
    </g>
    <g id="xtick_40">
     <g id="line2d_50">
      <path d="M 1093.715364 372.36 
L 1000.404592 85.178974 
" clip-path="url(#pdc57ff6881)" style="fill: none; stroke: #b0b0b0; stroke-width: 0.8; stroke-linecap: square"/>
     </g>
     <g id="text_47">
      <!-- P -->
      <g transform="translate(990.048667 77.382933) scale(0.2 -0.2)">
       <use xlink:href="#DejaVuSans-50"/>
      </g>
     </g>
    </g>
   </g>
   <g id="matplotlib.axis_4">
    <g id="ytick_7">
     <g id="line2d_51">
      <path d="M 1093.715364 331.953736 
C 1099.021466 331.953736 1104.275972 332.998922 1109.178171 335.02948 
C 1114.080371 337.060037 1118.534926 340.036476 1122.286907 343.788457 
C 1126.038888 347.540437 1129.015327 351.994993 1131.045884 356.897192 
C 1133.076441 361.799391 1134.121628 367.053898 1134.121628 372.36 
C 1134.121628 377.666102 1133.076441 382.920609 1131.045884 387.822808 
C 1129.015327 392.725007 1126.038888 397.179563 1122.286907 400.931543 
C 1118.534926 404.683524 1114.080371 407.659963 1109.178171 409.69052 
C 1104.275972 411.721078 1099.021466 412.766264 1093.715364 412.766264 
C 1088.409262 412.766264 1083.154755 411.721078 1078.252556 409.69052 
C 1073.350357 407.659963 1068.895801 404.683524 1065.14382 400.931543 
C 1061.39184 397.179563 1058.415401 392.725007 1056.384843 387.822808 
C 1054.354286 382.920609 1053.309099 377.666102 1053.309099 372.36 
C 1053.309099 367.053898 1054.354286 361.799391 1056.384843 356.897192 
C 1058.415401 351.994993 1061.39184 347.540437 1065.14382 343.788457 
C 1068.895801 340.036476 1073.350357 337.060037 1078.252556 335.02948 
C 1083.154755 332.998922 1088.409262 331.953736 1093.715364 331.953736 
" clip-path="url(#pdc57ff6881)" style="fill: none; stroke: #b0b0b0; stroke-width: 0.8; stroke-linecap: square"/>
     </g>
     <g id="text_48">
      <!-- 0.025 -->
      <g transform="translate(1093.715364 327.794361) scale(0.2 -0.2)">
       <defs>
        <path id="DejaVuSans-35" d="M 691 4666 
L 3169 4666 
L 3169 4134 
L 1269 4134 
L 1269 2991 
Q 1406 3038 1543 3061 
Q 1681 3084 1819 3084 
Q 2600 3084 3056 2656 
Q 3513 2228 3513 1497 
Q 3513 744 3044 326 
Q 2575 -91 1722 -91 
Q 1428 -91 1123 -41 
Q 819 9 494 109 
L 494 744 
Q 775 591 1075 516 
Q 1375 441 1709 441 
Q 2250 441 2565 725 
Q 2881 1009 2881 1497 
Q 2881 1984 2565 2268 
Q 2250 2553 1709 2553 
Q 1456 2553 1204 2497 
Q 953 2441 691 2322 
L 691 4666 
z
" transform="scale(0.015625)"/>
       </defs>
       <use xlink:href="#DejaVuSans-30"/>
       <use xlink:href="#DejaVuSans-2e" x="63.623047"/>
       <use xlink:href="#DejaVuSans-30" x="95.410156"/>
       <use xlink:href="#DejaVuSans-32" x="159.033203"/>
       <use xlink:href="#DejaVuSans-35" x="222.65625"/>
      </g>
     </g>
    </g>
    <g id="ytick_8">
     <g id="line2d_52">
      <path d="M 1093.715364 291.547472 
C 1104.327568 291.547472 1114.836581 293.637844 1124.640979 297.698959 
C 1134.445377 301.760074 1143.354489 307.712952 1150.85845 315.216913 
C 1158.362412 322.720875 1164.31529 331.629986 1168.376404 341.434384 
C 1172.437519 351.238782 1174.527892 361.747796 1174.527892 372.36 
C 1174.527892 382.972204 1172.437519 393.481218 1168.376404 403.285616 
C 1164.31529 413.090014 1158.362412 421.999125 1150.85845 429.503087 
C 1143.354489 437.007048 1134.445377 442.959926 1124.640979 447.021041 
C 1114.836581 451.082156 1104.327568 453.172528 1093.715364 453.172528 
C 1083.10316 453.172528 1072.594146 451.082156 1062.789748 447.021041 
C 1052.98535 442.959926 1044.076238 437.007048 1036.572277 429.503087 
C 1029.068315 421.999125 1023.115437 413.090014 1019.054323 403.285616 
C 1014.993208 393.481218 1012.902835 382.972204 1012.902835 372.36 
C 1012.902835 361.747796 1014.993208 351.238782 1019.054323 341.434384 
C 1023.115437 331.629986 1029.068315 322.720875 1036.572277 315.216913 
C 1044.076238 307.712952 1052.98535 301.760074 1062.789748 297.698959 
C 1072.594146 293.637844 1083.10316 291.547472 1093.715364 291.547472 
" clip-path="url(#pdc57ff6881)" style="fill: none; stroke: #b0b0b0; stroke-width: 0.8; stroke-linecap: square"/>
     </g>
     <g id="text_49">
      <!-- 0.050 -->
      <g transform="translate(1093.715364 287.388097) scale(0.2 -0.2)">
       <use xlink:href="#DejaVuSans-30"/>
       <use xlink:href="#DejaVuSans-2e" x="63.623047"/>
       <use xlink:href="#DejaVuSans-30" x="95.410156"/>
       <use xlink:href="#DejaVuSans-35" x="159.033203"/>
       <use xlink:href="#DejaVuSans-30" x="222.65625"/>
      </g>
     </g>
    </g>
    <g id="ytick_9">
     <g id="line2d_53">
      <path d="M 1093.715364 251.141208 
C 1109.63367 251.141208 1125.39719 254.276767 1140.103787 260.368439 
C 1154.810384 266.460111 1168.174052 275.389428 1179.429994 286.64537 
C 1190.685936 297.901312 1199.615253 311.264979 1205.706925 325.971576 
C 1211.798597 340.678174 1214.934156 356.441694 1214.934156 372.36 
C 1214.934156 388.278306 1211.798597 404.041826 1205.706925 418.748424 
C 1199.615253 433.455021 1190.685936 446.818688 1179.429994 458.07463 
C 1168.174052 469.330572 1154.810384 478.259889 1140.103787 484.351561 
C 1125.39719 490.443233 1109.63367 493.578792 1093.715364 493.578792 
C 1077.797058 493.578792 1062.033537 490.443233 1047.32694 484.351561 
C 1032.620343 478.259889 1019.256676 469.330572 1008.000733 458.07463 
C 996.744791 446.818688 987.815474 433.455021 981.723802 418.748424 
C 975.63213 404.041826 972.496571 388.278306 972.496571 372.36 
C 972.496571 356.441694 975.63213 340.678174 981.723802 325.971576 
C 987.815474 311.264979 996.744791 297.901312 1008.000733 286.64537 
C 1019.256676 275.389428 1032.620343 266.460111 1047.32694 260.368439 
C 1062.033537 254.276767 1077.797058 251.141208 1093.715364 251.141208 
" clip-path="url(#pdc57ff6881)" style="fill: none; stroke: #b0b0b0; stroke-width: 0.8; stroke-linecap: square"/>
     </g>
     <g id="text_50">
      <!-- 0.075 -->
      <g transform="translate(1093.715364 246.981833) scale(0.2 -0.2)">
       <defs>
        <path id="DejaVuSans-37" d="M 525 4666 
L 3525 4666 
L 3525 4397 
L 1831 0 
L 1172 0 
L 2766 4134 
L 525 4134 
L 525 4666 
z
" transform="scale(0.015625)"/>
       </defs>
       <use xlink:href="#DejaVuSans-30"/>
       <use xlink:href="#DejaVuSans-2e" x="63.623047"/>
       <use xlink:href="#DejaVuSans-30" x="95.410156"/>
       <use xlink:href="#DejaVuSans-37" x="159.033203"/>
       <use xlink:href="#DejaVuSans-35" x="222.65625"/>
      </g>
     </g>
    </g>
    <g id="ytick_10">
     <g id="line2d_54">
      <path d="M 1093.715364 210.734943 
C 1114.939772 210.734943 1135.957799 214.915689 1155.566595 223.037918 
C 1175.175391 231.160148 1192.993614 243.065904 1208.001537 258.073826 
C 1223.00946 273.081749 1234.915216 290.899972 1243.037445 310.508769 
C 1251.159675 330.117565 1255.34042 351.135592 1255.34042 372.36 
C 1255.34042 393.584408 1251.159675 414.602435 1243.037445 434.211231 
C 1234.915216 453.820028 1223.00946 471.638251 1208.001537 486.646174 
C 1192.993614 501.654096 1175.175391 513.559852 1155.566595 521.682082 
C 1135.957799 529.804311 1114.939772 533.985057 1093.715364 533.985057 
C 1072.490956 533.985057 1051.472928 529.804311 1031.864132 521.682082 
C 1012.255336 513.559852 994.437113 501.654096 979.42919 486.646174 
C 964.421267 471.638251 952.515511 453.820028 944.393282 434.211231 
C 936.271053 414.602435 932.090307 393.584408 932.090307 372.36 
C 932.090307 351.135592 936.271053 330.117565 944.393282 310.508769 
C 952.515511 290.899972 964.421267 273.081749 979.42919 258.073826 
C 994.437113 243.065904 1012.255336 231.160148 1031.864132 223.037918 
C 1051.472928 214.915689 1072.490956 210.734943 1093.715364 210.734943 
" clip-path="url(#pdc57ff6881)" style="fill: none; stroke: #b0b0b0; stroke-width: 0.8; stroke-linecap: square"/>
     </g>
     <g id="text_51">
      <!-- 0.100 -->
      <g transform="translate(1093.715364 206.575568) scale(0.2 -0.2)">
       <use xlink:href="#DejaVuSans-30"/>
       <use xlink:href="#DejaVuSans-2e" x="63.623047"/>
       <use xlink:href="#DejaVuSans-31" x="95.410156"/>
       <use xlink:href="#DejaVuSans-30" x="159.033203"/>
       <use xlink:href="#DejaVuSans-30" x="222.65625"/>
      </g>
     </g>
    </g>
    <g id="ytick_11">
     <g id="line2d_55">
      <path d="M 1093.715364 170.328679 
C 1120.245874 170.328679 1146.518408 175.554611 1171.029403 185.707398 
C 1195.540398 195.860184 1217.813177 210.74238 1236.573081 229.502283 
C 1255.332984 248.262187 1270.215179 270.534966 1280.367966 295.045961 
C 1290.520752 319.556956 1295.746684 345.82949 1295.746684 372.36 
C 1295.746684 398.89051 1290.520752 425.163044 1280.367966 449.674039 
C 1270.215179 474.185034 1255.332984 496.457813 1236.573081 515.217717 
C 1217.813177 533.97762 1195.540398 548.859816 1171.029403 559.012602 
C 1146.518408 569.165389 1120.245874 574.391321 1093.715364 574.391321 
C 1067.184854 574.391321 1040.91232 569.165389 1016.401324 559.012602 
C 991.890329 548.859816 969.61755 533.97762 950.857647 515.217717 
C 932.097743 496.457813 917.215548 474.185034 907.062761 449.674039 
C 896.909975 425.163044 891.684043 398.89051 891.684043 372.36 
C 891.684043 345.82949 896.909975 319.556956 907.062761 295.045961 
C 917.215548 270.534966 932.097743 248.262187 950.857647 229.502283 
C 969.61755 210.74238 991.890329 195.860184 1016.401324 185.707398 
C 1040.91232 175.554611 1067.184854 170.328679 1093.715364 170.328679 
" clip-path="url(#pdc57ff6881)" style="fill: none; stroke: #b0b0b0; stroke-width: 0.8; stroke-linecap: square"/>
     </g>
     <g id="text_52">
      <!-- 0.125 -->
      <g transform="translate(1093.715364 166.169304) scale(0.2 -0.2)">
       <use xlink:href="#DejaVuSans-30"/>
       <use xlink:href="#DejaVuSans-2e" x="63.623047"/>
       <use xlink:href="#DejaVuSans-31" x="95.410156"/>
       <use xlink:href="#DejaVuSans-32" x="159.033203"/>
       <use xlink:href="#DejaVuSans-35" x="222.65625"/>
      </g>
     </g>
    </g>
    <g id="ytick_12">
     <g id="line2d_56">
      <path d="M 1093.715364 129.922415 
C 1125.551976 129.922415 1157.079017 136.193533 1186.492211 148.376877 
C 1215.905405 160.560221 1242.63274 178.418856 1265.144624 200.93074 
C 1287.656508 223.442624 1305.515142 250.169959 1317.698486 279.583153 
C 1329.88183 308.996347 1336.152949 340.523388 1336.152949 372.36 
C 1336.152949 404.196612 1329.88183 435.723653 1317.698486 465.136847 
C 1305.515142 494.550041 1287.656508 521.277376 1265.144624 543.78926 
C 1242.63274 566.301144 1215.905405 584.159779 1186.492211 596.343123 
C 1157.079017 608.526467 1125.551976 614.797585 1093.715364 614.797585 
C 1061.878752 614.797585 1030.351711 608.526467 1000.938517 596.343123 
C 971.525322 584.159779 944.797988 566.301144 922.286103 543.78926 
C 899.774219 521.277376 881.915585 494.550041 869.732241 465.136847 
C 857.548897 435.723653 851.277779 404.196612 851.277779 372.36 
C 851.277779 340.523388 857.548897 308.996347 869.732241 279.583153 
C 881.915585 250.169959 899.774219 223.442624 922.286103 200.93074 
C 944.797988 178.418856 971.525322 160.560221 1000.938517 148.376877 
C 1030.351711 136.193533 1061.878752 129.922415 1093.715364 129.922415 
" clip-path="url(#pdc57ff6881)" style="fill: none; stroke: #b0b0b0; stroke-width: 0.8; stroke-linecap: square"/>
     </g>
     <g id="text_53">
      <!-- 0.150 -->
      <g transform="translate(1093.715364 125.76304) scale(0.2 -0.2)">
       <use xlink:href="#DejaVuSans-30"/>
       <use xlink:href="#DejaVuSans-2e" x="63.623047"/>
       <use xlink:href="#DejaVuSans-31" x="95.410156"/>
       <use xlink:href="#DejaVuSans-35" x="159.033203"/>
       <use xlink:href="#DejaVuSans-30" x="222.65625"/>
      </g>
     </g>
    </g>
    <g id="ytick_13">
     <g id="line2d_57">
      <path d="M 1093.715364 89.516151 
C 1130.858078 89.516151 1167.639625 96.832456 1201.955019 111.046357 
C 1236.270412 125.260258 1267.452302 146.095331 1293.716167 172.359196 
C 1319.980032 198.623061 1340.815105 229.804952 1355.029007 264.120345 
C 1369.242908 298.435738 1376.559213 335.217286 1376.559213 372.36 
C 1376.559213 409.502714 1369.242908 446.284262 1355.029007 480.599655 
C 1340.815105 514.915048 1319.980032 546.096939 1293.716167 572.360804 
C 1267.452302 598.624669 1236.270412 619.459742 1201.955019 633.673643 
C 1167.639625 647.887544 1130.858078 655.203849 1093.715364 655.203849 
C 1056.57265 655.203849 1019.791102 647.887544 985.475709 633.673643 
C 951.160315 619.459742 919.978425 598.624669 893.71456 572.360804 
C 867.450695 546.096939 846.615622 514.915048 832.401721 480.599655 
C 818.187819 446.284262 810.871515 409.502714 810.871515 372.36 
C 810.871515 335.217286 818.187819 298.435738 832.401721 264.120345 
C 846.615622 229.804952 867.450695 198.623061 893.71456 172.359196 
C 919.978425 146.095331 951.160315 125.260258 985.475709 111.046357 
C 1019.791102 96.832456 1056.57265 89.516151 1093.715364 89.516151 
" clip-path="url(#pdc57ff6881)" style="fill: none; stroke: #b0b0b0; stroke-width: 0.8; stroke-linecap: square"/>
     </g>
     <g id="text_54">
      <!-- 0.175 -->
      <g transform="translate(1093.715364 85.356776) scale(0.2 -0.2)">
       <use xlink:href="#DejaVuSans-30"/>
       <use xlink:href="#DejaVuSans-2e" x="63.623047"/>
       <use xlink:href="#DejaVuSans-31" x="95.410156"/>
       <use xlink:href="#DejaVuSans-37" x="159.033203"/>
       <use xlink:href="#DejaVuSans-35" x="222.65625"/>
      </g>
     </g>
    </g>
   </g>
   <g id="line2d_58">
    <path d="M 1093.715364 229.341082 
L 1167.139686 146.383172 
L 1123.189818 331.791893 
L 1158.851253 325.036007 
L 1115.409705 365.311081 
L 1142.521615 372.36 
L 1254.477809 424.594885 
L 1113.59221 386.801374 
L 1101.171796 382.622899 
L 1106.593512 411.994864 
L 1093.715364 401.526882 
L 1062.70521 467.79944 
L 1042.279091 443.155955 
L 1053.68232 401.445709 
L 1059.986574 383.319148 
L 884.670551 372.36 
L 1063.199802 362.444893 
L 960.125764 275.301475 
L 1080.018696 353.508154 
L 1077.073907 321.142863 
L 1093.715364 229.341082 
" clip-path="url(#pdc57ff6881)" style="fill: none; stroke: #1e9cce; stroke-width: 2; stroke-linecap: square"/>
   </g>
   <g id="line2d_59">
    <path d="M 1093.715364 198.49604 
L 1168.289994 142.842887 
L 1114.044127 344.379858 
L 1162.107587 322.670141 
L 1109.774409 367.1421 
L 1156.778313 372.36 
L 1292.647897 436.997098 
L 1109.212431 383.619279 
L 1102.231319 384.081207 
L 1104.044091 404.148554 
L 1093.715364 386.99008 
L 1060.695783 473.98382 
L 1047.128047 436.48194 
L 1055.566444 400.076813 
L 1055.696762 384.712993 
L 905.752434 372.36 
L 1073.068329 365.651372 
L 973.520202 285.033104 
L 1082.316032 356.670166 
L 1075.10002 315.067863 
L 1093.715364 198.49604 
" clip-path="url(#pdc57ff6881)" style="fill: none; stroke: #ff0000; stroke-width: 2; stroke-linecap: square"/>
   </g>
   <g id="line2d_60">
    <path d="M 1093.715364 223.784157 
L 1182.72014 98.431465 
L 1106.300129 355.038557 
L 1157.642513 325.914207 
L 1106.862692 368.088174 
L 1147.607429 372.36 
L 1292.102384 436.81985 
L 1110.51965 384.569029 
L 1099.202711 379.912686 
L 1103.978841 403.947736 
L 1093.715364 384.810231 
L 1073.258177 435.320747 
L 1048.038631 435.228629 
L 1053.936123 401.26131 
L 1063.240054 382.262028 
L 840.66584 372.36 
L 1075.65525 366.491913 
L 971.963512 283.902102 
L 1084.131692 359.169207 
L 1074.192901 312.276039 
L 1093.715364 223.784157 
" clip-path="url(#pdc57ff6881)" style="fill: none; stroke-dasharray: 7.4,3.2; stroke-dashoffset: 0; stroke: #51698a; stroke-width: 2"/>
   </g>
   <g id="line2d_61">
    <path d="M 1093.715364 214.054313 
L 1173.190733 127.759963 
L 1112.66292 346.280926 
L 1159.844367 324.314467 
L 1108.568079 367.53406 
L 1149.560015 372.36 
L 1276.599366 431.782614 
L 1109.230044 383.632075 
L 1100.664229 381.924293 
L 1103.831821 403.495254 
L 1093.715364 385.396717 
L 1065.94661 457.823437 
L 1042.931533 442.257946 
L 1058.788227 397.73605 
L 1061.014234 382.985241 
L 861.410789 372.36 
L 1076.960495 366.916013 
L 958.780228 274.323886 
L 1083.772775 358.675201 
L 1075.542606 316.430004 
L 1093.715364 214.054313 
" clip-path="url(#pdc57ff6881)" style="fill: none; stroke-dasharray: 7.4,3.2; stroke-dashoffset: 0; stroke: #b43445; stroke-width: 2"/>
   </g>
   <g id="patch_13">
    <path d="M 1093.715364 70.4 
C 1054.06234 70.4 1014.794892 78.210781 978.160274 93.385336 
C 941.525657 108.559892 908.236322 130.803114 880.1974 158.842036 
C 852.158478 186.880958 829.915255 220.170294 814.7407 256.804911 
C 799.566145 293.439528 791.755364 332.706976 791.755364 372.36 
C 791.755364 412.013024 799.566145 451.280472 814.7407 487.915089 
C 829.915255 524.549706 852.158478 557.839042 880.1974 585.877964 
C 908.236322 613.916886 941.525657 636.160108 978.160274 651.334664 
C 1014.794892 666.509219 1054.06234 674.32 1093.715364 674.32 
C 1133.368388 674.32 1172.635836 666.509219 1209.270453 651.334664 
C 1245.90507 636.160108 1279.194405 613.916886 1307.233327 585.877964 
C 1335.272249 557.839042 1357.515472 524.549706 1372.690027 487.915089 
C 1387.864583 451.280472 1395.675364 412.013024 1395.675364 372.36 
C 1395.675364 332.706976 1387.864583 293.439528 1372.690027 256.804911 
C 1357.515472 220.170294 1335.272249 186.880958 1307.233327 158.842036 
C 1279.194405 130.803114 1245.90507 108.559892 1209.270453 93.385336 
C 1172.635836 78.210781 1133.368388 70.4 1093.715364 70.4 
" style="fill: none; stroke: #000000; stroke-width: 0.8; stroke-linejoin: miter; stroke-linecap: square"/>
   </g>
   <g id="text_55">
    <!-- Core amino acid frequencies -->
    <g transform="translate(922.227864 40.721875) scale(0.24 -0.24)">
     <use xlink:href="#DejaVuSans-43"/>
     <use xlink:href="#DejaVuSans-6f" x="69.824219"/>
     <use xlink:href="#DejaVuSans-72" x="131.005859"/>
     <use xlink:href="#DejaVuSans-65" x="169.869141"/>
     <use xlink:href="#DejaVuSans-20" x="231.392578"/>
     <use xlink:href="#DejaVuSans-61" x="263.179688"/>
     <use xlink:href="#DejaVuSans-6d" x="324.458984"/>
     <use xlink:href="#DejaVuSans-69" x="421.871094"/>
     <use xlink:href="#DejaVuSans-6e" x="449.654297"/>
     <use xlink:href="#DejaVuSans-6f" x="513.033203"/>
     <use xlink:href="#DejaVuSans-20" x="574.214844"/>
     <use xlink:href="#DejaVuSans-61" x="606.001953"/>
     <use xlink:href="#DejaVuSans-63" x="667.28125"/>
     <use xlink:href="#DejaVuSans-69" x="722.261719"/>
     <use xlink:href="#DejaVuSans-64" x="750.044922"/>
     <use xlink:href="#DejaVuSans-20" x="813.521484"/>
     <use xlink:href="#DejaVuSans-66" x="845.308594"/>
     <use xlink:href="#DejaVuSans-72" x="880.513672"/>
     <use xlink:href="#DejaVuSans-65" x="919.376953"/>
     <use xlink:href="#DejaVuSans-71" x="980.900391"/>
     <use xlink:href="#DejaVuSans-75" x="1044.376953"/>
     <use xlink:href="#DejaVuSans-65" x="1107.755859"/>
     <use xlink:href="#DejaVuSans-6e" x="1169.279297"/>
     <use xlink:href="#DejaVuSans-63" x="1232.658203"/>
     <use xlink:href="#DejaVuSans-69" x="1287.638672"/>
     <use xlink:href="#DejaVuSans-65" x="1315.421875"/>
     <use xlink:href="#DejaVuSans-73" x="1376.945312"/>
    </g>
   </g>
   <g id="legend_1">
    <g id="patch_14">
     <path d="M 1420.576764 143.433 
L 1786.301764 143.433 
Q 1790.301764 143.433 1790.301764 139.433 
L 1790.301764 24.008 
Q 1790.301764 20.008 1786.301764 20.008 
L 1420.576764 20.008 
Q 1416.576764 20.008 1416.576764 24.008 
L 1416.576764 139.433 
Q 1416.576764 143.433 1420.576764 143.433 
z
" style="fill: #ffffff; opacity: 0.8; stroke: #cccccc; stroke-linejoin: miter"/>
    </g>
    <g id="line2d_62">
     <path d="M 1424.576764 36.204875 
L 1444.576764 36.204875 
L 1464.576764 36.204875 
" style="fill: none; stroke: #1e9cce; stroke-width: 2; stroke-linecap: square"/>
    </g>
    <g id="text_56">
     <!-- E. coli -->
     <g transform="translate(1480.576764 43.204875) scale(0.2 -0.2)">
      <defs>
       <path id="DejaVuSans-6c" d="M 603 4863 
L 1178 4863 
L 1178 0 
L 603 0 
L 603 4863 
z
" transform="scale(0.015625)"/>
      </defs>
      <use xlink:href="#DejaVuSans-45"/>
      <use xlink:href="#DejaVuSans-2e" x="63.183594"/>
      <use xlink:href="#DejaVuSans-20" x="94.970703"/>
      <use xlink:href="#DejaVuSans-63" x="126.757812"/>
      <use xlink:href="#DejaVuSans-6f" x="181.738281"/>
      <use xlink:href="#DejaVuSans-6c" x="242.919922"/>
      <use xlink:href="#DejaVuSans-69" x="270.703125"/>
     </g>
    </g>
    <g id="line2d_63">
     <path d="M 1424.576764 65.561125 
L 1444.576764 65.561125 
L 1464.576764 65.561125 
" style="fill: none; stroke: #ff0000; stroke-width: 2; stroke-linecap: square"/>
    </g>
    <g id="text_57">
     <!-- Hyperthermophiles -->
     <g transform="translate(1480.576764 72.561125) scale(0.2 -0.2)">
      <defs>
       <path id="DejaVuSans-79" d="M 2059 -325 
Q 1816 -950 1584 -1140 
Q 1353 -1331 966 -1331 
L 506 -1331 
L 506 -850 
L 844 -850 
Q 1081 -850 1212 -737 
Q 1344 -625 1503 -206 
L 1606 56 
L 191 3500 
L 800 3500 
L 1894 763 
L 2988 3500 
L 3597 3500 
L 2059 -325 
z
" transform="scale(0.015625)"/>
       <path id="DejaVuSans-70" d="M 1159 525 
L 1159 -1331 
L 581 -1331 
L 581 3500 
L 1159 3500 
L 1159 2969 
Q 1341 3281 1617 3432 
Q 1894 3584 2278 3584 
Q 2916 3584 3314 3078 
Q 3713 2572 3713 1747 
Q 3713 922 3314 415 
Q 2916 -91 2278 -91 
Q 1894 -91 1617 61 
Q 1341 213 1159 525 
z
M 3116 1747 
Q 3116 2381 2855 2742 
Q 2594 3103 2138 3103 
Q 1681 3103 1420 2742 
Q 1159 2381 1159 1747 
Q 1159 1113 1420 752 
Q 1681 391 2138 391 
Q 2594 391 2855 752 
Q 3116 1113 3116 1747 
z
" transform="scale(0.015625)"/>
       <path id="DejaVuSans-74" d="M 1172 4494 
L 1172 3500 
L 2356 3500 
L 2356 3053 
L 1172 3053 
L 1172 1153 
Q 1172 725 1289 603 
Q 1406 481 1766 481 
L 2356 481 
L 2356 0 
L 1766 0 
Q 1100 0 847 248 
Q 594 497 594 1153 
L 594 3053 
L 172 3053 
L 172 3500 
L 594 3500 
L 594 4494 
L 1172 4494 
z
" transform="scale(0.015625)"/>
       <path id="DejaVuSans-68" d="M 3513 2113 
L 3513 0 
L 2938 0 
L 2938 2094 
Q 2938 2591 2744 2837 
Q 2550 3084 2163 3084 
Q 1697 3084 1428 2787 
Q 1159 2491 1159 1978 
L 1159 0 
L 581 0 
L 581 4863 
L 1159 4863 
L 1159 2956 
Q 1366 3272 1645 3428 
Q 1925 3584 2291 3584 
Q 2894 3584 3203 3211 
Q 3513 2838 3513 2113 
z
" transform="scale(0.015625)"/>
      </defs>
      <use xlink:href="#DejaVuSans-48"/>
      <use xlink:href="#DejaVuSans-79" x="75.195312"/>
      <use xlink:href="#DejaVuSans-70" x="134.375"/>
      <use xlink:href="#DejaVuSans-65" x="197.851562"/>
      <use xlink:href="#DejaVuSans-72" x="259.375"/>
      <use xlink:href="#DejaVuSans-74" x="300.488281"/>
      <use xlink:href="#DejaVuSans-68" x="339.697266"/>
      <use xlink:href="#DejaVuSans-65" x="403.076172"/>
      <use xlink:href="#DejaVuSans-72" x="464.599609"/>
      <use xlink:href="#DejaVuSans-6d" x="503.962891"/>
      <use xlink:href="#DejaVuSans-6f" x="601.375"/>
      <use xlink:href="#DejaVuSans-70" x="662.556641"/>
      <use xlink:href="#DejaVuSans-68" x="726.033203"/>
      <use xlink:href="#DejaVuSans-69" x="789.412109"/>
      <use xlink:href="#DejaVuSans-6c" x="817.195312"/>
      <use xlink:href="#DejaVuSans-65" x="844.978516"/>
      <use xlink:href="#DejaVuSans-73" x="906.501953"/>
     </g>
    </g>
    <g id="line2d_64">
     <path d="M 1424.576764 94.917375 
L 1444.576764 94.917375 
L 1464.576764 94.917375 
" style="fill: none; stroke-dasharray: 7.4,3.2; stroke-dashoffset: 0; stroke: #51698a; stroke-width: 2"/>
    </g>
    <g id="text_58">
     <!-- E.coli ProteinMPNN designs -->
     <g transform="translate(1480.576764 101.917375) scale(0.2 -0.2)">
      <defs>
       <path id="DejaVuSans-67" d="M 2906 1791 
Q 2906 2416 2648 2759 
Q 2391 3103 1925 3103 
Q 1463 3103 1205 2759 
Q 947 2416 947 1791 
Q 947 1169 1205 825 
Q 1463 481 1925 481 
Q 2391 481 2648 825 
Q 2906 1169 2906 1791 
z
M 3481 434 
Q 3481 -459 3084 -895 
Q 2688 -1331 1869 -1331 
Q 1566 -1331 1297 -1286 
Q 1028 -1241 775 -1147 
L 775 -588 
Q 1028 -725 1275 -790 
Q 1522 -856 1778 -856 
Q 2344 -856 2625 -561 
Q 2906 -266 2906 331 
L 2906 616 
Q 2728 306 2450 153 
Q 2172 0 1784 0 
Q 1141 0 747 490 
Q 353 981 353 1791 
Q 353 2603 747 3093 
Q 1141 3584 1784 3584 
Q 2172 3584 2450 3431 
Q 2728 3278 2906 2969 
L 2906 3500 
L 3481 3500 
L 3481 434 
z
" transform="scale(0.015625)"/>
      </defs>
      <use xlink:href="#DejaVuSans-45"/>
      <use xlink:href="#DejaVuSans-2e" x="63.183594"/>
      <use xlink:href="#DejaVuSans-63" x="94.970703"/>
      <use xlink:href="#DejaVuSans-6f" x="149.951172"/>
      <use xlink:href="#DejaVuSans-6c" x="211.132812"/>
      <use xlink:href="#DejaVuSans-69" x="238.916016"/>
      <use xlink:href="#DejaVuSans-20" x="266.699219"/>
      <use xlink:href="#DejaVuSans-50" x="298.486328"/>
      <use xlink:href="#DejaVuSans-72" x="357.039062"/>
      <use xlink:href="#DejaVuSans-6f" x="395.902344"/>
      <use xlink:href="#DejaVuSans-74" x="457.083984"/>
      <use xlink:href="#DejaVuSans-65" x="496.292969"/>
      <use xlink:href="#DejaVuSans-69" x="557.816406"/>
      <use xlink:href="#DejaVuSans-6e" x="585.599609"/>
      <use xlink:href="#DejaVuSans-4d" x="648.978516"/>
      <use xlink:href="#DejaVuSans-50" x="735.257812"/>
      <use xlink:href="#DejaVuSans-4e" x="795.560547"/>
      <use xlink:href="#DejaVuSans-4e" x="870.365234"/>
      <use xlink:href="#DejaVuSans-20" x="945.169922"/>
      <use xlink:href="#DejaVuSans-64" x="976.957031"/>
      <use xlink:href="#DejaVuSans-65" x="1040.433594"/>
      <use xlink:href="#DejaVuSans-73" x="1101.957031"/>
      <use xlink:href="#DejaVuSans-69" x="1154.056641"/>
      <use xlink:href="#DejaVuSans-67" x="1181.839844"/>
      <use xlink:href="#DejaVuSans-6e" x="1245.316406"/>
      <use xlink:href="#DejaVuSans-73" x="1308.695312"/>
     </g>
    </g>
    <g id="line2d_65">
     <path d="M 1424.576764 124.273625 
L 1444.576764 124.273625 
L 1464.576764 124.273625 
" style="fill: none; stroke-dasharray: 7.4,3.2; stroke-dashoffset: 0; stroke: #b43445; stroke-width: 2"/>
    </g>
    <g id="text_59">
     <!-- E.coli HyperProtMPNN designs -->
     <g transform="translate(1480.576764 131.273625) scale(0.2 -0.2)">
      <use xlink:href="#DejaVuSans-45"/>
      <use xlink:href="#DejaVuSans-2e" x="63.183594"/>
      <use xlink:href="#DejaVuSans-63" x="94.970703"/>
      <use xlink:href="#DejaVuSans-6f" x="149.951172"/>
      <use xlink:href="#DejaVuSans-6c" x="211.132812"/>
      <use xlink:href="#DejaVuSans-69" x="238.916016"/>
      <use xlink:href="#DejaVuSans-20" x="266.699219"/>
      <use xlink:href="#DejaVuSans-48" x="298.486328"/>
      <use xlink:href="#DejaVuSans-79" x="373.681641"/>
      <use xlink:href="#DejaVuSans-70" x="432.861328"/>
      <use xlink:href="#DejaVuSans-65" x="496.337891"/>
      <use xlink:href="#DejaVuSans-72" x="557.861328"/>
      <use xlink:href="#DejaVuSans-50" x="598.974609"/>
      <use xlink:href="#DejaVuSans-72" x="657.527344"/>
      <use xlink:href="#DejaVuSans-6f" x="696.390625"/>
      <use xlink:href="#DejaVuSans-74" x="757.572266"/>
      <use xlink:href="#DejaVuSans-4d" x="796.78125"/>
      <use xlink:href="#DejaVuSans-50" x="883.060547"/>
      <use xlink:href="#DejaVuSans-4e" x="943.363281"/>
      <use xlink:href="#DejaVuSans-4e" x="1018.167969"/>
      <use xlink:href="#DejaVuSans-20" x="1092.972656"/>
      <use xlink:href="#DejaVuSans-64" x="1124.759766"/>
      <use xlink:href="#DejaVuSans-65" x="1188.236328"/>
      <use xlink:href="#DejaVuSans-73" x="1249.759766"/>
      <use xlink:href="#DejaVuSans-69" x="1301.859375"/>
      <use xlink:href="#DejaVuSans-67" x="1329.642578"/>
      <use xlink:href="#DejaVuSans-6e" x="1393.119141"/>
      <use xlink:href="#DejaVuSans-73" x="1456.498047"/>
     </g>
    </g>
   </g>
  </g>
 </g>
 <defs>
  <clipPath id="p8c9eac85d7">
   <path d="M 686.642091 372.36 
C 686.642091 332.706976 678.83131 293.439528 663.656755 256.804911 
C 648.482199 220.170294 626.238977 186.880958 598.200055 158.842036 
C 570.161132 130.803114 536.871797 108.559892 500.23718 93.385336 
C 463.602563 78.210781 424.335115 70.4 384.682091 70.4 
C 345.029067 70.4 305.761619 78.210781 269.127002 93.385336 
C 232.492385 108.559892 199.203049 130.803114 171.164127 158.842036 
C 143.125205 186.880958 120.881983 220.170294 105.707427 256.804911 
C 90.532872 293.439528 82.722091 332.706976 82.722091 372.36 
C 82.722091 412.013024 90.532872 451.280472 105.707427 487.915089 
C 120.881983 524.549706 143.125205 557.839042 171.164127 585.877964 
C 199.203049 613.916886 232.492385 636.160108 269.127002 651.334664 
C 305.761619 666.509219 345.029067 674.32 384.682091 674.32 
C 424.335115 674.32 463.602563 666.509219 500.23718 651.334664 
C 536.871797 636.160108 570.161132 613.916886 598.200055 585.877964 
C 626.238977 557.839042 648.482199 524.549706 663.656755 487.915089 
C 678.83131 451.280472 686.642091 412.013024 686.642091 372.36 
M 384.682091 372.36 
C 384.682091 372.36 384.682091 372.36 384.682091 372.36 
C 384.682091 372.36 384.682091 372.36 384.682091 372.36 
C 384.682091 372.36 384.682091 372.36 384.682091 372.36 
C 384.682091 372.36 384.682091 372.36 384.682091 372.36 
C 384.682091 372.36 384.682091 372.36 384.682091 372.36 
C 384.682091 372.36 384.682091 372.36 384.682091 372.36 
C 384.682091 372.36 384.682091 372.36 384.682091 372.36 
C 384.682091 372.36 384.682091 372.36 384.682091 372.36 
C 384.682091 372.36 384.682091 372.36 384.682091 372.36 
C 384.682091 372.36 384.682091 372.36 384.682091 372.36 
C 384.682091 372.36 384.682091 372.36 384.682091 372.36 
C 384.682091 372.36 384.682091 372.36 384.682091 372.36 
C 384.682091 372.36 384.682091 372.36 384.682091 372.36 
C 384.682091 372.36 384.682091 372.36 384.682091 372.36 
C 384.682091 372.36 384.682091 372.36 384.682091 372.36 
C 384.682091 372.36 384.682091 372.36 384.682091 372.36 
z
"/>
  </clipPath>
  <clipPath id="pdc57ff6881">
   <path d="M 1395.675364 372.36 
C 1395.675364 332.706976 1387.864583 293.439528 1372.690027 256.804911 
C 1357.515472 220.170294 1335.272249 186.880958 1307.233327 158.842036 
C 1279.194405 130.803114 1245.90507 108.559892 1209.270453 93.385336 
C 1172.635836 78.210781 1133.368388 70.4 1093.715364 70.4 
C 1054.06234 70.4 1014.794892 78.210781 978.160274 93.385336 
C 941.525657 108.559892 908.236322 130.803114 880.1974 158.842036 
C 852.158478 186.880958 829.915255 220.170294 814.7407 256.804911 
C 799.566145 293.439528 791.755364 332.706976 791.755364 372.36 
C 791.755364 412.013024 799.566145 451.280472 814.7407 487.915089 
C 829.915255 524.549706 852.158478 557.839042 880.1974 585.877964 
C 908.236322 613.916886 941.525657 636.160108 978.160274 651.334664 
C 1014.794892 666.509219 1054.06234 674.32 1093.715364 674.32 
C 1133.368388 674.32 1172.635836 666.509219 1209.270453 651.334664 
C 1245.90507 636.160108 1279.194405 613.916886 1307.233327 585.877964 
C 1335.272249 557.839042 1357.515472 524.549706 1372.690027 487.915089 
C 1387.864583 451.280472 1395.675364 412.013024 1395.675364 372.36 
M 1093.715364 372.36 
C 1093.715364 372.36 1093.715364 372.36 1093.715364 372.36 
C 1093.715364 372.36 1093.715364 372.36 1093.715364 372.36 
C 1093.715364 372.36 1093.715364 372.36 1093.715364 372.36 
C 1093.715364 372.36 1093.715364 372.36 1093.715364 372.36 
C 1093.715364 372.36 1093.715364 372.36 1093.715364 372.36 
C 1093.715364 372.36 1093.715364 372.36 1093.715364 372.36 
C 1093.715364 372.36 1093.715364 372.36 1093.715364 372.36 
C 1093.715364 372.36 1093.715364 372.36 1093.715364 372.36 
C 1093.715364 372.36 1093.715364 372.36 1093.715364 372.36 
C 1093.715364 372.36 1093.715364 372.36 1093.715364 372.36 
C 1093.715364 372.36 1093.715364 372.36 1093.715364 372.36 
C 1093.715364 372.36 1093.715364 372.36 1093.715364 372.36 
C 1093.715364 372.36 1093.715364 372.36 1093.715364 372.36 
C 1093.715364 372.36 1093.715364 372.36 1093.715364 372.36 
C 1093.715364 372.36 1093.715364 372.36 1093.715364 372.36 
C 1093.715364 372.36 1093.715364 372.36 1093.715364 372.36 
z
"/>
  </clipPath>
 </defs>
</svg>
