<?xml version="1.0" encoding="utf-8" standalone="no"?>
<!DOCTYPE svg PUBLIC "-//W3C//DTD SVG 1.1//EN"
  "http://www.w3.org/Graphics/SVG/1.1/DTD/svg11.dtd">
<svg xmlns:xlink="http://www.w3.org/1999/xlink" width="864pt" height="576pt" viewBox="0 0 864 576" xmlns="http://www.w3.org/2000/svg" version="1.1">
 <metadata>
  <rdf:RDF xmlns:dc="http://purl.org/dc/elements/1.1/" xmlns:cc="http://creativecommons.org/ns#" xmlns:rdf="http://www.w3.org/1999/02/22-rdf-syntax-ns#">
   <cc:Work>
    <dc:type rdf:resource="http://purl.org/dc/dcmitype/StillImage"/>
    <dc:date>2024-08-21T08:49:07.124293</dc:date>
    <dc:format>image/svg+xml</dc:format>
    <dc:creator>
     <cc:Agent>
      <dc:title>Matplotlib v3.9.2, https://matplotlib.org/</dc:title>
     </cc:Agent>
    </dc:creator>
   </cc:Work>
  </rdf:RDF>
 </metadata>
 <defs>
  <style type="text/css">*{stroke-linejoin: round; stroke-linecap: butt}</style>
 </defs>
 <g id="figure_1">
  <g id="patch_1">
   <path d="M 0 576 
L 864 576 
L 864 0 
L 0 0 
z
" style="fill: #ffffff"/>
  </g>
  <g id="axes_1">
   <g id="patch_2">
    <path d="M 234.74 483.06 
L 838.08 483.06 
L 838.08 70.76 
L 234.74 70.76 
z
" style="fill: #ffffff"/>
   </g>
   <g id="matplotlib.axis_1">
    <g id="xtick_1">
     <g id="line2d_1">
      <path d="M 326.336863 483.06 
L 326.336863 70.76 
" clip-path="url(#pcdc3168e8b)" style="fill: none; stroke: #cccccc; stroke-width: 2; stroke-linecap: round"/>
     </g>
     <g id="text_1">
      <!-- −100 -->
      <g style="fill: #262626" transform="translate(298.182566 516.454531) scale(0.25 -0.25)">
       <defs>
        <path id="ArialMT-2212" d="M 3381 1997 
L 356 1997 
L 356 2522 
L 3381 2522 
L 3381 1997 
z
" transform="scale(0.015625)"/>
        <path id="ArialMT-31" d="M 2384 0 
L 1822 0 
L 1822 3584 
Q 1619 3391 1289 3197 
Q 959 3003 697 2906 
L 697 3450 
Q 1169 3672 1522 3987 
Q 1875 4303 2022 4600 
L 2384 4600 
L 2384 0 
z
" transform="scale(0.015625)"/>
        <path id="ArialMT-30" d="M 266 2259 
Q 266 3072 433 3567 
Q 600 4063 929 4331 
Q 1259 4600 1759 4600 
Q 2128 4600 2406 4451 
Q 2684 4303 2865 4023 
Q 3047 3744 3150 3342 
Q 3253 2941 3253 2259 
Q 3253 1453 3087 958 
Q 2922 463 2592 192 
Q 2263 -78 1759 -78 
Q 1097 -78 719 397 
Q 266 969 266 2259 
z
M 844 2259 
Q 844 1131 1108 757 
Q 1372 384 1759 384 
Q 2147 384 2411 759 
Q 2675 1134 2675 2259 
Q 2675 3391 2411 3762 
Q 2147 4134 1753 4134 
Q 1366 4134 1134 3806 
Q 844 3388 844 2259 
z
" transform="scale(0.015625)"/>
       </defs>
       <use xlink:href="#ArialMT-2212"/>
       <use xlink:href="#ArialMT-31" x="58.398438"/>
       <use xlink:href="#ArialMT-30" x="114.013672"/>
       <use xlink:href="#ArialMT-30" x="169.628906"/>
      </g>
     </g>
    </g>
    <g id="xtick_2">
     <g id="line2d_2">
      <path d="M 473.943458 483.06 
L 473.943458 70.76 
" clip-path="url(#pcdc3168e8b)" style="fill: none; stroke: #cccccc; stroke-width: 2; stroke-linecap: round"/>
     </g>
     <g id="text_2">
      <!-- −50 -->
      <g style="fill: #262626" transform="translate(452.740333 516.454531) scale(0.25 -0.25)">
       <defs>
        <path id="ArialMT-35" d="M 266 1200 
L 856 1250 
Q 922 819 1161 601 
Q 1400 384 1738 384 
Q 2144 384 2425 690 
Q 2706 997 2706 1503 
Q 2706 1984 2436 2262 
Q 2166 2541 1728 2541 
Q 1456 2541 1237 2417 
Q 1019 2294 894 2097 
L 366 2166 
L 809 4519 
L 3088 4519 
L 3088 3981 
L 1259 3981 
L 1013 2750 
Q 1425 3038 1878 3038 
Q 2478 3038 2890 2622 
Q 3303 2206 3303 1553 
Q 3303 931 2941 478 
Q 2500 -78 1738 -78 
Q 1113 -78 717 272 
Q 322 622 266 1200 
z
" transform="scale(0.015625)"/>
       </defs>
       <use xlink:href="#ArialMT-2212"/>
       <use xlink:href="#ArialMT-35" x="58.398438"/>
       <use xlink:href="#ArialMT-30" x="114.013672"/>
      </g>
     </g>
    </g>
    <g id="xtick_3">
     <g id="line2d_3">
      <path d="M 621.550054 483.06 
L 621.550054 70.76 
" clip-path="url(#pcdc3168e8b)" style="fill: none; stroke: #cccccc; stroke-width: 2; stroke-linecap: round"/>
     </g>
     <g id="text_3">
      <!-- 0 -->
      <g style="fill: #262626" transform="translate(614.598882 516.454531) scale(0.25 -0.25)">
       <use xlink:href="#ArialMT-30"/>
      </g>
     </g>
    </g>
    <g id="xtick_4">
     <g id="line2d_4">
      <path d="M 769.156649 483.06 
L 769.156649 70.76 
" clip-path="url(#pcdc3168e8b)" style="fill: none; stroke: #cccccc; stroke-width: 2; stroke-linecap: round"/>
     </g>
     <g id="text_4">
      <!-- 50 -->
      <g style="fill: #262626" transform="translate(755.254305 516.454531) scale(0.25 -0.25)">
       <use xlink:href="#ArialMT-35"/>
       <use xlink:href="#ArialMT-30" x="55.615234"/>
      </g>
     </g>
    </g>
    <g id="text_5">
     <!-- Netto charge -->
     <g style="fill: #262626" transform="translate(464.845547 543.317812) scale(0.25 -0.25)">
      <defs>
       <path id="ArialMT-4e" d="M 488 0 
L 488 4581 
L 1109 4581 
L 3516 984 
L 3516 4581 
L 4097 4581 
L 4097 0 
L 3475 0 
L 1069 3600 
L 1069 0 
L 488 0 
z
" transform="scale(0.015625)"/>
       <path id="ArialMT-65" d="M 2694 1069 
L 3275 997 
Q 3138 488 2766 206 
Q 2394 -75 1816 -75 
Q 1088 -75 661 373 
Q 234 822 234 1631 
Q 234 2469 665 2931 
Q 1097 3394 1784 3394 
Q 2450 3394 2872 2941 
Q 3294 2488 3294 1666 
Q 3294 1616 3291 1516 
L 816 1516 
Q 847 969 1125 678 
Q 1403 388 1819 388 
Q 2128 388 2347 550 
Q 2566 713 2694 1069 
z
M 847 1978 
L 2700 1978 
Q 2663 2397 2488 2606 
Q 2219 2931 1791 2931 
Q 1403 2931 1139 2672 
Q 875 2413 847 1978 
z
" transform="scale(0.015625)"/>
       <path id="ArialMT-74" d="M 1650 503 
L 1731 6 
Q 1494 -44 1306 -44 
Q 1000 -44 831 53 
Q 663 150 594 308 
Q 525 466 525 972 
L 525 2881 
L 113 2881 
L 113 3319 
L 525 3319 
L 525 4141 
L 1084 4478 
L 1084 3319 
L 1650 3319 
L 1650 2881 
L 1084 2881 
L 1084 941 
Q 1084 700 1114 631 
Q 1144 563 1211 522 
Q 1278 481 1403 481 
Q 1497 481 1650 503 
z
" transform="scale(0.015625)"/>
       <path id="ArialMT-6f" d="M 213 1659 
Q 213 2581 725 3025 
Q 1153 3394 1769 3394 
Q 2453 3394 2887 2945 
Q 3322 2497 3322 1706 
Q 3322 1066 3130 698 
Q 2938 331 2570 128 
Q 2203 -75 1769 -75 
Q 1072 -75 642 372 
Q 213 819 213 1659 
z
M 791 1659 
Q 791 1022 1069 705 
Q 1347 388 1769 388 
Q 2188 388 2466 706 
Q 2744 1025 2744 1678 
Q 2744 2294 2464 2611 
Q 2184 2928 1769 2928 
Q 1347 2928 1069 2612 
Q 791 2297 791 1659 
z
" transform="scale(0.015625)"/>
       <path id="ArialMT-20" transform="scale(0.015625)"/>
       <path id="ArialMT-63" d="M 2588 1216 
L 3141 1144 
Q 3050 572 2676 248 
Q 2303 -75 1759 -75 
Q 1078 -75 664 370 
Q 250 816 250 1647 
Q 250 2184 428 2587 
Q 606 2991 970 3192 
Q 1334 3394 1763 3394 
Q 2303 3394 2647 3120 
Q 2991 2847 3088 2344 
L 2541 2259 
Q 2463 2594 2264 2762 
Q 2066 2931 1784 2931 
Q 1359 2931 1093 2626 
Q 828 2322 828 1663 
Q 828 994 1084 691 
Q 1341 388 1753 388 
Q 2084 388 2306 591 
Q 2528 794 2588 1216 
z
" transform="scale(0.015625)"/>
       <path id="ArialMT-68" d="M 422 0 
L 422 4581 
L 984 4581 
L 984 2938 
Q 1378 3394 1978 3394 
Q 2347 3394 2619 3248 
Q 2891 3103 3008 2847 
Q 3125 2591 3125 2103 
L 3125 0 
L 2563 0 
L 2563 2103 
Q 2563 2525 2380 2717 
Q 2197 2909 1863 2909 
Q 1613 2909 1392 2779 
Q 1172 2650 1078 2428 
Q 984 2206 984 1816 
L 984 0 
L 422 0 
z
" transform="scale(0.015625)"/>
       <path id="ArialMT-61" d="M 2588 409 
Q 2275 144 1986 34 
Q 1697 -75 1366 -75 
Q 819 -75 525 192 
Q 231 459 231 875 
Q 231 1119 342 1320 
Q 453 1522 633 1644 
Q 813 1766 1038 1828 
Q 1203 1872 1538 1913 
Q 2219 1994 2541 2106 
Q 2544 2222 2544 2253 
Q 2544 2597 2384 2738 
Q 2169 2928 1744 2928 
Q 1347 2928 1158 2789 
Q 969 2650 878 2297 
L 328 2372 
Q 403 2725 575 2942 
Q 747 3159 1072 3276 
Q 1397 3394 1825 3394 
Q 2250 3394 2515 3294 
Q 2781 3194 2906 3042 
Q 3031 2891 3081 2659 
Q 3109 2516 3109 2141 
L 3109 1391 
Q 3109 606 3145 398 
Q 3181 191 3288 0 
L 2700 0 
Q 2613 175 2588 409 
z
M 2541 1666 
Q 2234 1541 1622 1453 
Q 1275 1403 1131 1340 
Q 988 1278 909 1158 
Q 831 1038 831 891 
Q 831 666 1001 516 
Q 1172 366 1500 366 
Q 1825 366 2078 508 
Q 2331 650 2450 897 
Q 2541 1088 2541 1459 
L 2541 1666 
z
" transform="scale(0.015625)"/>
       <path id="ArialMT-72" d="M 416 0 
L 416 3319 
L 922 3319 
L 922 2816 
Q 1116 3169 1280 3281 
Q 1444 3394 1641 3394 
Q 1925 3394 2219 3213 
L 2025 2691 
Q 1819 2813 1613 2813 
Q 1428 2813 1281 2702 
Q 1134 2591 1072 2394 
Q 978 2094 978 1738 
L 978 0 
L 416 0 
z
" transform="scale(0.015625)"/>
       <path id="ArialMT-67" d="M 319 -275 
L 866 -356 
Q 900 -609 1056 -725 
Q 1266 -881 1628 -881 
Q 2019 -881 2231 -725 
Q 2444 -569 2519 -288 
Q 2563 -116 2559 434 
Q 2191 0 1641 0 
Q 956 0 581 494 
Q 206 988 206 1678 
Q 206 2153 378 2554 
Q 550 2956 876 3175 
Q 1203 3394 1644 3394 
Q 2231 3394 2613 2919 
L 2613 3319 
L 3131 3319 
L 3131 450 
Q 3131 -325 2973 -648 
Q 2816 -972 2473 -1159 
Q 2131 -1347 1631 -1347 
Q 1038 -1347 672 -1080 
Q 306 -813 319 -275 
z
M 784 1719 
Q 784 1066 1043 766 
Q 1303 466 1694 466 
Q 2081 466 2343 764 
Q 2606 1063 2606 1700 
Q 2606 2309 2336 2618 
Q 2066 2928 1684 2928 
Q 1309 2928 1046 2623 
Q 784 2319 784 1719 
z
" transform="scale(0.015625)"/>
      </defs>
      <use xlink:href="#ArialMT-4e"/>
      <use xlink:href="#ArialMT-65" x="72.216797"/>
      <use xlink:href="#ArialMT-74" x="127.832031"/>
      <use xlink:href="#ArialMT-74" x="155.615234"/>
      <use xlink:href="#ArialMT-6f" x="183.398438"/>
      <use xlink:href="#ArialMT-20" x="239.013672"/>
      <use xlink:href="#ArialMT-63" x="266.796875"/>
      <use xlink:href="#ArialMT-68" x="316.796875"/>
      <use xlink:href="#ArialMT-61" x="372.412109"/>
      <use xlink:href="#ArialMT-72" x="428.027344"/>
      <use xlink:href="#ArialMT-67" x="461.328125"/>
      <use xlink:href="#ArialMT-65" x="516.943359"/>
     </g>
    </g>
   </g>
   <g id="matplotlib.axis_2">
    <g id="ytick_1">
     <g id="text_6">
      <!-- E. coli -->
      <g style="fill: #262626" transform="translate(156.608125 130.528984) scale(0.23 -0.23)">
       <defs>
        <path id="ArialMT-45" d="M 506 0 
L 506 4581 
L 3819 4581 
L 3819 4041 
L 1113 4041 
L 1113 2638 
L 3647 2638 
L 3647 2100 
L 1113 2100 
L 1113 541 
L 3925 541 
L 3925 0 
L 506 0 
z
" transform="scale(0.015625)"/>
        <path id="ArialMT-2e" d="M 581 0 
L 581 641 
L 1222 641 
L 1222 0 
L 581 0 
z
" transform="scale(0.015625)"/>
        <path id="ArialMT-6c" d="M 409 0 
L 409 4581 
L 972 4581 
L 972 0 
L 409 0 
z
" transform="scale(0.015625)"/>
        <path id="ArialMT-69" d="M 425 3934 
L 425 4581 
L 988 4581 
L 988 3934 
L 425 3934 
z
M 425 0 
L 425 3319 
L 988 3319 
L 988 0 
L 425 0 
z
" transform="scale(0.015625)"/>
       </defs>
       <use xlink:href="#ArialMT-45"/>
       <use xlink:href="#ArialMT-2e" x="66.699219"/>
       <use xlink:href="#ArialMT-20" x="94.482422"/>
       <use xlink:href="#ArialMT-63" x="122.265625"/>
       <use xlink:href="#ArialMT-6f" x="172.265625"/>
       <use xlink:href="#ArialMT-6c" x="227.880859"/>
       <use xlink:href="#ArialMT-69" x="250.097656"/>
      </g>
     </g>
    </g>
    <g id="ytick_2">
     <g id="text_7">
      <!-- Hyperthermophiles -->
      <g style="fill: #262626" transform="translate(26.223281 233.603984) scale(0.23 -0.23)">
       <defs>
        <path id="ArialMT-48" d="M 513 0 
L 513 4581 
L 1119 4581 
L 1119 2700 
L 3500 2700 
L 3500 4581 
L 4106 4581 
L 4106 0 
L 3500 0 
L 3500 2159 
L 1119 2159 
L 1119 0 
L 513 0 
z
" transform="scale(0.015625)"/>
        <path id="ArialMT-79" d="M 397 -1278 
L 334 -750 
Q 519 -800 656 -800 
Q 844 -800 956 -737 
Q 1069 -675 1141 -563 
Q 1194 -478 1313 -144 
Q 1328 -97 1363 -6 
L 103 3319 
L 709 3319 
L 1400 1397 
Q 1534 1031 1641 628 
Q 1738 1016 1872 1384 
L 2581 3319 
L 3144 3319 
L 1881 -56 
Q 1678 -603 1566 -809 
Q 1416 -1088 1222 -1217 
Q 1028 -1347 759 -1347 
Q 597 -1347 397 -1278 
z
" transform="scale(0.015625)"/>
        <path id="ArialMT-70" d="M 422 -1272 
L 422 3319 
L 934 3319 
L 934 2888 
Q 1116 3141 1344 3267 
Q 1572 3394 1897 3394 
Q 2322 3394 2647 3175 
Q 2972 2956 3137 2557 
Q 3303 2159 3303 1684 
Q 3303 1175 3120 767 
Q 2938 359 2589 142 
Q 2241 -75 1856 -75 
Q 1575 -75 1351 44 
Q 1128 163 984 344 
L 984 -1272 
L 422 -1272 
z
M 931 1641 
Q 931 1000 1190 694 
Q 1450 388 1819 388 
Q 2194 388 2461 705 
Q 2728 1022 2728 1688 
Q 2728 2322 2467 2637 
Q 2206 2953 1844 2953 
Q 1484 2953 1207 2617 
Q 931 2281 931 1641 
z
" transform="scale(0.015625)"/>
        <path id="ArialMT-6d" d="M 422 0 
L 422 3319 
L 925 3319 
L 925 2853 
Q 1081 3097 1340 3245 
Q 1600 3394 1931 3394 
Q 2300 3394 2536 3241 
Q 2772 3088 2869 2813 
Q 3263 3394 3894 3394 
Q 4388 3394 4653 3120 
Q 4919 2847 4919 2278 
L 4919 0 
L 4359 0 
L 4359 2091 
Q 4359 2428 4304 2576 
Q 4250 2725 4106 2815 
Q 3963 2906 3769 2906 
Q 3419 2906 3187 2673 
Q 2956 2441 2956 1928 
L 2956 0 
L 2394 0 
L 2394 2156 
Q 2394 2531 2256 2718 
Q 2119 2906 1806 2906 
Q 1569 2906 1367 2781 
Q 1166 2656 1075 2415 
Q 984 2175 984 1722 
L 984 0 
L 422 0 
z
" transform="scale(0.015625)"/>
        <path id="ArialMT-73" d="M 197 991 
L 753 1078 
Q 800 744 1014 566 
Q 1228 388 1613 388 
Q 2000 388 2187 545 
Q 2375 703 2375 916 
Q 2375 1106 2209 1216 
Q 2094 1291 1634 1406 
Q 1016 1563 777 1677 
Q 538 1791 414 1992 
Q 291 2194 291 2438 
Q 291 2659 392 2848 
Q 494 3038 669 3163 
Q 800 3259 1026 3326 
Q 1253 3394 1513 3394 
Q 1903 3394 2198 3281 
Q 2494 3169 2634 2976 
Q 2775 2784 2828 2463 
L 2278 2388 
Q 2241 2644 2061 2787 
Q 1881 2931 1553 2931 
Q 1166 2931 1000 2803 
Q 834 2675 834 2503 
Q 834 2394 903 2306 
Q 972 2216 1119 2156 
Q 1203 2125 1616 2013 
Q 2213 1853 2448 1751 
Q 2684 1650 2818 1456 
Q 2953 1263 2953 975 
Q 2953 694 2789 445 
Q 2625 197 2315 61 
Q 2006 -75 1616 -75 
Q 969 -75 630 194 
Q 291 463 197 991 
z
" transform="scale(0.015625)"/>
       </defs>
       <use xlink:href="#ArialMT-48"/>
       <use xlink:href="#ArialMT-79" x="72.216797"/>
       <use xlink:href="#ArialMT-70" x="122.216797"/>
       <use xlink:href="#ArialMT-65" x="177.832031"/>
       <use xlink:href="#ArialMT-72" x="233.447266"/>
       <use xlink:href="#ArialMT-74" x="266.748047"/>
       <use xlink:href="#ArialMT-68" x="294.53125"/>
       <use xlink:href="#ArialMT-65" x="350.146484"/>
       <use xlink:href="#ArialMT-72" x="405.761719"/>
       <use xlink:href="#ArialMT-6d" x="439.0625"/>
       <use xlink:href="#ArialMT-6f" x="522.363281"/>
       <use xlink:href="#ArialMT-70" x="577.978516"/>
       <use xlink:href="#ArialMT-68" x="633.59375"/>
       <use xlink:href="#ArialMT-69" x="689.208984"/>
       <use xlink:href="#ArialMT-6c" x="711.425781"/>
       <use xlink:href="#ArialMT-65" x="733.642578"/>
       <use xlink:href="#ArialMT-73" x="789.257812"/>
      </g>
     </g>
    </g>
    <g id="ytick_3">
     <g id="text_8">
      <!-- E. coli -->
      <g style="fill: #262626" transform="translate(156.608125 313.998469) scale(0.23 -0.23)">
       <use xlink:href="#ArialMT-45"/>
       <use xlink:href="#ArialMT-2e" x="66.699219"/>
       <use xlink:href="#ArialMT-20" x="94.482422"/>
       <use xlink:href="#ArialMT-63" x="122.265625"/>
       <use xlink:href="#ArialMT-6f" x="172.265625"/>
       <use xlink:href="#ArialMT-6c" x="227.880859"/>
       <use xlink:href="#ArialMT-69" x="250.097656"/>
      </g>
      <!-- ProteinMPNN -->
      <g style="fill: #262626" transform="translate(78.648906 338.325281) scale(0.23 -0.23)">
       <defs>
        <path id="ArialMT-50" d="M 494 0 
L 494 4581 
L 2222 4581 
Q 2678 4581 2919 4538 
Q 3256 4481 3484 4323 
Q 3713 4166 3852 3881 
Q 3991 3597 3991 3256 
Q 3991 2672 3619 2267 
Q 3247 1863 2275 1863 
L 1100 1863 
L 1100 0 
L 494 0 
z
M 1100 2403 
L 2284 2403 
Q 2872 2403 3119 2622 
Q 3366 2841 3366 3238 
Q 3366 3525 3220 3729 
Q 3075 3934 2838 4000 
Q 2684 4041 2272 4041 
L 1100 4041 
L 1100 2403 
z
" transform="scale(0.015625)"/>
        <path id="ArialMT-6e" d="M 422 0 
L 422 3319 
L 928 3319 
L 928 2847 
Q 1294 3394 1984 3394 
Q 2284 3394 2536 3286 
Q 2788 3178 2913 3003 
Q 3038 2828 3088 2588 
Q 3119 2431 3119 2041 
L 3119 0 
L 2556 0 
L 2556 2019 
Q 2556 2363 2490 2533 
Q 2425 2703 2258 2804 
Q 2091 2906 1866 2906 
Q 1506 2906 1245 2678 
Q 984 2450 984 1813 
L 984 0 
L 422 0 
z
" transform="scale(0.015625)"/>
        <path id="ArialMT-4d" d="M 475 0 
L 475 4581 
L 1388 4581 
L 2472 1338 
Q 2622 884 2691 659 
Q 2769 909 2934 1394 
L 4031 4581 
L 4847 4581 
L 4847 0 
L 4263 0 
L 4263 3834 
L 2931 0 
L 2384 0 
L 1059 3900 
L 1059 0 
L 475 0 
z
" transform="scale(0.015625)"/>
       </defs>
       <use xlink:href="#ArialMT-50"/>
       <use xlink:href="#ArialMT-72" x="66.699219"/>
       <use xlink:href="#ArialMT-6f" x="100"/>
       <use xlink:href="#ArialMT-74" x="155.615234"/>
       <use xlink:href="#ArialMT-65" x="183.398438"/>
       <use xlink:href="#ArialMT-69" x="239.013672"/>
       <use xlink:href="#ArialMT-6e" x="261.230469"/>
       <use xlink:href="#ArialMT-4d" x="316.845703"/>
       <use xlink:href="#ArialMT-50" x="400.146484"/>
       <use xlink:href="#ArialMT-4e" x="466.845703"/>
       <use xlink:href="#ArialMT-4e" x="539.0625"/>
      </g>
      <!-- designs -->
      <g style="fill: #262626" transform="translate(139.969062 362.652094) scale(0.23 -0.23)">
       <defs>
        <path id="ArialMT-64" d="M 2575 0 
L 2575 419 
Q 2259 -75 1647 -75 
Q 1250 -75 917 144 
Q 584 363 401 755 
Q 219 1147 219 1656 
Q 219 2153 384 2558 
Q 550 2963 881 3178 
Q 1213 3394 1622 3394 
Q 1922 3394 2156 3267 
Q 2391 3141 2538 2938 
L 2538 4581 
L 3097 4581 
L 3097 0 
L 2575 0 
z
M 797 1656 
Q 797 1019 1065 703 
Q 1334 388 1700 388 
Q 2069 388 2326 689 
Q 2584 991 2584 1609 
Q 2584 2291 2321 2609 
Q 2059 2928 1675 2928 
Q 1300 2928 1048 2622 
Q 797 2316 797 1656 
z
" transform="scale(0.015625)"/>
       </defs>
       <use xlink:href="#ArialMT-64"/>
       <use xlink:href="#ArialMT-65" x="55.615234"/>
       <use xlink:href="#ArialMT-73" x="111.230469"/>
       <use xlink:href="#ArialMT-69" x="161.230469"/>
       <use xlink:href="#ArialMT-67" x="183.447266"/>
       <use xlink:href="#ArialMT-6e" x="239.0625"/>
       <use xlink:href="#ArialMT-73" x="294.677734"/>
      </g>
     </g>
    </g>
    <g id="ytick_4">
     <g id="text_9">
      <!-- E. coli -->
      <g style="fill: #262626" transform="translate(156.608125 416.938703) scale(0.23 -0.23)">
       <use xlink:href="#ArialMT-45"/>
       <use xlink:href="#ArialMT-2e" x="66.699219"/>
       <use xlink:href="#ArialMT-20" x="94.482422"/>
       <use xlink:href="#ArialMT-63" x="122.265625"/>
       <use xlink:href="#ArialMT-6f" x="172.265625"/>
       <use xlink:href="#ArialMT-6c" x="227.880859"/>
       <use xlink:href="#ArialMT-69" x="250.097656"/>
      </g>
      <!-- HyperMPNN -->
      <g style="fill: #262626" transform="translate(90.170469 441.265516) scale(0.23 -0.23)">
       <use xlink:href="#ArialMT-48"/>
       <use xlink:href="#ArialMT-79" x="72.216797"/>
       <use xlink:href="#ArialMT-70" x="122.216797"/>
       <use xlink:href="#ArialMT-65" x="177.832031"/>
       <use xlink:href="#ArialMT-72" x="233.447266"/>
       <use xlink:href="#ArialMT-4d" x="266.748047"/>
       <use xlink:href="#ArialMT-50" x="350.048828"/>
       <use xlink:href="#ArialMT-4e" x="416.748047"/>
       <use xlink:href="#ArialMT-4e" x="488.964844"/>
      </g>
      <!-- designs -->
      <g style="fill: #262626" transform="translate(139.969062 465.861859) scale(0.23 -0.23)">
       <use xlink:href="#ArialMT-64"/>
       <use xlink:href="#ArialMT-65" x="55.615234"/>
       <use xlink:href="#ArialMT-73" x="111.230469"/>
       <use xlink:href="#ArialMT-69" x="161.230469"/>
       <use xlink:href="#ArialMT-67" x="183.447266"/>
       <use xlink:href="#ArialMT-6e" x="239.0625"/>
       <use xlink:href="#ArialMT-73" x="294.677734"/>
      </g>
     </g>
    </g>
   </g>
   <g id="PolyCollection_1">
    <defs>
     <path id="mb1a22a5f23" d="M 262.164545 -453.696848 
L 262.164545 -453.708152 
L 267.098937 -453.725164 
L 272.033328 -453.74334 
L 276.967719 -453.735568 
L 281.90211 -453.714532 
L 286.836501 -453.704467 
L 291.770893 -453.702645 
L 296.705284 -453.702505 
L 301.639675 -453.7025 
L 306.574066 -453.7025 
L 311.508457 -453.7025 
L 316.442849 -453.70252 
L 321.37724 -453.702982 
L 326.311631 -453.707836 
L 331.246022 -453.730085 
L 336.180413 -453.769766 
L 341.114804 -453.78039 
L 346.049196 -453.74538 
L 350.983587 -453.71367 
L 355.917978 -453.703865 
L 360.852369 -453.702577 
L 365.78676 -453.702503 
L 370.721152 -453.70254 
L 375.655543 -453.703256 
L 380.589934 -453.708881 
L 385.524325 -453.726717 
L 390.458716 -453.743796 
L 395.393107 -453.734144 
L 400.327499 -453.713401 
L 405.26189 -453.70434 
L 410.196281 -453.704736 
L 415.130672 -453.716103 
L 420.065063 -453.745081 
L 424.999455 -453.772437 
L 429.933846 -453.766525 
L 434.868237 -453.734771 
L 439.802628 -453.711327 
L 444.737019 -453.708649 
L 449.671411 -453.72775 
L 454.605802 -453.772474 
L 459.540193 -453.841377 
L 464.474584 -453.922097 
L 469.408975 -453.970324 
L 474.343366 -453.991011 
L 479.277758 -454.020454 
L 484.212149 -454.027664 
L 489.14654 -453.994825 
L 494.080931 -453.980643 
L 499.015322 -454.02703 
L 503.949714 -454.045699 
L 508.884105 -453.993514 
L 513.818496 -454.036951 
L 518.752887 -454.212325 
L 523.687278 -454.372744 
L 528.62167 -454.557754 
L 533.556061 -454.981994 
L 538.490452 -455.599999 
L 543.424843 -456.116405 
L 548.359234 -456.473808 
L 553.293625 -456.992633 
L 558.228017 -458.003354 
L 563.162408 -459.449227 
L 568.096799 -461.157042 
L 573.03119 -463.239995 
L 577.965581 -466.059657 
L 582.899973 -469.853174 
L 587.834364 -474.260171 
L 592.768755 -479.215312 
L 597.703146 -485.104274 
L 602.637537 -490.492937 
L 607.571929 -493.548551 
L 612.50632 -494.888181 
L 617.440711 -494.9325 
L 622.375102 -493.25831 
L 627.309493 -490.20829 
L 632.243884 -485.880676 
L 637.178276 -480.497156 
L 642.112667 -474.919614 
L 647.047058 -470.011638 
L 651.981449 -465.697406 
L 656.91584 -461.790848 
L 661.850232 -458.989216 
L 666.784623 -457.198683 
L 671.719014 -455.87592 
L 676.653405 -455.013615 
L 681.587796 -454.667013 
L 686.522188 -454.519357 
L 691.456579 -454.320517 
L 696.39097 -454.112123 
L 701.325361 -453.961395 
L 706.259752 -453.898404 
L 711.194143 -453.874303 
L 716.128535 -453.84343 
L 721.062926 -453.789165 
L 725.997317 -453.748864 
L 730.931708 -453.780361 
L 735.866099 -453.851703 
L 740.800491 -453.847418 
L 745.734882 -453.769569 
L 750.669273 -453.717163 
L 750.669273 -453.687837 
L 750.669273 -453.687837 
L 745.734882 -453.635431 
L 740.800491 -453.557582 
L 735.866099 -453.553297 
L 730.931708 -453.624639 
L 725.997317 -453.656136 
L 721.062926 -453.615835 
L 716.128535 -453.56157 
L 711.194143 -453.530697 
L 706.259752 -453.506596 
L 701.325361 -453.443605 
L 696.39097 -453.292877 
L 691.456579 -453.084483 
L 686.522188 -452.885643 
L 681.587796 -452.737987 
L 676.653405 -452.391385 
L 671.719014 -451.52908 
L 666.784623 -450.206317 
L 661.850232 -448.415784 
L 656.91584 -445.614152 
L 651.981449 -441.707594 
L 647.047058 -437.393362 
L 642.112667 -432.485386 
L 637.178276 -426.907844 
L 632.243884 -421.524324 
L 627.309493 -417.19671 
L 622.375102 -414.14669 
L 617.440711 -412.4725 
L 612.50632 -412.516819 
L 607.571929 -413.856449 
L 602.637537 -416.912063 
L 597.703146 -422.300726 
L 592.768755 -428.189688 
L 587.834364 -433.144829 
L 582.899973 -437.551826 
L 577.965581 -441.345343 
L 573.03119 -444.165005 
L 568.096799 -446.247958 
L 563.162408 -447.955773 
L 558.228017 -449.401646 
L 553.293625 -450.412367 
L 548.359234 -450.931192 
L 543.424843 -451.288595 
L 538.490452 -451.805001 
L 533.556061 -452.423006 
L 528.62167 -452.847246 
L 523.687278 -453.032256 
L 518.752887 -453.192675 
L 513.818496 -453.368049 
L 508.884105 -453.411486 
L 503.949714 -453.359301 
L 499.015322 -453.37797 
L 494.080931 -453.424357 
L 489.14654 -453.410175 
L 484.212149 -453.377336 
L 479.277758 -453.384546 
L 474.343366 -453.413989 
L 469.408975 -453.434676 
L 464.474584 -453.482903 
L 459.540193 -453.563623 
L 454.605802 -453.632526 
L 449.671411 -453.67725 
L 444.737019 -453.696351 
L 439.802628 -453.693673 
L 434.868237 -453.670229 
L 429.933846 -453.638475 
L 424.999455 -453.632563 
L 420.065063 -453.659919 
L 415.130672 -453.688897 
L 410.196281 -453.700264 
L 405.26189 -453.70066 
L 400.327499 -453.691599 
L 395.393107 -453.670856 
L 390.458716 -453.661204 
L 385.524325 -453.678283 
L 380.589934 -453.696119 
L 375.655543 -453.701744 
L 370.721152 -453.70246 
L 365.78676 -453.702497 
L 360.852369 -453.702423 
L 355.917978 -453.701135 
L 350.983587 -453.69133 
L 346.049196 -453.65962 
L 341.114804 -453.62461 
L 336.180413 -453.635234 
L 331.246022 -453.674915 
L 326.311631 -453.697164 
L 321.37724 -453.702018 
L 316.442849 -453.70248 
L 311.508457 -453.7025 
L 306.574066 -453.7025 
L 301.639675 -453.7025 
L 296.705284 -453.702495 
L 291.770893 -453.702355 
L 286.836501 -453.700533 
L 281.90211 -453.690468 
L 276.967719 -453.669432 
L 272.033328 -453.66166 
L 267.098937 -453.679836 
L 262.164545 -453.696848 
z
" style="stroke: #424242; stroke-opacity: 0.85; stroke-width: 2.5"/>
    </defs>
    <g clip-path="url(#pcdc3168e8b)">
     <use xlink:href="#mb1a22a5f23" x="0" y="576" style="fill: #3492b8; fill-opacity: 0.85; stroke: #424242; stroke-opacity: 0.85; stroke-width: 2.5"/>
    </g>
   </g>
   <g id="PolyCollection_2">
    <defs>
     <path id="m1e3142d164" d="M 302.550849 -350.626339 
L 302.550849 -350.628661 
L 307.683218 -350.635679 
L 312.815588 -350.63081 
L 317.947958 -350.627585 
L 323.080328 -350.628561 
L 328.212697 -350.635559 
L 333.345067 -350.631017 
L 338.477437 -350.627588 
L 343.609807 -350.627582 
L 348.742177 -350.631402 
L 353.874546 -350.642602 
L 359.006916 -350.63512 
L 364.139286 -350.636146 
L 369.271656 -350.630283 
L 374.404025 -350.627553 
L 379.536395 -350.6275 
L 384.668765 -350.62756 
L 389.801135 -350.63048 
L 394.933504 -350.637831 
L 400.065874 -350.637437 
L 405.198244 -350.629708 
L 410.330614 -350.630296 
L 415.462983 -350.63615 
L 420.595353 -350.635099 
L 425.727723 -350.642611 
L 430.860093 -350.631447 
L 435.992462 -350.629269 
L 441.124832 -350.636116 
L 446.257202 -350.634105 
L 451.389572 -350.64541 
L 456.521941 -350.647815 
L 461.654311 -350.63655 
L 466.786681 -350.637377 
L 471.919051 -350.652262 
L 477.05142 -350.655624 
L 482.18379 -350.677555 
L 487.31616 -350.657159 
L 492.44853 -350.674463 
L 497.580899 -350.700939 
L 502.713269 -350.686361 
L 507.845639 -350.706324 
L 512.978009 -350.716773 
L 518.110378 -350.757814 
L 523.242748 -350.767061 
L 528.375118 -350.810169 
L 533.507488 -350.916472 
L 538.639857 -350.992863 
L 543.772227 -351.051816 
L 548.904597 -351.163128 
L 554.036967 -351.313691 
L 559.169336 -351.578134 
L 564.301706 -351.869281 
L 569.434076 -352.435744 
L 574.566446 -353.234043 
L 579.698816 -354.246866 
L 584.831185 -355.634412 
L 589.963555 -358.082249 
L 595.095925 -361.995664 
L 600.228295 -366.339883 
L 605.360664 -372.45297 
L 610.493034 -379.836421 
L 615.625404 -386.839878 
L 620.757774 -391.8575 
L 625.890143 -391.268579 
L 631.022513 -386.215193 
L 636.154883 -380.45576 
L 641.287253 -373.935357 
L 646.419622 -367.602907 
L 651.551992 -363.286899 
L 656.684362 -359.798736 
L 661.816732 -356.781406 
L 666.949101 -354.890875 
L 672.081471 -353.664126 
L 677.213841 -352.619682 
L 682.346211 -351.942972 
L 687.47858 -351.421807 
L 692.61095 -351.133138 
L 697.74332 -350.948386 
L 702.87569 -350.874501 
L 708.008059 -350.810129 
L 713.140429 -350.783172 
L 718.272799 -350.758203 
L 723.405169 -350.716176 
L 728.537538 -350.756458 
L 733.669908 -350.750064 
L 738.802278 -350.712377 
L 743.934648 -350.665469 
L 749.067017 -350.647308 
L 754.199387 -350.658951 
L 759.331757 -350.652535 
L 764.464127 -350.654549 
L 769.596496 -350.640597 
L 774.728866 -350.637647 
L 779.861236 -350.630576 
L 784.993606 -350.63497 
L 790.125976 -350.639763 
L 795.258345 -350.642386 
L 800.390715 -350.633816 
L 805.523085 -350.635727 
L 810.655455 -350.628661 
L 810.655455 -350.626339 
L 810.655455 -350.626339 
L 805.523085 -350.619273 
L 800.390715 -350.621184 
L 795.258345 -350.612614 
L 790.125976 -350.615237 
L 784.993606 -350.62003 
L 779.861236 -350.624424 
L 774.728866 -350.617353 
L 769.596496 -350.614403 
L 764.464127 -350.600451 
L 759.331757 -350.602465 
L 754.199387 -350.596049 
L 749.067017 -350.607692 
L 743.934648 -350.589531 
L 738.802278 -350.542623 
L 733.669908 -350.504936 
L 728.537538 -350.498542 
L 723.405169 -350.538824 
L 718.272799 -350.496797 
L 713.140429 -350.471828 
L 708.008059 -350.444871 
L 702.87569 -350.380499 
L 697.74332 -350.306614 
L 692.61095 -350.121862 
L 687.47858 -349.833193 
L 682.346211 -349.312028 
L 677.213841 -348.635318 
L 672.081471 -347.590874 
L 666.949101 -346.364125 
L 661.816732 -344.473594 
L 656.684362 -341.456264 
L 651.551992 -337.968101 
L 646.419622 -333.652093 
L 641.287253 -327.319643 
L 636.154883 -320.79924 
L 631.022513 -315.039807 
L 625.890143 -309.986421 
L 620.757774 -309.3975 
L 615.625404 -314.415122 
L 610.493034 -321.418579 
L 605.360664 -328.80203 
L 600.228295 -334.915117 
L 595.095925 -339.259336 
L 589.963555 -343.172751 
L 584.831185 -345.620588 
L 579.698816 -347.008134 
L 574.566446 -348.020957 
L 569.434076 -348.819256 
L 564.301706 -349.385719 
L 559.169336 -349.676866 
L 554.036967 -349.941309 
L 548.904597 -350.091872 
L 543.772227 -350.203184 
L 538.639857 -350.262137 
L 533.507488 -350.338528 
L 528.375118 -350.444831 
L 523.242748 -350.487939 
L 518.110378 -350.497186 
L 512.978009 -350.538227 
L 507.845639 -350.548676 
L 502.713269 -350.568639 
L 497.580899 -350.554061 
L 492.44853 -350.580537 
L 487.31616 -350.597841 
L 482.18379 -350.577445 
L 477.05142 -350.599376 
L 471.919051 -350.602738 
L 466.786681 -350.617623 
L 461.654311 -350.61845 
L 456.521941 -350.607185 
L 451.389572 -350.60959 
L 446.257202 -350.620895 
L 441.124832 -350.618884 
L 435.992462 -350.625731 
L 430.860093 -350.623553 
L 425.727723 -350.612389 
L 420.595353 -350.619901 
L 415.462983 -350.61885 
L 410.330614 -350.624704 
L 405.198244 -350.625292 
L 400.065874 -350.617563 
L 394.933504 -350.617169 
L 389.801135 -350.62452 
L 384.668765 -350.62744 
L 379.536395 -350.6275 
L 374.404025 -350.627447 
L 369.271656 -350.624717 
L 364.139286 -350.618854 
L 359.006916 -350.61988 
L 353.874546 -350.612398 
L 348.742177 -350.623598 
L 343.609807 -350.627418 
L 338.477437 -350.627412 
L 333.345067 -350.623983 
L 328.212697 -350.619441 
L 323.080328 -350.626439 
L 317.947958 -350.627415 
L 312.815588 -350.62419 
L 307.683218 -350.619321 
L 302.550849 -350.626339 
z
" style="stroke: #424242; stroke-opacity: 0.85; stroke-width: 2.5"/>
    </defs>
    <g clip-path="url(#pcdc3168e8b)">
     <use xlink:href="#m1e3142d164" x="0" y="576" style="fill: #df2020; fill-opacity: 0.85; stroke: #424242; stroke-opacity: 0.85; stroke-width: 2.5"/>
    </g>
   </g>
   <g id="PolyCollection_3">
    <defs>
     <path id="mc7389feb17" d="M 461.171688 -247.543239 
L 461.171688 -247.561761 
L 463.904724 -247.580546 
L 466.637759 -247.617622 
L 469.370794 -247.669682 
L 472.103829 -247.718074 
L 474.836865 -247.739256 
L 477.5699 -247.724516 
L 480.302935 -247.687519 
L 483.03597 -247.652469 
L 485.769006 -247.63595 
L 488.502041 -247.638639 
L 491.235076 -247.65113 
L 493.968111 -247.663182 
L 496.701146 -247.668648 
L 499.434182 -247.669198 
L 502.167217 -247.673802 
L 504.900252 -247.68914 
L 507.633287 -247.710555 
L 510.366323 -247.726912 
L 513.099358 -247.735127 
L 515.832393 -247.744323 
L 518.565428 -247.767459 
L 521.298464 -247.819184 
L 524.031499 -247.914293 
L 526.764534 -248.054615 
L 529.497569 -248.228 
L 532.230604 -248.423703 
L 534.96364 -248.630683 
L 537.696675 -248.833007 
L 540.42971 -249.037409 
L 543.162745 -249.288026 
L 545.895781 -249.619486 
L 548.628816 -250.010476 
L 551.361851 -250.407662 
L 554.094886 -250.78141 
L 556.827922 -251.158049 
L 559.560957 -251.619913 
L 562.293992 -252.266361 
L 565.027027 -253.1533 
L 567.760062 -254.260184 
L 570.493098 -255.511519 
L 573.226133 -256.836743 
L 575.959168 -258.223666 
L 578.692203 -259.726715 
L 581.425239 -261.404222 
L 584.158274 -263.226175 
L 586.891309 -265.110599 
L 589.624344 -267.086522 
L 592.35738 -269.290419 
L 595.090415 -271.751535 
L 597.82345 -274.343855 
L 600.556485 -276.986943 
L 603.28952 -279.707012 
L 606.022556 -282.440618 
L 608.755591 -284.921962 
L 611.488626 -286.854754 
L 614.221661 -288.126861 
L 616.954697 -288.770183 
L 619.687732 -288.7825 
L 622.420767 -288.081701 
L 625.153802 -286.581323 
L 627.886838 -284.304476 
L 630.619873 -281.479137 
L 633.352908 -278.432737 
L 636.085943 -275.317287 
L 638.818978 -272.07453 
L 641.552014 -268.74998 
L 644.285049 -265.632097 
L 647.018084 -262.958165 
L 649.751119 -260.6915 
L 652.484155 -258.671363 
L 655.21719 -256.798096 
L 657.950225 -255.066401 
L 660.68326 -253.553757 
L 663.416296 -252.35508 
L 666.149331 -251.479193 
L 668.882366 -250.825481 
L 671.615401 -250.254527 
L 674.348436 -249.685514 
L 677.081472 -249.145002 
L 679.814507 -248.713757 
L 682.547542 -248.432677 
L 685.280577 -248.270394 
L 688.013613 -248.159416 
L 690.746648 -248.052771 
L 693.479683 -247.951481 
L 696.212718 -247.873556 
L 698.945753 -247.81322 
L 701.678789 -247.752489 
L 704.411824 -247.692041 
L 707.144859 -247.646972 
L 709.877894 -247.62418 
L 712.61093 -247.616502 
L 715.343965 -247.613917 
L 718.077 -247.612062 
L 720.810035 -247.608386 
L 723.543071 -247.598841 
L 726.276106 -247.583471 
L 729.009141 -247.5683 
L 731.742176 -247.558504 
L 731.742176 -247.546496 
L 731.742176 -247.546496 
L 729.009141 -247.5367 
L 726.276106 -247.521529 
L 723.543071 -247.506159 
L 720.810035 -247.496614 
L 718.077 -247.492938 
L 715.343965 -247.491083 
L 712.61093 -247.488498 
L 709.877894 -247.48082 
L 707.144859 -247.458028 
L 704.411824 -247.412959 
L 701.678789 -247.352511 
L 698.945753 -247.29178 
L 696.212718 -247.231444 
L 693.479683 -247.153519 
L 690.746648 -247.052229 
L 688.013613 -246.945584 
L 685.280577 -246.834606 
L 682.547542 -246.672323 
L 679.814507 -246.391243 
L 677.081472 -245.959998 
L 674.348436 -245.419486 
L 671.615401 -244.850473 
L 668.882366 -244.279519 
L 666.149331 -243.625807 
L 663.416296 -242.74992 
L 660.68326 -241.551243 
L 657.950225 -240.038599 
L 655.21719 -238.306904 
L 652.484155 -236.433637 
L 649.751119 -234.4135 
L 647.018084 -232.146835 
L 644.285049 -229.472903 
L 641.552014 -226.35502 
L 638.818978 -223.03047 
L 636.085943 -219.787713 
L 633.352908 -216.672263 
L 630.619873 -213.625863 
L 627.886838 -210.800524 
L 625.153802 -208.523677 
L 622.420767 -207.023299 
L 619.687732 -206.3225 
L 616.954697 -206.334817 
L 614.221661 -206.978139 
L 611.488626 -208.250246 
L 608.755591 -210.183038 
L 606.022556 -212.664382 
L 603.28952 -215.397988 
L 600.556485 -218.118057 
L 597.82345 -220.761145 
L 595.090415 -223.353465 
L 592.35738 -225.814581 
L 589.624344 -228.018478 
L 586.891309 -229.994401 
L 584.158274 -231.878825 
L 581.425239 -233.700778 
L 578.692203 -235.378285 
L 575.959168 -236.881334 
L 573.226133 -238.268257 
L 570.493098 -239.593481 
L 567.760062 -240.844816 
L 565.027027 -241.9517 
L 562.293992 -242.838639 
L 559.560957 -243.485087 
L 556.827922 -243.946951 
L 554.094886 -244.32359 
L 551.361851 -244.697338 
L 548.628816 -245.094524 
L 545.895781 -245.485514 
L 543.162745 -245.816974 
L 540.42971 -246.067591 
L 537.696675 -246.271993 
L 534.96364 -246.474317 
L 532.230604 -246.681297 
L 529.497569 -246.877 
L 526.764534 -247.050385 
L 524.031499 -247.190707 
L 521.298464 -247.285816 
L 518.565428 -247.337541 
L 515.832393 -247.360677 
L 513.099358 -247.369873 
L 510.366323 -247.378088 
L 507.633287 -247.394445 
L 504.900252 -247.41586 
L 502.167217 -247.431198 
L 499.434182 -247.435802 
L 496.701146 -247.436352 
L 493.968111 -247.441818 
L 491.235076 -247.45387 
L 488.502041 -247.466361 
L 485.769006 -247.46905 
L 483.03597 -247.452531 
L 480.302935 -247.417481 
L 477.5699 -247.380484 
L 474.836865 -247.365744 
L 472.103829 -247.386926 
L 469.370794 -247.435318 
L 466.637759 -247.487378 
L 463.904724 -247.524454 
L 461.171688 -247.543239 
z
" style="stroke: #424242; stroke-opacity: 0.85; stroke-width: 2.5"/>
    </defs>
    <g clip-path="url(#pcdc3168e8b)">
     <use xlink:href="#mc7389feb17" x="0" y="576" style="fill: #586a83; fill-opacity: 0.85; stroke: #424242; stroke-opacity: 0.85; stroke-width: 2.5"/>
    </g>
   </g>
   <g id="PolyCollection_4">
    <defs>
     <path id="m7a91a2d5ae" d="M 524.77467 -144.471355 
L 524.77467 -144.483645 
L 527.624314 -144.497505 
L 530.473957 -144.519871 
L 533.323601 -144.539813 
L 536.173245 -144.548046 
L 539.022888 -144.548121 
L 541.872532 -144.558254 
L 544.722176 -144.601773 
L 547.571819 -144.66965 
L 550.421463 -144.717011 
L 553.271107 -144.724729 
L 556.12075 -144.727282 
L 558.970394 -144.756317 
L 561.820038 -144.807187 
L 564.669681 -144.883451 
L 567.519325 -145.000997 
L 570.368969 -145.192246 
L 573.218613 -145.538499 
L 576.068256 -146.037985 
L 578.9179 -146.540107 
L 581.767544 -147.005212 
L 584.617187 -147.598975 
L 587.466831 -148.462728 
L 590.316475 -149.655652 
L 593.166118 -151.239719 
L 596.015762 -153.360515 
L 598.865406 -156.151064 
L 601.715049 -159.4552 
L 604.564693 -162.929152 
L 607.414337 -166.377671 
L 610.26398 -169.976405 
L 613.113624 -173.951413 
L 615.963268 -177.899234 
L 618.812911 -181.175322 
L 621.662555 -183.601231 
L 624.512199 -185.151602 
L 627.361842 -185.7075 
L 630.211486 -185.319397 
L 633.06113 -184.11001 
L 635.910774 -182.061648 
L 638.760417 -179.315922 
L 641.610061 -176.19614 
L 644.459705 -172.815039 
L 647.309348 -169.218715 
L 650.158992 -165.67975 
L 653.008636 -162.368726 
L 655.858279 -159.18373 
L 658.707923 -156.26279 
L 661.557567 -154.034426 
L 664.40721 -152.542292 
L 667.256854 -151.366316 
L 670.106498 -150.227134 
L 672.956141 -149.185619 
L 675.805785 -148.397992 
L 678.655429 -147.896336 
L 681.505072 -147.494539 
L 684.354716 -146.977239 
L 687.20436 -146.379343 
L 690.054003 -145.88322 
L 692.903647 -145.538804 
L 695.753291 -145.268936 
L 698.602935 -145.037704 
L 701.452578 -144.877187 
L 704.302222 -144.794057 
L 707.151866 -144.750672 
L 710.001509 -144.723665 
L 712.851153 -144.718386 
L 715.700797 -144.735794 
L 718.55044 -144.742849 
L 721.400084 -144.715199 
L 724.249728 -144.686813 
L 727.099371 -144.686827 
L 729.949015 -144.694752 
L 732.798659 -144.682807 
L 735.648302 -144.640897 
L 738.497946 -144.584316 
L 741.34759 -144.545519 
L 744.197233 -144.533771 
L 747.046877 -144.53042 
L 749.896521 -144.527778 
L 752.746165 -144.529805 
L 755.595808 -144.530191 
L 758.445452 -144.527615 
L 761.295096 -144.528106 
L 764.144739 -144.52363 
L 766.994383 -144.507285 
L 769.844027 -144.489805 
L 772.69367 -144.480666 
L 775.543314 -144.478004 
L 778.392958 -144.47755 
L 781.242601 -144.477508 
L 784.092245 -144.477581 
L 786.941889 -144.478249 
L 789.791532 -144.481778 
L 792.641176 -144.492602 
L 795.49082 -144.510432 
L 798.340463 -144.521862 
L 801.190107 -144.514413 
L 804.039751 -144.496473 
L 806.889394 -144.483524 
L 806.889394 -144.471476 
L 806.889394 -144.471476 
L 804.039751 -144.458527 
L 801.190107 -144.440587 
L 798.340463 -144.433138 
L 795.49082 -144.444568 
L 792.641176 -144.462398 
L 789.791532 -144.473222 
L 786.941889 -144.476751 
L 784.092245 -144.477419 
L 781.242601 -144.477492 
L 778.392958 -144.47745 
L 775.543314 -144.476996 
L 772.69367 -144.474334 
L 769.844027 -144.465195 
L 766.994383 -144.447715 
L 764.144739 -144.43137 
L 761.295096 -144.426894 
L 758.445452 -144.427385 
L 755.595808 -144.424809 
L 752.746165 -144.425195 
L 749.896521 -144.427222 
L 747.046877 -144.42458 
L 744.197233 -144.421229 
L 741.34759 -144.409481 
L 738.497946 -144.370684 
L 735.648302 -144.314103 
L 732.798659 -144.272193 
L 729.949015 -144.260248 
L 727.099371 -144.268173 
L 724.249728 -144.268187 
L 721.400084 -144.239801 
L 718.55044 -144.212151 
L 715.700797 -144.219206 
L 712.851153 -144.236614 
L 710.001509 -144.231335 
L 707.151866 -144.204328 
L 704.302222 -144.160943 
L 701.452578 -144.077813 
L 698.602935 -143.917296 
L 695.753291 -143.686064 
L 692.903647 -143.416196 
L 690.054003 -143.07178 
L 687.20436 -142.575657 
L 684.354716 -141.977761 
L 681.505072 -141.460461 
L 678.655429 -141.058664 
L 675.805785 -140.557008 
L 672.956141 -139.769381 
L 670.106498 -138.727866 
L 667.256854 -137.588684 
L 664.40721 -136.412708 
L 661.557567 -134.920574 
L 658.707923 -132.69221 
L 655.858279 -129.77127 
L 653.008636 -126.586274 
L 650.158992 -123.27525 
L 647.309348 -119.736285 
L 644.459705 -116.139961 
L 641.610061 -112.75886 
L 638.760417 -109.639078 
L 635.910774 -106.893352 
L 633.06113 -104.84499 
L 630.211486 -103.635603 
L 627.361842 -103.2475 
L 624.512199 -103.803398 
L 621.662555 -105.353769 
L 618.812911 -107.779678 
L 615.963268 -111.055766 
L 613.113624 -115.003587 
L 610.26398 -118.978595 
L 607.414337 -122.577329 
L 604.564693 -126.025848 
L 601.715049 -129.4998 
L 598.865406 -132.803936 
L 596.015762 -135.594485 
L 593.166118 -137.715281 
L 590.316475 -139.299348 
L 587.466831 -140.492272 
L 584.617187 -141.356025 
L 581.767544 -141.949788 
L 578.9179 -142.414893 
L 576.068256 -142.917015 
L 573.218613 -143.416501 
L 570.368969 -143.762754 
L 567.519325 -143.954003 
L 564.669681 -144.071549 
L 561.820038 -144.147813 
L 558.970394 -144.198683 
L 556.12075 -144.227718 
L 553.271107 -144.230271 
L 550.421463 -144.237989 
L 547.571819 -144.28535 
L 544.722176 -144.353227 
L 541.872532 -144.396746 
L 539.022888 -144.406879 
L 536.173245 -144.406954 
L 533.323601 -144.415187 
L 530.473957 -144.435129 
L 527.624314 -144.457495 
L 524.77467 -144.471355 
z
" style="stroke: #424242; stroke-opacity: 0.85; stroke-width: 2.5"/>
    </defs>
    <g clip-path="url(#pcdc3168e8b)">
     <use xlink:href="#m7a91a2d5ae" x="0" y="576" style="fill: #a44451; fill-opacity: 0.85; stroke: #424242; stroke-opacity: 0.85; stroke-width: 2.5"/>
    </g>
   </g>
   <g id="line2d_5">
    <path d="M 550.698888 122.2975 
L 677.64056 122.2975 
" clip-path="url(#pcdc3168e8b)" style="fill: none; stroke: #424242; stroke-width: 3.75; stroke-linecap: round"/>
   </g>
   <g id="line2d_6">
    <path d="M 597.932998 122.2975 
L 630.406449 122.2975 
" clip-path="url(#pcdc3168e8b)" style="fill: none; stroke: #424242; stroke-width: 11.25; stroke-linecap: round"/>
   </g>
   <g id="line2d_7">
    <path d="M 612.693658 122.2975 
" clip-path="url(#pcdc3168e8b)" style="fill: none; stroke: #424242; stroke-width: 3; stroke-linecap: round"/>
    <defs>
     <path id="m7415019e41" d="M 0 4.6875 
L 0 -4.6875 
" style="stroke: #ffffff; stroke-width: 2.25"/>
    </defs>
    <g clip-path="url(#pcdc3168e8b)">
     <use xlink:href="#m7415019e41" x="612.693658" y="122.2975" style="fill: #ffffff; stroke: #ffffff; stroke-width: 2.25"/>
    </g>
   </g>
   <g id="line2d_8">
    <path d="M 577.268075 225.3725 
L 671.736296 225.3725 
" clip-path="url(#pcdc3168e8b)" style="fill: none; stroke: #424242; stroke-width: 3.75; stroke-linecap: round"/>
   </g>
   <g id="line2d_9">
    <path d="M 612.693658 225.3725 
L 636.310713 225.3725 
" clip-path="url(#pcdc3168e8b)" style="fill: none; stroke: #424242; stroke-width: 11.25; stroke-linecap: round"/>
   </g>
   <g id="line2d_10">
    <path d="M 624.502185 225.3725 
" clip-path="url(#pcdc3168e8b)" style="fill: none; stroke: #424242; stroke-width: 3; stroke-linecap: round"/>
    <g clip-path="url(#pcdc3168e8b)">
     <use xlink:href="#m7415019e41" x="624.502185" y="225.3725" style="fill: #ffffff; stroke: #ffffff; stroke-width: 2.25"/>
    </g>
   </g>
   <g id="line2d_11">
    <path d="M 550.698888 328.4475 
L 677.64056 328.4475 
" clip-path="url(#pcdc3168e8b)" style="fill: none; stroke: #424242; stroke-width: 3.75; stroke-linecap: round"/>
   </g>
   <g id="line2d_12">
    <path d="M 597.932998 328.4475 
L 630.406449 328.4475 
" clip-path="url(#pcdc3168e8b)" style="fill: none; stroke: #424242; stroke-width: 11.25; stroke-linecap: round"/>
   </g>
   <g id="line2d_13">
    <path d="M 615.64579 328.4475 
" clip-path="url(#pcdc3168e8b)" style="fill: none; stroke: #424242; stroke-width: 3; stroke-linecap: round"/>
    <g clip-path="url(#pcdc3168e8b)">
     <use xlink:href="#m7415019e41" x="615.64579" y="328.4475" style="fill: #ffffff; stroke: #ffffff; stroke-width: 2.25"/>
    </g>
   </g>
   <g id="line2d_14">
    <path d="M 577.268075 431.5225 
L 680.592692 431.5225 
" clip-path="url(#pcdc3168e8b)" style="fill: none; stroke: #424242; stroke-width: 3.75; stroke-linecap: round"/>
   </g>
   <g id="line2d_15">
    <path d="M 615.64579 431.5225 
L 642.214977 431.5225 
" clip-path="url(#pcdc3168e8b)" style="fill: none; stroke: #424242; stroke-width: 11.25; stroke-linecap: round"/>
   </g>
   <g id="line2d_16">
    <path d="M 630.406449 431.5225 
" clip-path="url(#pcdc3168e8b)" style="fill: none; stroke: #424242; stroke-width: 3; stroke-linecap: round"/>
    <g clip-path="url(#pcdc3168e8b)">
     <use xlink:href="#m7415019e41" x="630.406449" y="431.5225" style="fill: #ffffff; stroke: #ffffff; stroke-width: 2.25"/>
    </g>
   </g>
   <g id="patch_3">
    <path d="M 234.74 483.06 
L 234.74 70.76 
" style="fill: none; stroke: #000000; stroke-width: 2.5; stroke-linejoin: miter; stroke-linecap: square"/>
   </g>
   <g id="patch_4">
    <path d="M 234.74 483.06 
L 838.08 483.06 
" style="fill: none; stroke: #000000; stroke-width: 2.5; stroke-linejoin: miter; stroke-linecap: square"/>
   </g>
   <g id="text_10">
    <!-- Charge distribution -->
    <g style="fill: #262626" transform="translate(379.643437 50.76) scale(0.34 -0.34)">
     <defs>
      <path id="Arial-BoldMT-43" d="M 3397 1684 
L 4294 1400 
Q 4088 650 3608 286 
Q 3128 -78 2391 -78 
Q 1478 -78 890 545 
Q 303 1169 303 2250 
Q 303 3394 893 4026 
Q 1484 4659 2447 4659 
Q 3288 4659 3813 4163 
Q 4125 3869 4281 3319 
L 3366 3100 
Q 3284 3456 3026 3662 
Q 2769 3869 2400 3869 
Q 1891 3869 1573 3503 
Q 1256 3138 1256 2319 
Q 1256 1450 1568 1081 
Q 1881 713 2381 713 
Q 2750 713 3015 947 
Q 3281 1181 3397 1684 
z
" transform="scale(0.015625)"/>
      <path id="Arial-BoldMT-68" d="M 1334 4581 
L 1334 2897 
Q 1759 3394 2350 3394 
Q 2653 3394 2897 3281 
Q 3141 3169 3264 2994 
Q 3388 2819 3433 2606 
Q 3478 2394 3478 1947 
L 3478 0 
L 2600 0 
L 2600 1753 
Q 2600 2275 2550 2415 
Q 2500 2556 2373 2639 
Q 2247 2722 2056 2722 
Q 1838 2722 1666 2615 
Q 1494 2509 1414 2295 
Q 1334 2081 1334 1663 
L 1334 0 
L 456 0 
L 456 4581 
L 1334 4581 
z
" transform="scale(0.015625)"/>
      <path id="Arial-BoldMT-61" d="M 1116 2306 
L 319 2450 
Q 453 2931 781 3162 
Q 1109 3394 1756 3394 
Q 2344 3394 2631 3255 
Q 2919 3116 3036 2902 
Q 3153 2688 3153 2116 
L 3144 1091 
Q 3144 653 3186 445 
Q 3228 238 3344 0 
L 2475 0 
Q 2441 88 2391 259 
Q 2369 338 2359 363 
Q 2134 144 1878 34 
Q 1622 -75 1331 -75 
Q 819 -75 523 203 
Q 228 481 228 906 
Q 228 1188 362 1408 
Q 497 1628 739 1745 
Q 981 1863 1438 1950 
Q 2053 2066 2291 2166 
L 2291 2253 
Q 2291 2506 2166 2614 
Q 2041 2722 1694 2722 
Q 1459 2722 1328 2630 
Q 1197 2538 1116 2306 
z
M 2291 1594 
Q 2122 1538 1756 1459 
Q 1391 1381 1278 1306 
Q 1106 1184 1106 997 
Q 1106 813 1243 678 
Q 1381 544 1594 544 
Q 1831 544 2047 700 
Q 2206 819 2256 991 
Q 2291 1103 2291 1419 
L 2291 1594 
z
" transform="scale(0.015625)"/>
      <path id="Arial-BoldMT-72" d="M 1300 0 
L 422 0 
L 422 3319 
L 1238 3319 
L 1238 2847 
Q 1447 3181 1614 3287 
Q 1781 3394 1994 3394 
Q 2294 3394 2572 3228 
L 2300 2463 
Q 2078 2606 1888 2606 
Q 1703 2606 1575 2504 
Q 1447 2403 1373 2137 
Q 1300 1872 1300 1025 
L 1300 0 
z
" transform="scale(0.015625)"/>
      <path id="Arial-BoldMT-67" d="M 378 -219 
L 1381 -341 
Q 1406 -516 1497 -581 
Q 1622 -675 1891 -675 
Q 2234 -675 2406 -572 
Q 2522 -503 2581 -350 
Q 2622 -241 2622 53 
L 2622 538 
Q 2228 0 1628 0 
Q 959 0 569 566 
Q 263 1013 263 1678 
Q 263 2513 664 2953 
Q 1066 3394 1663 3394 
Q 2278 3394 2678 2853 
L 2678 3319 
L 3500 3319 
L 3500 341 
Q 3500 -247 3403 -537 
Q 3306 -828 3131 -993 
Q 2956 -1159 2664 -1253 
Q 2372 -1347 1925 -1347 
Q 1081 -1347 728 -1058 
Q 375 -769 375 -325 
Q 375 -281 378 -219 
z
M 1163 1728 
Q 1163 1200 1367 954 
Q 1572 709 1872 709 
Q 2194 709 2416 961 
Q 2638 1213 2638 1706 
Q 2638 2222 2425 2472 
Q 2213 2722 1888 2722 
Q 1572 2722 1367 2476 
Q 1163 2231 1163 1728 
z
" transform="scale(0.015625)"/>
      <path id="Arial-BoldMT-65" d="M 2381 1056 
L 3256 909 
Q 3088 428 2723 176 
Q 2359 -75 1813 -75 
Q 947 -75 531 491 
Q 203 944 203 1634 
Q 203 2459 634 2926 
Q 1066 3394 1725 3394 
Q 2466 3394 2894 2905 
Q 3322 2416 3303 1406 
L 1103 1406 
Q 1113 1016 1316 798 
Q 1519 581 1822 581 
Q 2028 581 2168 693 
Q 2309 806 2381 1056 
z
M 2431 1944 
Q 2422 2325 2234 2523 
Q 2047 2722 1778 2722 
Q 1491 2722 1303 2513 
Q 1116 2303 1119 1944 
L 2431 1944 
z
" transform="scale(0.015625)"/>
      <path id="Arial-BoldMT-20" transform="scale(0.015625)"/>
      <path id="Arial-BoldMT-64" d="M 3503 0 
L 2688 0 
L 2688 488 
Q 2484 203 2207 64 
Q 1931 -75 1650 -75 
Q 1078 -75 670 386 
Q 263 847 263 1672 
Q 263 2516 659 2955 
Q 1056 3394 1663 3394 
Q 2219 3394 2625 2931 
L 2625 4581 
L 3503 4581 
L 3503 0 
z
M 1159 1731 
Q 1159 1200 1306 963 
Q 1519 619 1900 619 
Q 2203 619 2415 876 
Q 2628 1134 2628 1647 
Q 2628 2219 2422 2470 
Q 2216 2722 1894 2722 
Q 1581 2722 1370 2473 
Q 1159 2225 1159 1731 
z
" transform="scale(0.015625)"/>
      <path id="Arial-BoldMT-69" d="M 459 3769 
L 459 4581 
L 1338 4581 
L 1338 3769 
L 459 3769 
z
M 459 0 
L 459 3319 
L 1338 3319 
L 1338 0 
L 459 0 
z
" transform="scale(0.015625)"/>
      <path id="Arial-BoldMT-73" d="M 150 947 
L 1031 1081 
Q 1088 825 1259 692 
Q 1431 559 1741 559 
Q 2081 559 2253 684 
Q 2369 772 2369 919 
Q 2369 1019 2306 1084 
Q 2241 1147 2013 1200 
Q 950 1434 666 1628 
Q 272 1897 272 2375 
Q 272 2806 612 3100 
Q 953 3394 1669 3394 
Q 2350 3394 2681 3172 
Q 3013 2950 3138 2516 
L 2309 2363 
Q 2256 2556 2107 2659 
Q 1959 2763 1684 2763 
Q 1338 2763 1188 2666 
Q 1088 2597 1088 2488 
Q 1088 2394 1175 2328 
Q 1294 2241 1995 2081 
Q 2697 1922 2975 1691 
Q 3250 1456 3250 1038 
Q 3250 581 2869 253 
Q 2488 -75 1741 -75 
Q 1063 -75 667 200 
Q 272 475 150 947 
z
" transform="scale(0.015625)"/>
      <path id="Arial-BoldMT-74" d="M 1981 3319 
L 1981 2619 
L 1381 2619 
L 1381 1281 
Q 1381 875 1398 808 
Q 1416 741 1477 697 
Q 1538 653 1625 653 
Q 1747 653 1978 738 
L 2053 56 
Q 1747 -75 1359 -75 
Q 1122 -75 931 4 
Q 741 84 652 211 
Q 563 338 528 553 
Q 500 706 500 1172 
L 500 2619 
L 97 2619 
L 97 3319 
L 500 3319 
L 500 3978 
L 1381 4491 
L 1381 3319 
L 1981 3319 
z
" transform="scale(0.015625)"/>
      <path id="Arial-BoldMT-62" d="M 422 0 
L 422 4581 
L 1300 4581 
L 1300 2931 
Q 1706 3394 2263 3394 
Q 2869 3394 3266 2955 
Q 3663 2516 3663 1694 
Q 3663 844 3258 384 
Q 2853 -75 2275 -75 
Q 1991 -75 1714 67 
Q 1438 209 1238 488 
L 1238 0 
L 422 0 
z
M 1294 1731 
Q 1294 1216 1456 969 
Q 1684 619 2063 619 
Q 2353 619 2558 867 
Q 2763 1116 2763 1650 
Q 2763 2219 2556 2470 
Q 2350 2722 2028 2722 
Q 1713 2722 1503 2476 
Q 1294 2231 1294 1731 
z
" transform="scale(0.015625)"/>
      <path id="Arial-BoldMT-75" d="M 2644 0 
L 2644 497 
Q 2463 231 2167 78 
Q 1872 -75 1544 -75 
Q 1209 -75 943 72 
Q 678 219 559 484 
Q 441 750 441 1219 
L 441 3319 
L 1319 3319 
L 1319 1794 
Q 1319 1094 1367 936 
Q 1416 778 1544 686 
Q 1672 594 1869 594 
Q 2094 594 2272 717 
Q 2450 841 2515 1023 
Q 2581 1206 2581 1919 
L 2581 3319 
L 3459 3319 
L 3459 0 
L 2644 0 
z
" transform="scale(0.015625)"/>
      <path id="Arial-BoldMT-6f" d="M 256 1706 
Q 256 2144 472 2553 
Q 688 2963 1083 3178 
Q 1478 3394 1966 3394 
Q 2719 3394 3200 2905 
Q 3681 2416 3681 1669 
Q 3681 916 3195 420 
Q 2709 -75 1972 -75 
Q 1516 -75 1102 131 
Q 688 338 472 736 
Q 256 1134 256 1706 
z
M 1156 1659 
Q 1156 1166 1390 903 
Q 1625 641 1969 641 
Q 2313 641 2545 903 
Q 2778 1166 2778 1666 
Q 2778 2153 2545 2415 
Q 2313 2678 1969 2678 
Q 1625 2678 1390 2415 
Q 1156 2153 1156 1659 
z
" transform="scale(0.015625)"/>
      <path id="Arial-BoldMT-6e" d="M 3478 0 
L 2600 0 
L 2600 1694 
Q 2600 2231 2544 2389 
Q 2488 2547 2361 2634 
Q 2234 2722 2056 2722 
Q 1828 2722 1647 2597 
Q 1466 2472 1398 2265 
Q 1331 2059 1331 1503 
L 1331 0 
L 453 0 
L 453 3319 
L 1269 3319 
L 1269 2831 
Q 1703 3394 2363 3394 
Q 2653 3394 2893 3289 
Q 3134 3184 3257 3021 
Q 3381 2859 3429 2653 
Q 3478 2447 3478 2063 
L 3478 0 
z
" transform="scale(0.015625)"/>
     </defs>
     <use xlink:href="#Arial-BoldMT-43"/>
     <use xlink:href="#Arial-BoldMT-68" x="72.216797"/>
     <use xlink:href="#Arial-BoldMT-61" x="133.300781"/>
     <use xlink:href="#Arial-BoldMT-72" x="188.916016"/>
     <use xlink:href="#Arial-BoldMT-67" x="227.832031"/>
     <use xlink:href="#Arial-BoldMT-65" x="288.916016"/>
     <use xlink:href="#Arial-BoldMT-20" x="344.53125"/>
     <use xlink:href="#Arial-BoldMT-64" x="372.314453"/>
     <use xlink:href="#Arial-BoldMT-69" x="433.398438"/>
     <use xlink:href="#Arial-BoldMT-73" x="461.181641"/>
     <use xlink:href="#Arial-BoldMT-74" x="516.796875"/>
     <use xlink:href="#Arial-BoldMT-72" x="550.097656"/>
     <use xlink:href="#Arial-BoldMT-69" x="589.013672"/>
     <use xlink:href="#Arial-BoldMT-62" x="616.796875"/>
     <use xlink:href="#Arial-BoldMT-75" x="677.880859"/>
     <use xlink:href="#Arial-BoldMT-74" x="738.964844"/>
     <use xlink:href="#Arial-BoldMT-69" x="772.265625"/>
     <use xlink:href="#Arial-BoldMT-6f" x="800.048828"/>
     <use xlink:href="#Arial-BoldMT-6e" x="861.132812"/>
    </g>
   </g>
  </g>
 </g>
 <defs>
  <clipPath id="pcdc3168e8b">
   <rect x="234.74" y="70.76" width="603.34" height="412.3"/>
  </clipPath>
 </defs>
</svg>
