<?xml version="1.0" encoding="utf-8" standalone="no"?>
<!DOCTYPE svg PUBLIC "-//W3C//DTD SVG 1.1//EN"
  "http://www.w3.org/Graphics/SVG/1.1/DTD/svg11.dtd">
<svg xmlns:xlink="http://www.w3.org/1999/xlink" width="864pt" height="576pt" viewBox="0 0 864 576" xmlns="http://www.w3.org/2000/svg" version="1.1">
 <metadata>
  <rdf:RDF xmlns:dc="http://purl.org/dc/elements/1.1/" xmlns:cc="http://creativecommons.org/ns#" xmlns:rdf="http://www.w3.org/1999/02/22-rdf-syntax-ns#">
   <cc:Work>
    <dc:type rdf:resource="http://purl.org/dc/dcmitype/StillImage"/>
    <dc:date>2024-08-21T09:13:44.935907</dc:date>
    <dc:format>image/svg+xml</dc:format>
    <dc:creator>
     <cc:Agent>
      <dc:title>Matplotlib v3.9.2, https://matplotlib.org/</dc:title>
     </cc:Agent>
    </dc:creator>
   </cc:Work>
  </rdf:RDF>
 </metadata>
 <defs>
  <style type="text/css">*{stroke-linejoin: round; stroke-linecap: butt}</style>
 </defs>
 <g id="figure_1">
  <g id="patch_1">
   <path d="M 0 576 
L 864 576 
L 864 0 
L 0 0 
z
" style="fill: #ffffff"/>
  </g>
  <g id="axes_1">
   <g id="patch_2">
    <path d="M 234.74 483.06 
L 817.155 483.06 
L 817.155 70.76 
L 234.74 70.76 
z
" style="fill: #ffffff"/>
   </g>
   <g id="matplotlib.axis_1">
    <g id="xtick_1">
     <g id="line2d_1">
      <path d="M 262.474048 483.06 
L 262.474048 70.76 
" clip-path="url(#pf74de8f0e2)" style="fill: none; stroke: #cccccc; stroke-width: 2; stroke-linecap: round"/>
     </g>
     <g id="text_1">
      <!-- 0 -->
      <g style="fill: #262626" transform="translate(255.522876 516.454531) scale(0.25 -0.25)">
       <defs>
        <path id="ArialMT-30" d="M 266 2259 
Q 266 3072 433 3567 
Q 600 4063 929 4331 
Q 1259 4600 1759 4600 
Q 2128 4600 2406 4451 
Q 2684 4303 2865 4023 
Q 3047 3744 3150 3342 
Q 3253 2941 3253 2259 
Q 3253 1453 3087 958 
Q 2922 463 2592 192 
Q 2263 -78 1759 -78 
Q 1097 -78 719 397 
Q 266 969 266 2259 
z
M 844 2259 
Q 844 1131 1108 757 
Q 1372 384 1759 384 
Q 2147 384 2411 759 
Q 2675 1134 2675 2259 
Q 2675 3391 2411 3762 
Q 2147 4134 1753 4134 
Q 1366 4134 1134 3806 
Q 844 3388 844 2259 
z
" transform="scale(0.015625)"/>
       </defs>
       <use xlink:href="#ArialMT-30"/>
      </g>
     </g>
    </g>
    <g id="xtick_2">
     <g id="line2d_2">
      <path d="M 401.144286 483.06 
L 401.144286 70.76 
" clip-path="url(#pf74de8f0e2)" style="fill: none; stroke: #cccccc; stroke-width: 2; stroke-linecap: round"/>
     </g>
     <g id="text_2">
      <!-- 50 -->
      <g style="fill: #262626" transform="translate(387.241942 516.454531) scale(0.25 -0.25)">
       <defs>
        <path id="ArialMT-35" d="M 266 1200 
L 856 1250 
Q 922 819 1161 601 
Q 1400 384 1738 384 
Q 2144 384 2425 690 
Q 2706 997 2706 1503 
Q 2706 1984 2436 2262 
Q 2166 2541 1728 2541 
Q 1456 2541 1237 2417 
Q 1019 2294 894 2097 
L 366 2166 
L 809 4519 
L 3088 4519 
L 3088 3981 
L 1259 3981 
L 1013 2750 
Q 1425 3038 1878 3038 
Q 2478 3038 2890 2622 
Q 3303 2206 3303 1553 
Q 3303 931 2941 478 
Q 2500 -78 1738 -78 
Q 1113 -78 717 272 
Q 322 622 266 1200 
z
" transform="scale(0.015625)"/>
       </defs>
       <use xlink:href="#ArialMT-35"/>
       <use xlink:href="#ArialMT-30" x="55.615234"/>
      </g>
     </g>
    </g>
    <g id="xtick_3">
     <g id="line2d_3">
      <path d="M 539.814524 483.06 
L 539.814524 70.76 
" clip-path="url(#pf74de8f0e2)" style="fill: none; stroke: #cccccc; stroke-width: 2; stroke-linecap: round"/>
     </g>
     <g id="text_3">
      <!-- 100 -->
      <g style="fill: #262626" transform="translate(518.961008 516.454531) scale(0.25 -0.25)">
       <defs>
        <path id="ArialMT-31" d="M 2384 0 
L 1822 0 
L 1822 3584 
Q 1619 3391 1289 3197 
Q 959 3003 697 2906 
L 697 3450 
Q 1169 3672 1522 3987 
Q 1875 4303 2022 4600 
L 2384 4600 
L 2384 0 
z
" transform="scale(0.015625)"/>
       </defs>
       <use xlink:href="#ArialMT-31"/>
       <use xlink:href="#ArialMT-30" x="55.615234"/>
       <use xlink:href="#ArialMT-30" x="111.230469"/>
      </g>
     </g>
    </g>
    <g id="xtick_4">
     <g id="line2d_4">
      <path d="M 678.484762 483.06 
L 678.484762 70.76 
" clip-path="url(#pf74de8f0e2)" style="fill: none; stroke: #cccccc; stroke-width: 2; stroke-linecap: round"/>
     </g>
     <g id="text_4">
      <!-- 150 -->
      <g style="fill: #262626" transform="translate(657.631246 516.454531) scale(0.25 -0.25)">
       <use xlink:href="#ArialMT-31"/>
       <use xlink:href="#ArialMT-35" x="55.615234"/>
       <use xlink:href="#ArialMT-30" x="111.230469"/>
      </g>
     </g>
    </g>
    <g id="xtick_5">
     <g id="line2d_5">
      <path d="M 817.155 483.06 
L 817.155 70.76 
" clip-path="url(#pf74de8f0e2)" style="fill: none; stroke: #cccccc; stroke-width: 2; stroke-linecap: round"/>
     </g>
     <g id="text_5">
      <!-- 200 -->
      <g style="fill: #262626" transform="translate(796.301484 516.454531) scale(0.25 -0.25)">
       <defs>
        <path id="ArialMT-32" d="M 3222 541 
L 3222 0 
L 194 0 
Q 188 203 259 391 
Q 375 700 629 1000 
Q 884 1300 1366 1694 
Q 2113 2306 2375 2664 
Q 2638 3022 2638 3341 
Q 2638 3675 2398 3904 
Q 2159 4134 1775 4134 
Q 1369 4134 1125 3890 
Q 881 3647 878 3216 
L 300 3275 
Q 359 3922 746 4261 
Q 1134 4600 1788 4600 
Q 2447 4600 2831 4234 
Q 3216 3869 3216 3328 
Q 3216 3053 3103 2787 
Q 2991 2522 2730 2228 
Q 2469 1934 1863 1422 
Q 1356 997 1212 845 
Q 1069 694 975 541 
L 3222 541 
z
" transform="scale(0.015625)"/>
       </defs>
       <use xlink:href="#ArialMT-32"/>
       <use xlink:href="#ArialMT-30" x="55.615234"/>
       <use xlink:href="#ArialMT-30" x="111.230469"/>
      </g>
     </g>
    </g>
    <g id="text_6">
     <!-- Number of salt bridges -->
     <g style="fill: #262626" transform="translate(400.205312 543.6225) scale(0.25 -0.25)">
      <defs>
       <path id="ArialMT-4e" d="M 488 0 
L 488 4581 
L 1109 4581 
L 3516 984 
L 3516 4581 
L 4097 4581 
L 4097 0 
L 3475 0 
L 1069 3600 
L 1069 0 
L 488 0 
z
" transform="scale(0.015625)"/>
       <path id="ArialMT-75" d="M 2597 0 
L 2597 488 
Q 2209 -75 1544 -75 
Q 1250 -75 995 37 
Q 741 150 617 320 
Q 494 491 444 738 
Q 409 903 409 1263 
L 409 3319 
L 972 3319 
L 972 1478 
Q 972 1038 1006 884 
Q 1059 663 1231 536 
Q 1403 409 1656 409 
Q 1909 409 2131 539 
Q 2353 669 2445 892 
Q 2538 1116 2538 1541 
L 2538 3319 
L 3100 3319 
L 3100 0 
L 2597 0 
z
" transform="scale(0.015625)"/>
       <path id="ArialMT-6d" d="M 422 0 
L 422 3319 
L 925 3319 
L 925 2853 
Q 1081 3097 1340 3245 
Q 1600 3394 1931 3394 
Q 2300 3394 2536 3241 
Q 2772 3088 2869 2813 
Q 3263 3394 3894 3394 
Q 4388 3394 4653 3120 
Q 4919 2847 4919 2278 
L 4919 0 
L 4359 0 
L 4359 2091 
Q 4359 2428 4304 2576 
Q 4250 2725 4106 2815 
Q 3963 2906 3769 2906 
Q 3419 2906 3187 2673 
Q 2956 2441 2956 1928 
L 2956 0 
L 2394 0 
L 2394 2156 
Q 2394 2531 2256 2718 
Q 2119 2906 1806 2906 
Q 1569 2906 1367 2781 
Q 1166 2656 1075 2415 
Q 984 2175 984 1722 
L 984 0 
L 422 0 
z
" transform="scale(0.015625)"/>
       <path id="ArialMT-62" d="M 941 0 
L 419 0 
L 419 4581 
L 981 4581 
L 981 2947 
Q 1338 3394 1891 3394 
Q 2197 3394 2470 3270 
Q 2744 3147 2920 2923 
Q 3097 2700 3197 2384 
Q 3297 2069 3297 1709 
Q 3297 856 2875 390 
Q 2453 -75 1863 -75 
Q 1275 -75 941 416 
L 941 0 
z
M 934 1684 
Q 934 1088 1097 822 
Q 1363 388 1816 388 
Q 2184 388 2453 708 
Q 2722 1028 2722 1663 
Q 2722 2313 2464 2622 
Q 2206 2931 1841 2931 
Q 1472 2931 1203 2611 
Q 934 2291 934 1684 
z
" transform="scale(0.015625)"/>
       <path id="ArialMT-65" d="M 2694 1069 
L 3275 997 
Q 3138 488 2766 206 
Q 2394 -75 1816 -75 
Q 1088 -75 661 373 
Q 234 822 234 1631 
Q 234 2469 665 2931 
Q 1097 3394 1784 3394 
Q 2450 3394 2872 2941 
Q 3294 2488 3294 1666 
Q 3294 1616 3291 1516 
L 816 1516 
Q 847 969 1125 678 
Q 1403 388 1819 388 
Q 2128 388 2347 550 
Q 2566 713 2694 1069 
z
M 847 1978 
L 2700 1978 
Q 2663 2397 2488 2606 
Q 2219 2931 1791 2931 
Q 1403 2931 1139 2672 
Q 875 2413 847 1978 
z
" transform="scale(0.015625)"/>
       <path id="ArialMT-72" d="M 416 0 
L 416 3319 
L 922 3319 
L 922 2816 
Q 1116 3169 1280 3281 
Q 1444 3394 1641 3394 
Q 1925 3394 2219 3213 
L 2025 2691 
Q 1819 2813 1613 2813 
Q 1428 2813 1281 2702 
Q 1134 2591 1072 2394 
Q 978 2094 978 1738 
L 978 0 
L 416 0 
z
" transform="scale(0.015625)"/>
       <path id="ArialMT-20" transform="scale(0.015625)"/>
       <path id="ArialMT-6f" d="M 213 1659 
Q 213 2581 725 3025 
Q 1153 3394 1769 3394 
Q 2453 3394 2887 2945 
Q 3322 2497 3322 1706 
Q 3322 1066 3130 698 
Q 2938 331 2570 128 
Q 2203 -75 1769 -75 
Q 1072 -75 642 372 
Q 213 819 213 1659 
z
M 791 1659 
Q 791 1022 1069 705 
Q 1347 388 1769 388 
Q 2188 388 2466 706 
Q 2744 1025 2744 1678 
Q 2744 2294 2464 2611 
Q 2184 2928 1769 2928 
Q 1347 2928 1069 2612 
Q 791 2297 791 1659 
z
" transform="scale(0.015625)"/>
       <path id="ArialMT-66" d="M 556 0 
L 556 2881 
L 59 2881 
L 59 3319 
L 556 3319 
L 556 3672 
Q 556 4006 616 4169 
Q 697 4388 901 4523 
Q 1106 4659 1475 4659 
Q 1713 4659 2000 4603 
L 1916 4113 
Q 1741 4144 1584 4144 
Q 1328 4144 1222 4034 
Q 1116 3925 1116 3625 
L 1116 3319 
L 1763 3319 
L 1763 2881 
L 1116 2881 
L 1116 0 
L 556 0 
z
" transform="scale(0.015625)"/>
       <path id="ArialMT-73" d="M 197 991 
L 753 1078 
Q 800 744 1014 566 
Q 1228 388 1613 388 
Q 2000 388 2187 545 
Q 2375 703 2375 916 
Q 2375 1106 2209 1216 
Q 2094 1291 1634 1406 
Q 1016 1563 777 1677 
Q 538 1791 414 1992 
Q 291 2194 291 2438 
Q 291 2659 392 2848 
Q 494 3038 669 3163 
Q 800 3259 1026 3326 
Q 1253 3394 1513 3394 
Q 1903 3394 2198 3281 
Q 2494 3169 2634 2976 
Q 2775 2784 2828 2463 
L 2278 2388 
Q 2241 2644 2061 2787 
Q 1881 2931 1553 2931 
Q 1166 2931 1000 2803 
Q 834 2675 834 2503 
Q 834 2394 903 2306 
Q 972 2216 1119 2156 
Q 1203 2125 1616 2013 
Q 2213 1853 2448 1751 
Q 2684 1650 2818 1456 
Q 2953 1263 2953 975 
Q 2953 694 2789 445 
Q 2625 197 2315 61 
Q 2006 -75 1616 -75 
Q 969 -75 630 194 
Q 291 463 197 991 
z
" transform="scale(0.015625)"/>
       <path id="ArialMT-61" d="M 2588 409 
Q 2275 144 1986 34 
Q 1697 -75 1366 -75 
Q 819 -75 525 192 
Q 231 459 231 875 
Q 231 1119 342 1320 
Q 453 1522 633 1644 
Q 813 1766 1038 1828 
Q 1203 1872 1538 1913 
Q 2219 1994 2541 2106 
Q 2544 2222 2544 2253 
Q 2544 2597 2384 2738 
Q 2169 2928 1744 2928 
Q 1347 2928 1158 2789 
Q 969 2650 878 2297 
L 328 2372 
Q 403 2725 575 2942 
Q 747 3159 1072 3276 
Q 1397 3394 1825 3394 
Q 2250 3394 2515 3294 
Q 2781 3194 2906 3042 
Q 3031 2891 3081 2659 
Q 3109 2516 3109 2141 
L 3109 1391 
Q 3109 606 3145 398 
Q 3181 191 3288 0 
L 2700 0 
Q 2613 175 2588 409 
z
M 2541 1666 
Q 2234 1541 1622 1453 
Q 1275 1403 1131 1340 
Q 988 1278 909 1158 
Q 831 1038 831 891 
Q 831 666 1001 516 
Q 1172 366 1500 366 
Q 1825 366 2078 508 
Q 2331 650 2450 897 
Q 2541 1088 2541 1459 
L 2541 1666 
z
" transform="scale(0.015625)"/>
       <path id="ArialMT-6c" d="M 409 0 
L 409 4581 
L 972 4581 
L 972 0 
L 409 0 
z
" transform="scale(0.015625)"/>
       <path id="ArialMT-74" d="M 1650 503 
L 1731 6 
Q 1494 -44 1306 -44 
Q 1000 -44 831 53 
Q 663 150 594 308 
Q 525 466 525 972 
L 525 2881 
L 113 2881 
L 113 3319 
L 525 3319 
L 525 4141 
L 1084 4478 
L 1084 3319 
L 1650 3319 
L 1650 2881 
L 1084 2881 
L 1084 941 
Q 1084 700 1114 631 
Q 1144 563 1211 522 
Q 1278 481 1403 481 
Q 1497 481 1650 503 
z
" transform="scale(0.015625)"/>
       <path id="ArialMT-69" d="M 425 3934 
L 425 4581 
L 988 4581 
L 988 3934 
L 425 3934 
z
M 425 0 
L 425 3319 
L 988 3319 
L 988 0 
L 425 0 
z
" transform="scale(0.015625)"/>
       <path id="ArialMT-64" d="M 2575 0 
L 2575 419 
Q 2259 -75 1647 -75 
Q 1250 -75 917 144 
Q 584 363 401 755 
Q 219 1147 219 1656 
Q 219 2153 384 2558 
Q 550 2963 881 3178 
Q 1213 3394 1622 3394 
Q 1922 3394 2156 3267 
Q 2391 3141 2538 2938 
L 2538 4581 
L 3097 4581 
L 3097 0 
L 2575 0 
z
M 797 1656 
Q 797 1019 1065 703 
Q 1334 388 1700 388 
Q 2069 388 2326 689 
Q 2584 991 2584 1609 
Q 2584 2291 2321 2609 
Q 2059 2928 1675 2928 
Q 1300 2928 1048 2622 
Q 797 2316 797 1656 
z
" transform="scale(0.015625)"/>
       <path id="ArialMT-67" d="M 319 -275 
L 866 -356 
Q 900 -609 1056 -725 
Q 1266 -881 1628 -881 
Q 2019 -881 2231 -725 
Q 2444 -569 2519 -288 
Q 2563 -116 2559 434 
Q 2191 0 1641 0 
Q 956 0 581 494 
Q 206 988 206 1678 
Q 206 2153 378 2554 
Q 550 2956 876 3175 
Q 1203 3394 1644 3394 
Q 2231 3394 2613 2919 
L 2613 3319 
L 3131 3319 
L 3131 450 
Q 3131 -325 2973 -648 
Q 2816 -972 2473 -1159 
Q 2131 -1347 1631 -1347 
Q 1038 -1347 672 -1080 
Q 306 -813 319 -275 
z
M 784 1719 
Q 784 1066 1043 766 
Q 1303 466 1694 466 
Q 2081 466 2343 764 
Q 2606 1063 2606 1700 
Q 2606 2309 2336 2618 
Q 2066 2928 1684 2928 
Q 1309 2928 1046 2623 
Q 784 2319 784 1719 
z
" transform="scale(0.015625)"/>
      </defs>
      <use xlink:href="#ArialMT-4e"/>
      <use xlink:href="#ArialMT-75" x="72.216797"/>
      <use xlink:href="#ArialMT-6d" x="127.832031"/>
      <use xlink:href="#ArialMT-62" x="211.132812"/>
      <use xlink:href="#ArialMT-65" x="266.748047"/>
      <use xlink:href="#ArialMT-72" x="322.363281"/>
      <use xlink:href="#ArialMT-20" x="355.664062"/>
      <use xlink:href="#ArialMT-6f" x="383.447266"/>
      <use xlink:href="#ArialMT-66" x="439.0625"/>
      <use xlink:href="#ArialMT-20" x="466.845703"/>
      <use xlink:href="#ArialMT-73" x="494.628906"/>
      <use xlink:href="#ArialMT-61" x="544.628906"/>
      <use xlink:href="#ArialMT-6c" x="600.244141"/>
      <use xlink:href="#ArialMT-74" x="622.460938"/>
      <use xlink:href="#ArialMT-20" x="650.244141"/>
      <use xlink:href="#ArialMT-62" x="678.027344"/>
      <use xlink:href="#ArialMT-72" x="733.642578"/>
      <use xlink:href="#ArialMT-69" x="766.943359"/>
      <use xlink:href="#ArialMT-64" x="789.160156"/>
      <use xlink:href="#ArialMT-67" x="844.775391"/>
      <use xlink:href="#ArialMT-65" x="900.390625"/>
      <use xlink:href="#ArialMT-73" x="956.005859"/>
     </g>
    </g>
   </g>
   <g id="matplotlib.axis_2">
    <g id="ytick_1">
     <g id="text_7">
      <!-- E. coli -->
      <g style="fill: #262626" transform="translate(156.608125 130.528984) scale(0.23 -0.23)">
       <defs>
        <path id="ArialMT-45" d="M 506 0 
L 506 4581 
L 3819 4581 
L 3819 4041 
L 1113 4041 
L 1113 2638 
L 3647 2638 
L 3647 2100 
L 1113 2100 
L 1113 541 
L 3925 541 
L 3925 0 
L 506 0 
z
" transform="scale(0.015625)"/>
        <path id="ArialMT-2e" d="M 581 0 
L 581 641 
L 1222 641 
L 1222 0 
L 581 0 
z
" transform="scale(0.015625)"/>
        <path id="ArialMT-63" d="M 2588 1216 
L 3141 1144 
Q 3050 572 2676 248 
Q 2303 -75 1759 -75 
Q 1078 -75 664 370 
Q 250 816 250 1647 
Q 250 2184 428 2587 
Q 606 2991 970 3192 
Q 1334 3394 1763 3394 
Q 2303 3394 2647 3120 
Q 2991 2847 3088 2344 
L 2541 2259 
Q 2463 2594 2264 2762 
Q 2066 2931 1784 2931 
Q 1359 2931 1093 2626 
Q 828 2322 828 1663 
Q 828 994 1084 691 
Q 1341 388 1753 388 
Q 2084 388 2306 591 
Q 2528 794 2588 1216 
z
" transform="scale(0.015625)"/>
       </defs>
       <use xlink:href="#ArialMT-45"/>
       <use xlink:href="#ArialMT-2e" x="66.699219"/>
       <use xlink:href="#ArialMT-20" x="94.482422"/>
       <use xlink:href="#ArialMT-63" x="122.265625"/>
       <use xlink:href="#ArialMT-6f" x="172.265625"/>
       <use xlink:href="#ArialMT-6c" x="227.880859"/>
       <use xlink:href="#ArialMT-69" x="250.097656"/>
      </g>
     </g>
    </g>
    <g id="ytick_2">
     <g id="text_8">
      <!-- Hyperthermophiles -->
      <g style="fill: #262626" transform="translate(26.223281 233.603984) scale(0.23 -0.23)">
       <defs>
        <path id="ArialMT-48" d="M 513 0 
L 513 4581 
L 1119 4581 
L 1119 2700 
L 3500 2700 
L 3500 4581 
L 4106 4581 
L 4106 0 
L 3500 0 
L 3500 2159 
L 1119 2159 
L 1119 0 
L 513 0 
z
" transform="scale(0.015625)"/>
        <path id="ArialMT-79" d="M 397 -1278 
L 334 -750 
Q 519 -800 656 -800 
Q 844 -800 956 -737 
Q 1069 -675 1141 -563 
Q 1194 -478 1313 -144 
Q 1328 -97 1363 -6 
L 103 3319 
L 709 3319 
L 1400 1397 
Q 1534 1031 1641 628 
Q 1738 1016 1872 1384 
L 2581 3319 
L 3144 3319 
L 1881 -56 
Q 1678 -603 1566 -809 
Q 1416 -1088 1222 -1217 
Q 1028 -1347 759 -1347 
Q 597 -1347 397 -1278 
z
" transform="scale(0.015625)"/>
        <path id="ArialMT-70" d="M 422 -1272 
L 422 3319 
L 934 3319 
L 934 2888 
Q 1116 3141 1344 3267 
Q 1572 3394 1897 3394 
Q 2322 3394 2647 3175 
Q 2972 2956 3137 2557 
Q 3303 2159 3303 1684 
Q 3303 1175 3120 767 
Q 2938 359 2589 142 
Q 2241 -75 1856 -75 
Q 1575 -75 1351 44 
Q 1128 163 984 344 
L 984 -1272 
L 422 -1272 
z
M 931 1641 
Q 931 1000 1190 694 
Q 1450 388 1819 388 
Q 2194 388 2461 705 
Q 2728 1022 2728 1688 
Q 2728 2322 2467 2637 
Q 2206 2953 1844 2953 
Q 1484 2953 1207 2617 
Q 931 2281 931 1641 
z
" transform="scale(0.015625)"/>
        <path id="ArialMT-68" d="M 422 0 
L 422 4581 
L 984 4581 
L 984 2938 
Q 1378 3394 1978 3394 
Q 2347 3394 2619 3248 
Q 2891 3103 3008 2847 
Q 3125 2591 3125 2103 
L 3125 0 
L 2563 0 
L 2563 2103 
Q 2563 2525 2380 2717 
Q 2197 2909 1863 2909 
Q 1613 2909 1392 2779 
Q 1172 2650 1078 2428 
Q 984 2206 984 1816 
L 984 0 
L 422 0 
z
" transform="scale(0.015625)"/>
       </defs>
       <use xlink:href="#ArialMT-48"/>
       <use xlink:href="#ArialMT-79" x="72.216797"/>
       <use xlink:href="#ArialMT-70" x="122.216797"/>
       <use xlink:href="#ArialMT-65" x="177.832031"/>
       <use xlink:href="#ArialMT-72" x="233.447266"/>
       <use xlink:href="#ArialMT-74" x="266.748047"/>
       <use xlink:href="#ArialMT-68" x="294.53125"/>
       <use xlink:href="#ArialMT-65" x="350.146484"/>
       <use xlink:href="#ArialMT-72" x="405.761719"/>
       <use xlink:href="#ArialMT-6d" x="439.0625"/>
       <use xlink:href="#ArialMT-6f" x="522.363281"/>
       <use xlink:href="#ArialMT-70" x="577.978516"/>
       <use xlink:href="#ArialMT-68" x="633.59375"/>
       <use xlink:href="#ArialMT-69" x="689.208984"/>
       <use xlink:href="#ArialMT-6c" x="711.425781"/>
       <use xlink:href="#ArialMT-65" x="733.642578"/>
       <use xlink:href="#ArialMT-73" x="789.257812"/>
      </g>
     </g>
    </g>
    <g id="ytick_3">
     <g id="text_9">
      <!-- E. coli -->
      <g style="fill: #262626" transform="translate(156.608125 313.998469) scale(0.23 -0.23)">
       <use xlink:href="#ArialMT-45"/>
       <use xlink:href="#ArialMT-2e" x="66.699219"/>
       <use xlink:href="#ArialMT-20" x="94.482422"/>
       <use xlink:href="#ArialMT-63" x="122.265625"/>
       <use xlink:href="#ArialMT-6f" x="172.265625"/>
       <use xlink:href="#ArialMT-6c" x="227.880859"/>
       <use xlink:href="#ArialMT-69" x="250.097656"/>
      </g>
      <!-- ProteinMPNN -->
      <g style="fill: #262626" transform="translate(78.648906 338.325281) scale(0.23 -0.23)">
       <defs>
        <path id="ArialMT-50" d="M 494 0 
L 494 4581 
L 2222 4581 
Q 2678 4581 2919 4538 
Q 3256 4481 3484 4323 
Q 3713 4166 3852 3881 
Q 3991 3597 3991 3256 
Q 3991 2672 3619 2267 
Q 3247 1863 2275 1863 
L 1100 1863 
L 1100 0 
L 494 0 
z
M 1100 2403 
L 2284 2403 
Q 2872 2403 3119 2622 
Q 3366 2841 3366 3238 
Q 3366 3525 3220 3729 
Q 3075 3934 2838 4000 
Q 2684 4041 2272 4041 
L 1100 4041 
L 1100 2403 
z
" transform="scale(0.015625)"/>
        <path id="ArialMT-6e" d="M 422 0 
L 422 3319 
L 928 3319 
L 928 2847 
Q 1294 3394 1984 3394 
Q 2284 3394 2536 3286 
Q 2788 3178 2913 3003 
Q 3038 2828 3088 2588 
Q 3119 2431 3119 2041 
L 3119 0 
L 2556 0 
L 2556 2019 
Q 2556 2363 2490 2533 
Q 2425 2703 2258 2804 
Q 2091 2906 1866 2906 
Q 1506 2906 1245 2678 
Q 984 2450 984 1813 
L 984 0 
L 422 0 
z
" transform="scale(0.015625)"/>
        <path id="ArialMT-4d" d="M 475 0 
L 475 4581 
L 1388 4581 
L 2472 1338 
Q 2622 884 2691 659 
Q 2769 909 2934 1394 
L 4031 4581 
L 4847 4581 
L 4847 0 
L 4263 0 
L 4263 3834 
L 2931 0 
L 2384 0 
L 1059 3900 
L 1059 0 
L 475 0 
z
" transform="scale(0.015625)"/>
       </defs>
       <use xlink:href="#ArialMT-50"/>
       <use xlink:href="#ArialMT-72" x="66.699219"/>
       <use xlink:href="#ArialMT-6f" x="100"/>
       <use xlink:href="#ArialMT-74" x="155.615234"/>
       <use xlink:href="#ArialMT-65" x="183.398438"/>
       <use xlink:href="#ArialMT-69" x="239.013672"/>
       <use xlink:href="#ArialMT-6e" x="261.230469"/>
       <use xlink:href="#ArialMT-4d" x="316.845703"/>
       <use xlink:href="#ArialMT-50" x="400.146484"/>
       <use xlink:href="#ArialMT-4e" x="466.845703"/>
       <use xlink:href="#ArialMT-4e" x="539.0625"/>
      </g>
      <!-- designs -->
      <g style="fill: #262626" transform="translate(139.969062 362.652094) scale(0.23 -0.23)">
       <use xlink:href="#ArialMT-64"/>
       <use xlink:href="#ArialMT-65" x="55.615234"/>
       <use xlink:href="#ArialMT-73" x="111.230469"/>
       <use xlink:href="#ArialMT-69" x="161.230469"/>
       <use xlink:href="#ArialMT-67" x="183.447266"/>
       <use xlink:href="#ArialMT-6e" x="239.0625"/>
       <use xlink:href="#ArialMT-73" x="294.677734"/>
      </g>
     </g>
    </g>
    <g id="ytick_4">
     <g id="text_10">
      <!-- E. coli -->
      <g style="fill: #262626" transform="translate(156.608125 416.938703) scale(0.23 -0.23)">
       <use xlink:href="#ArialMT-45"/>
       <use xlink:href="#ArialMT-2e" x="66.699219"/>
       <use xlink:href="#ArialMT-20" x="94.482422"/>
       <use xlink:href="#ArialMT-63" x="122.265625"/>
       <use xlink:href="#ArialMT-6f" x="172.265625"/>
       <use xlink:href="#ArialMT-6c" x="227.880859"/>
       <use xlink:href="#ArialMT-69" x="250.097656"/>
      </g>
      <!-- HyperMPNN -->
      <g style="fill: #262626" transform="translate(90.170469 441.265516) scale(0.23 -0.23)">
       <use xlink:href="#ArialMT-48"/>
       <use xlink:href="#ArialMT-79" x="72.216797"/>
       <use xlink:href="#ArialMT-70" x="122.216797"/>
       <use xlink:href="#ArialMT-65" x="177.832031"/>
       <use xlink:href="#ArialMT-72" x="233.447266"/>
       <use xlink:href="#ArialMT-4d" x="266.748047"/>
       <use xlink:href="#ArialMT-50" x="350.048828"/>
       <use xlink:href="#ArialMT-4e" x="416.748047"/>
       <use xlink:href="#ArialMT-4e" x="488.964844"/>
      </g>
      <!-- designs -->
      <g style="fill: #262626" transform="translate(139.969062 465.861859) scale(0.23 -0.23)">
       <use xlink:href="#ArialMT-64"/>
       <use xlink:href="#ArialMT-65" x="55.615234"/>
       <use xlink:href="#ArialMT-73" x="111.230469"/>
       <use xlink:href="#ArialMT-69" x="161.230469"/>
       <use xlink:href="#ArialMT-67" x="183.447266"/>
       <use xlink:href="#ArialMT-6e" x="239.0625"/>
       <use xlink:href="#ArialMT-73" x="294.677734"/>
      </g>
     </g>
    </g>
   </g>
   <g id="PolyCollection_1">
    <defs>
     <path id="m6e16173b7a" d="M 246.757394 -452.418738 
L 246.757394 -454.986262 
L 250.688733 -457.236768 
L 254.620071 -461.610146 
L 258.55141 -468.30472 
L 262.482749 -476.414222 
L 266.414087 -484.220624 
L 270.345426 -490.176389 
L 274.276764 -493.656897 
L 278.208103 -494.9325 
L 282.139442 -494.667822 
L 286.07078 -493.481092 
L 290.002119 -491.782918 
L 293.933457 -489.813477 
L 297.864796 -487.705638 
L 301.796135 -485.506039 
L 305.727473 -483.223143 
L 309.658812 -480.920364 
L 313.59015 -478.72286 
L 317.521489 -476.686798 
L 321.452828 -474.712675 
L 325.384166 -472.646271 
L 329.315505 -470.450248 
L 333.246843 -468.262004 
L 337.178182 -466.301797 
L 341.109521 -464.718934 
L 345.040859 -463.500794 
L 348.972198 -462.51557 
L 352.903536 -461.628952 
L 356.834875 -460.778972 
L 360.766214 -459.976563 
L 364.697552 -459.274742 
L 368.628891 -458.728493 
L 372.560229 -458.34496 
L 376.491568 -458.058257 
L 380.422907 -457.769039 
L 384.354245 -457.421366 
L 388.285584 -457.041919 
L 392.216922 -456.705861 
L 396.148261 -456.463756 
L 400.079599 -456.295376 
L 404.010938 -456.133194 
L 407.942277 -455.93103 
L 411.873615 -455.700582 
L 415.804954 -455.47936 
L 419.736292 -455.283977 
L 423.667631 -455.109011 
L 427.59897 -454.954853 
L 431.530308 -454.834898 
L 435.461647 -454.755161 
L 439.392985 -454.698984 
L 443.324324 -454.639235 
L 447.255663 -454.564638 
L 451.187001 -454.489588 
L 455.11834 -454.435638 
L 459.049678 -454.405653 
L 462.981017 -454.380915 
L 466.912356 -454.343464 
L 470.843694 -454.293123 
L 474.775033 -454.23844 
L 478.706371 -454.180417 
L 482.63771 -454.113102 
L 486.569049 -454.034105 
L 490.500387 -453.949426 
L 494.431726 -453.87238 
L 498.363064 -453.81841 
L 502.294403 -453.795326 
L 506.225742 -453.797118 
L 510.15708 -453.809542 
L 514.088419 -453.822322 
L 518.019757 -453.835668 
L 521.951096 -453.855751 
L 525.882435 -453.884491 
L 529.813773 -453.913568 
L 533.745112 -453.928692 
L 537.67645 -453.920993 
L 541.607789 -453.894165 
L 545.539128 -453.860529 
L 549.470466 -453.832948 
L 553.401805 -453.820626 
L 557.333143 -453.826188 
L 561.264482 -453.842039 
L 565.195821 -453.852824 
L 569.127159 -453.846379 
L 573.058498 -453.823033 
L 576.989836 -453.793725 
L 580.921175 -453.769584 
L 584.852514 -453.753579 
L 588.783852 -453.741688 
L 592.715191 -453.730419 
L 596.646529 -453.721343 
L 600.577868 -453.719228 
L 604.509207 -453.728109 
L 608.440545 -453.748213 
L 612.371884 -453.773486 
L 616.303222 -453.792115 
L 620.234561 -453.793297 
L 624.165899 -453.775966 
L 628.097238 -453.749768 
L 632.028577 -453.726582 
L 635.959915 -453.712179 
L 635.959915 -453.692821 
L 635.959915 -453.692821 
L 632.028577 -453.678418 
L 628.097238 -453.655232 
L 624.165899 -453.629034 
L 620.234561 -453.611703 
L 616.303222 -453.612885 
L 612.371884 -453.631514 
L 608.440545 -453.656787 
L 604.509207 -453.676891 
L 600.577868 -453.685772 
L 596.646529 -453.683657 
L 592.715191 -453.674581 
L 588.783852 -453.663312 
L 584.852514 -453.651421 
L 580.921175 -453.635416 
L 576.989836 -453.611275 
L 573.058498 -453.581967 
L 569.127159 -453.558621 
L 565.195821 -453.552176 
L 561.264482 -453.562961 
L 557.333143 -453.578812 
L 553.401805 -453.584374 
L 549.470466 -453.572052 
L 545.539128 -453.544471 
L 541.607789 -453.510835 
L 537.67645 -453.484007 
L 533.745112 -453.476308 
L 529.813773 -453.491432 
L 525.882435 -453.520509 
L 521.951096 -453.549249 
L 518.019757 -453.569332 
L 514.088419 -453.582678 
L 510.15708 -453.595458 
L 506.225742 -453.607882 
L 502.294403 -453.609674 
L 498.363064 -453.58659 
L 494.431726 -453.53262 
L 490.500387 -453.455574 
L 486.569049 -453.370895 
L 482.63771 -453.291898 
L 478.706371 -453.224583 
L 474.775033 -453.16656 
L 470.843694 -453.111877 
L 466.912356 -453.061536 
L 462.981017 -453.024085 
L 459.049678 -452.999347 
L 455.11834 -452.969362 
L 451.187001 -452.915412 
L 447.255663 -452.840362 
L 443.324324 -452.765765 
L 439.392985 -452.706016 
L 435.461647 -452.649839 
L 431.530308 -452.570102 
L 427.59897 -452.450147 
L 423.667631 -452.295989 
L 419.736292 -452.121023 
L 415.804954 -451.92564 
L 411.873615 -451.704418 
L 407.942277 -451.47397 
L 404.010938 -451.271806 
L 400.079599 -451.109624 
L 396.148261 -450.941244 
L 392.216922 -450.699139 
L 388.285584 -450.363081 
L 384.354245 -449.983634 
L 380.422907 -449.635961 
L 376.491568 -449.346743 
L 372.560229 -449.06004 
L 368.628891 -448.676507 
L 364.697552 -448.130258 
L 360.766214 -447.428437 
L 356.834875 -446.626028 
L 352.903536 -445.776048 
L 348.972198 -444.88943 
L 345.040859 -443.904206 
L 341.109521 -442.686066 
L 337.178182 -441.103203 
L 333.246843 -439.142996 
L 329.315505 -436.954752 
L 325.384166 -434.758729 
L 321.452828 -432.692325 
L 317.521489 -430.718202 
L 313.59015 -428.68214 
L 309.658812 -426.484636 
L 305.727473 -424.181857 
L 301.796135 -421.898961 
L 297.864796 -419.699362 
L 293.933457 -417.591523 
L 290.002119 -415.622082 
L 286.07078 -413.923908 
L 282.139442 -412.737178 
L 278.208103 -412.4725 
L 274.276764 -413.748103 
L 270.345426 -417.228611 
L 266.414087 -423.184376 
L 262.482749 -430.990778 
L 258.55141 -439.10028 
L 254.620071 -445.794854 
L 250.688733 -450.168232 
L 246.757394 -452.418738 
z
" style="stroke: #424242; stroke-opacity: 0.85; stroke-width: 2.5"/>
    </defs>
    <g clip-path="url(#pf74de8f0e2)">
     <use xlink:href="#m6e16173b7a" x="0" y="576" style="fill: #3492b8; fill-opacity: 0.85; stroke: #424242; stroke-opacity: 0.85; stroke-width: 2.5"/>
    </g>
   </g>
   <g id="PolyCollection_2">
    <defs>
     <path id="m44bdffb56e" d="M 251.732016 -349.610679 
L 251.732016 -351.644321 
L 256.51534 -355.881263 
L 261.298664 -365.521505 
L 266.081987 -377.181621 
L 270.865311 -385.833964 
L 275.648635 -390.393175 
L 280.431958 -391.8575 
L 285.215282 -391.275257 
L 289.998605 -389.109383 
L 294.781929 -385.980875 
L 299.565253 -382.882575 
L 304.348576 -380.063824 
L 309.1319 -377.482547 
L 313.915223 -375.158183 
L 318.698547 -372.852277 
L 323.481871 -370.537429 
L 328.265194 -368.436114 
L 333.048518 -366.528055 
L 337.831842 -364.642575 
L 342.615165 -362.787418 
L 347.398489 -361.187527 
L 352.181812 -359.879409 
L 356.965136 -358.693832 
L 361.74846 -357.606004 
L 366.531783 -356.635212 
L 371.315107 -355.734055 
L 376.098431 -354.943997 
L 380.881754 -354.361968 
L 385.665078 -353.943446 
L 390.448401 -353.56448 
L 395.231725 -353.262542 
L 400.015049 -353.034358 
L 404.798372 -352.778982 
L 409.581696 -352.480947 
L 414.36502 -352.185764 
L 419.148343 -351.949096 
L 423.931667 -351.775723 
L 428.71499 -351.653676 
L 433.498314 -351.596514 
L 438.281638 -351.560996 
L 443.064961 -351.471111 
L 447.848285 -351.343088 
L 452.631609 -351.24658 
L 457.414932 -351.213101 
L 462.198256 -351.21561 
L 466.981579 -351.200487 
L 471.764903 -351.149136 
L 476.548227 -351.102008 
L 481.33155 -351.081678 
L 486.114874 -351.04052 
L 490.898198 -350.968773 
L 495.681521 -350.904032 
L 500.464845 -350.870055 
L 505.248168 -350.857606 
L 510.031492 -350.848452 
L 514.814816 -350.853978 
L 519.598139 -350.868995 
L 524.381463 -350.858717 
L 529.164787 -350.833568 
L 533.94811 -350.821516 
L 538.731434 -350.829622 
L 543.514757 -350.836456 
L 548.298081 -350.824813 
L 553.081405 -350.799465 
L 557.864728 -350.769549 
L 562.648052 -350.750904 
L 567.431375 -350.73775 
L 572.214699 -350.71708 
L 576.998023 -350.695142 
L 581.781346 -350.68187 
L 586.56467 -350.673336 
L 591.347994 -350.663859 
L 596.131317 -350.652356 
L 600.914641 -350.643017 
L 605.697964 -350.641627 
L 610.481288 -350.646865 
L 615.264612 -350.652194 
L 620.047935 -350.656968 
L 624.831259 -350.658384 
L 629.614583 -350.652582 
L 634.397906 -350.642778 
L 639.18123 -350.637464 
L 643.964553 -350.636355 
L 648.747877 -350.635872 
L 653.531201 -350.635433 
L 658.314524 -350.632355 
L 663.097848 -350.628953 
L 667.881172 -350.627699 
L 672.664495 -350.627512 
L 677.447819 -350.6275 
L 682.231142 -350.6275 
L 687.014466 -350.6275 
L 691.79779 -350.627501 
L 696.581113 -350.627527 
L 701.364437 -350.62785 
L 706.147761 -350.629593 
L 710.931084 -350.63316 
L 715.714408 -350.634425 
L 720.497731 -350.631333 
L 725.281055 -350.62846 
L 725.281055 -350.62654 
L 725.281055 -350.62654 
L 720.497731 -350.623667 
L 715.714408 -350.620575 
L 710.931084 -350.62184 
L 706.147761 -350.625407 
L 701.364437 -350.62715 
L 696.581113 -350.627473 
L 691.79779 -350.627499 
L 687.014466 -350.6275 
L 682.231142 -350.6275 
L 677.447819 -350.6275 
L 672.664495 -350.627488 
L 667.881172 -350.627301 
L 663.097848 -350.626047 
L 658.314524 -350.622645 
L 653.531201 -350.619567 
L 648.747877 -350.619128 
L 643.964553 -350.618645 
L 639.18123 -350.617536 
L 634.397906 -350.612222 
L 629.614583 -350.602418 
L 624.831259 -350.596616 
L 620.047935 -350.598032 
L 615.264612 -350.602806 
L 610.481288 -350.608135 
L 605.697964 -350.613373 
L 600.914641 -350.611983 
L 596.131317 -350.602644 
L 591.347994 -350.591141 
L 586.56467 -350.581664 
L 581.781346 -350.57313 
L 576.998023 -350.559858 
L 572.214699 -350.53792 
L 567.431375 -350.51725 
L 562.648052 -350.504096 
L 557.864728 -350.485451 
L 553.081405 -350.455535 
L 548.298081 -350.430187 
L 543.514757 -350.418544 
L 538.731434 -350.425378 
L 533.94811 -350.433484 
L 529.164787 -350.421432 
L 524.381463 -350.396283 
L 519.598139 -350.386005 
L 514.814816 -350.401022 
L 510.031492 -350.406548 
L 505.248168 -350.397394 
L 500.464845 -350.384945 
L 495.681521 -350.350968 
L 490.898198 -350.286227 
L 486.114874 -350.21448 
L 481.33155 -350.173322 
L 476.548227 -350.152992 
L 471.764903 -350.105864 
L 466.981579 -350.054513 
L 462.198256 -350.03939 
L 457.414932 -350.041899 
L 452.631609 -350.00842 
L 447.848285 -349.911912 
L 443.064961 -349.783889 
L 438.281638 -349.694004 
L 433.498314 -349.658486 
L 428.71499 -349.601324 
L 423.931667 -349.479277 
L 419.148343 -349.305904 
L 414.36502 -349.069236 
L 409.581696 -348.774053 
L 404.798372 -348.476018 
L 400.015049 -348.220642 
L 395.231725 -347.992458 
L 390.448401 -347.69052 
L 385.665078 -347.311554 
L 380.881754 -346.893032 
L 376.098431 -346.311003 
L 371.315107 -345.520945 
L 366.531783 -344.619788 
L 361.74846 -343.648996 
L 356.965136 -342.561168 
L 352.181812 -341.375591 
L 347.398489 -340.067473 
L 342.615165 -338.467582 
L 337.831842 -336.612425 
L 333.048518 -334.726945 
L 328.265194 -332.818886 
L 323.481871 -330.717571 
L 318.698547 -328.402723 
L 313.915223 -326.096817 
L 309.1319 -323.772453 
L 304.348576 -321.191176 
L 299.565253 -318.372425 
L 294.781929 -315.274125 
L 289.998605 -312.145617 
L 285.215282 -309.979743 
L 280.431958 -309.3975 
L 275.648635 -310.861825 
L 270.865311 -315.421036 
L 266.081987 -324.073379 
L 261.298664 -335.733495 
L 256.51534 -345.373737 
L 251.732016 -349.610679 
z
" style="stroke: #424242; stroke-opacity: 0.85; stroke-width: 2.5"/>
    </defs>
    <g clip-path="url(#pf74de8f0e2)">
     <use xlink:href="#m44bdffb56e" x="0" y="576" style="fill: #df2020; fill-opacity: 0.85; stroke: #424242; stroke-opacity: 0.85; stroke-width: 2.5"/>
    </g>
   </g>
   <g id="PolyCollection_3">
    <defs>
     <path id="m640b0aedc7" d="M 254.607063 -246.460032 
L 254.607063 -248.644968 
L 256.614929 -250.591707 
L 258.622794 -254.423061 
L 260.63066 -260.411815 
L 262.638525 -267.938736 
L 264.646391 -275.641682 
L 266.654256 -282.091844 
L 268.662122 -286.410047 
L 270.669987 -288.4742 
L 272.677853 -288.7825 
L 274.685718 -288.090533 
L 276.693584 -286.986106 
L 278.701449 -285.682058 
L 280.709315 -284.132808 
L 282.71718 -282.292975 
L 284.725046 -280.271955 
L 286.732911 -278.249977 
L 288.740777 -276.270639 
L 290.748642 -274.205918 
L 292.756508 -271.952776 
L 294.764373 -269.584365 
L 296.772239 -267.290297 
L 298.780104 -265.22628 
L 300.787969 -263.412023 
L 302.795835 -261.740509 
L 304.8037 -260.112527 
L 306.811566 -258.574505 
L 308.819431 -257.285192 
L 310.827297 -256.333105 
L 312.835162 -255.626237 
L 314.843028 -254.978167 
L 316.850893 -254.26286 
L 318.858759 -253.478052 
L 320.866624 -252.71145 
L 322.87449 -252.062472 
L 324.882355 -251.563373 
L 326.890221 -251.166683 
L 328.898086 -250.815363 
L 330.905952 -250.505121 
L 332.913817 -250.263134 
L 334.921683 -250.08812 
L 336.929548 -249.934814 
L 338.937414 -249.749958 
L 340.945279 -249.51326 
L 342.953145 -249.251286 
L 344.96101 -249.017683 
L 346.968876 -248.854514 
L 348.976741 -248.765628 
L 350.984607 -248.722763 
L 352.992472 -248.693909 
L 355.000338 -248.66067 
L 357.008203 -248.609287 
L 359.016068 -248.522854 
L 361.023934 -248.398384 
L 363.031799 -248.262753 
L 365.039665 -248.155001 
L 367.04753 -248.093805 
L 369.055396 -248.070996 
L 371.063261 -248.071037 
L 373.071127 -248.085128 
L 375.078992 -248.107925 
L 377.086858 -248.128213 
L 379.094723 -248.127268 
L 381.102589 -248.090229 
L 383.110454 -248.017493 
L 385.11832 -247.921689 
L 387.126185 -247.819543 
L 389.134051 -247.730134 
L 391.141916 -247.671556 
L 393.149782 -247.650472 
L 395.157647 -247.6557 
L 397.165513 -247.665873 
L 399.173378 -247.665416 
L 401.181244 -247.653678 
L 403.189109 -247.640122 
L 405.196975 -247.634144 
L 407.20484 -247.639781 
L 409.212706 -247.654811 
L 411.220571 -247.670852 
L 413.228436 -247.676231 
L 415.236302 -247.663137 
L 417.244167 -247.634262 
L 419.252033 -247.601328 
L 421.259898 -247.575803 
L 423.267764 -247.561796 
L 425.275629 -247.557413 
L 427.283495 -247.559938 
L 429.29136 -247.567829 
L 431.299226 -247.578579 
L 433.307091 -247.587049 
L 435.314957 -247.588504 
L 437.322822 -247.583765 
L 439.330688 -247.57924 
L 441.338553 -247.580394 
L 443.346419 -247.585851 
L 445.354284 -247.588892 
L 447.36215 -247.584622 
L 449.370015 -247.574615 
L 451.377881 -247.564267 
L 453.385746 -247.557328 
L 453.385746 -247.547672 
L 453.385746 -247.547672 
L 451.377881 -247.540733 
L 449.370015 -247.530385 
L 447.36215 -247.520378 
L 445.354284 -247.516108 
L 443.346419 -247.519149 
L 441.338553 -247.524606 
L 439.330688 -247.52576 
L 437.322822 -247.521235 
L 435.314957 -247.516496 
L 433.307091 -247.517951 
L 431.299226 -247.526421 
L 429.29136 -247.537171 
L 427.283495 -247.545062 
L 425.275629 -247.547587 
L 423.267764 -247.543204 
L 421.259898 -247.529197 
L 419.252033 -247.503672 
L 417.244167 -247.470738 
L 415.236302 -247.441863 
L 413.228436 -247.428769 
L 411.220571 -247.434148 
L 409.212706 -247.450189 
L 407.20484 -247.465219 
L 405.196975 -247.470856 
L 403.189109 -247.464878 
L 401.181244 -247.451322 
L 399.173378 -247.439584 
L 397.165513 -247.439127 
L 395.157647 -247.4493 
L 393.149782 -247.454528 
L 391.141916 -247.433444 
L 389.134051 -247.374866 
L 387.126185 -247.285457 
L 385.11832 -247.183311 
L 383.110454 -247.087507 
L 381.102589 -247.014771 
L 379.094723 -246.977732 
L 377.086858 -246.976787 
L 375.078992 -246.997075 
L 373.071127 -247.019872 
L 371.063261 -247.033963 
L 369.055396 -247.034004 
L 367.04753 -247.011195 
L 365.039665 -246.949999 
L 363.031799 -246.842247 
L 361.023934 -246.706616 
L 359.016068 -246.582146 
L 357.008203 -246.495713 
L 355.000338 -246.44433 
L 352.992472 -246.411091 
L 350.984607 -246.382237 
L 348.976741 -246.339372 
L 346.968876 -246.250486 
L 344.96101 -246.087317 
L 342.953145 -245.853714 
L 340.945279 -245.59174 
L 338.937414 -245.355042 
L 336.929548 -245.170186 
L 334.921683 -245.01688 
L 332.913817 -244.841866 
L 330.905952 -244.599879 
L 328.898086 -244.289637 
L 326.890221 -243.938317 
L 324.882355 -243.541627 
L 322.87449 -243.042528 
L 320.866624 -242.39355 
L 318.858759 -241.626948 
L 316.850893 -240.84214 
L 314.843028 -240.126833 
L 312.835162 -239.478763 
L 310.827297 -238.771895 
L 308.819431 -237.819808 
L 306.811566 -236.530495 
L 304.8037 -234.992473 
L 302.795835 -233.364491 
L 300.787969 -231.692977 
L 298.780104 -229.87872 
L 296.772239 -227.814703 
L 294.764373 -225.520635 
L 292.756508 -223.152224 
L 290.748642 -220.899082 
L 288.740777 -218.834361 
L 286.732911 -216.855023 
L 284.725046 -214.833045 
L 282.71718 -212.812025 
L 280.709315 -210.972192 
L 278.701449 -209.422942 
L 276.693584 -208.118894 
L 274.685718 -207.014467 
L 272.677853 -206.3225 
L 270.669987 -206.6308 
L 268.662122 -208.694953 
L 266.654256 -213.013156 
L 264.646391 -219.463318 
L 262.638525 -227.166264 
L 260.63066 -234.693185 
L 258.622794 -240.681939 
L 256.614929 -244.513293 
L 254.607063 -246.460032 
z
" style="stroke: #424242; stroke-opacity: 0.85; stroke-width: 2.5"/>
    </defs>
    <g clip-path="url(#pf74de8f0e2)">
     <use xlink:href="#m640b0aedc7" x="0" y="576" style="fill: #586a83; fill-opacity: 0.85; stroke: #424242; stroke-opacity: 0.85; stroke-width: 2.5"/>
    </g>
   </g>
   <g id="PolyCollection_4">
    <defs>
     <path id="mb6a085d822" d="M 249.555904 -143.507398 
L 249.555904 -145.447602 
L 253.066522 -147.375217 
L 256.577141 -151.326786 
L 260.087759 -157.608767 
L 263.598378 -165.521824 
L 267.108996 -173.586105 
L 270.619615 -180.239406 
L 274.130234 -184.392752 
L 277.640852 -185.7075 
L 281.151471 -184.660365 
L 284.662089 -182.31476 
L 288.172708 -179.790273 
L 291.683327 -177.696837 
L 295.193945 -175.967782 
L 298.704564 -174.234285 
L 302.215182 -172.311566 
L 305.725801 -170.286893 
L 309.23642 -168.260181 
L 312.747038 -166.170644 
L 316.257657 -163.90394 
L 319.768275 -161.496526 
L 323.278894 -159.177981 
L 326.789513 -157.200413 
L 330.300131 -155.646169 
L 333.81075 -154.4131 
L 337.321368 -153.35873 
L 340.831987 -152.415884 
L 344.342605 -151.577453 
L 347.853224 -150.832262 
L 351.363843 -150.147299 
L 354.874461 -149.492212 
L 358.38508 -148.868206 
L 361.895698 -148.312372 
L 365.406317 -147.865111 
L 368.916936 -147.526385 
L 372.427554 -147.246792 
L 375.938173 -146.973824 
L 379.448791 -146.704944 
L 382.95941 -146.476696 
L 386.470029 -146.308535 
L 389.980647 -146.180233 
L 393.491266 -146.061868 
L 397.001884 -145.945946 
L 400.512503 -145.842001 
L 404.023122 -145.749987 
L 407.53374 -145.653774 
L 411.044359 -145.548018 
L 414.554977 -145.459048 
L 418.065596 -145.413257 
L 421.576215 -145.389357 
L 425.086833 -145.335704 
L 428.597452 -145.234492 
L 432.10807 -145.117219 
L 435.618689 -145.01878 
L 439.129307 -144.945969 
L 442.639926 -144.890903 
L 446.150545 -144.847782 
L 449.661163 -144.807949 
L 453.171782 -144.755987 
L 456.6824 -144.68487 
L 460.193019 -144.61033 
L 463.703638 -144.561003 
L 467.214256 -144.554982 
L 470.724875 -144.586222 
L 474.235493 -144.629114 
L 477.746112 -144.659009 
L 481.256731 -144.671378 
L 484.767349 -144.675716 
L 488.277968 -144.674162 
L 491.788586 -144.658465 
L 495.299205 -144.626823 
L 498.809824 -144.591316 
L 502.320442 -144.565996 
L 505.831061 -144.554576 
L 509.341679 -144.550449 
L 512.852298 -144.544267 
L 516.362916 -144.532281 
L 519.873535 -144.520041 
L 523.384154 -144.517207 
L 526.894772 -144.526903 
L 530.405391 -144.540713 
L 533.916009 -144.547044 
L 537.426628 -144.544751 
L 540.937247 -144.543241 
L 544.447865 -144.547061 
L 547.958484 -144.547777 
L 551.469102 -144.536102 
L 554.979721 -144.515129 
L 558.49034 -144.49568 
L 562.000958 -144.484138 
L 565.511577 -144.479759 
L 569.022195 -144.479933 
L 572.532814 -144.483986 
L 576.043433 -144.492306 
L 579.554051 -144.50284 
L 583.06467 -144.509788 
L 586.575288 -144.508118 
L 590.085907 -144.499108 
L 593.596526 -144.488849 
L 597.107144 -144.481936 
L 597.107144 -144.473064 
L 597.107144 -144.473064 
L 593.596526 -144.466151 
L 590.085907 -144.455892 
L 586.575288 -144.446882 
L 583.06467 -144.445212 
L 579.554051 -144.45216 
L 576.043433 -144.462694 
L 572.532814 -144.471014 
L 569.022195 -144.475067 
L 565.511577 -144.475241 
L 562.000958 -144.470862 
L 558.49034 -144.45932 
L 554.979721 -144.439871 
L 551.469102 -144.418898 
L 547.958484 -144.407223 
L 544.447865 -144.407939 
L 540.937247 -144.411759 
L 537.426628 -144.410249 
L 533.916009 -144.407956 
L 530.405391 -144.414287 
L 526.894772 -144.428097 
L 523.384154 -144.437793 
L 519.873535 -144.434959 
L 516.362916 -144.422719 
L 512.852298 -144.410733 
L 509.341679 -144.404551 
L 505.831061 -144.400424 
L 502.320442 -144.389004 
L 498.809824 -144.363684 
L 495.299205 -144.328177 
L 491.788586 -144.296535 
L 488.277968 -144.280838 
L 484.767349 -144.279284 
L 481.256731 -144.283622 
L 477.746112 -144.295991 
L 474.235493 -144.325886 
L 470.724875 -144.368778 
L 467.214256 -144.400018 
L 463.703638 -144.393997 
L 460.193019 -144.34467 
L 456.6824 -144.27013 
L 453.171782 -144.199013 
L 449.661163 -144.147051 
L 446.150545 -144.107218 
L 442.639926 -144.064097 
L 439.129307 -144.009031 
L 435.618689 -143.93622 
L 432.10807 -143.837781 
L 428.597452 -143.720508 
L 425.086833 -143.619296 
L 421.576215 -143.565643 
L 418.065596 -143.541743 
L 414.554977 -143.495952 
L 411.044359 -143.406982 
L 407.53374 -143.301226 
L 404.023122 -143.205013 
L 400.512503 -143.112999 
L 397.001884 -143.009054 
L 393.491266 -142.893132 
L 389.980647 -142.774767 
L 386.470029 -142.646465 
L 382.95941 -142.478304 
L 379.448791 -142.250056 
L 375.938173 -141.981176 
L 372.427554 -141.708208 
L 368.916936 -141.428615 
L 365.406317 -141.089889 
L 361.895698 -140.642628 
L 358.38508 -140.086794 
L 354.874461 -139.462788 
L 351.363843 -138.807701 
L 347.853224 -138.122738 
L 344.342605 -137.377547 
L 340.831987 -136.539116 
L 337.321368 -135.59627 
L 333.81075 -134.5419 
L 330.300131 -133.308831 
L 326.789513 -131.754587 
L 323.278894 -129.777019 
L 319.768275 -127.458474 
L 316.257657 -125.05106 
L 312.747038 -122.784356 
L 309.23642 -120.694819 
L 305.725801 -118.668107 
L 302.215182 -116.643434 
L 298.704564 -114.720715 
L 295.193945 -112.987218 
L 291.683327 -111.258163 
L 288.172708 -109.164727 
L 284.662089 -106.64024 
L 281.151471 -104.294635 
L 277.640852 -103.2475 
L 274.130234 -104.562248 
L 270.619615 -108.715594 
L 267.108996 -115.368895 
L 263.598378 -123.433176 
L 260.087759 -131.346233 
L 256.577141 -137.628214 
L 253.066522 -141.579783 
L 249.555904 -143.507398 
z
" style="stroke: #424242; stroke-opacity: 0.85; stroke-width: 2.5"/>
    </defs>
    <g clip-path="url(#pf74de8f0e2)">
     <use xlink:href="#mb6a085d822" x="0" y="576" style="fill: #a44451; fill-opacity: 0.85; stroke: #424242; stroke-opacity: 0.85; stroke-width: 2.5"/>
    </g>
   </g>
   <g id="line2d_6">
    <path d="M 262.474048 122.2975 
L 390.050667 122.2975 
" clip-path="url(#pf74de8f0e2)" style="fill: none; stroke: #424242; stroke-width: 3.75; stroke-linecap: round"/>
   </g>
   <g id="line2d_7">
    <path d="M 279.114476 122.2975 
L 323.488952 122.2975 
" clip-path="url(#pf74de8f0e2)" style="fill: none; stroke: #424242; stroke-width: 11.25; stroke-linecap: round"/>
   </g>
   <g id="line2d_8">
    <path d="M 295.754905 122.2975 
" clip-path="url(#pf74de8f0e2)" style="fill: none; stroke: #424242; stroke-width: 3; stroke-linecap: round"/>
    <defs>
     <path id="m90deffefb5" d="M 0 4.6875 
L 0 -4.6875 
" style="stroke: #ffffff; stroke-width: 2.25"/>
    </defs>
    <g clip-path="url(#pf74de8f0e2)">
     <use xlink:href="#m90deffefb5" x="295.754905" y="122.2975" style="fill: #ffffff; stroke: #ffffff; stroke-width: 2.25"/>
    </g>
   </g>
   <g id="line2d_9">
    <path d="M 262.474048 225.3725 
L 392.824071 225.3725 
" clip-path="url(#pf74de8f0e2)" style="fill: none; stroke: #424242; stroke-width: 3.75; stroke-linecap: round"/>
   </g>
   <g id="line2d_10">
    <path d="M 281.887881 225.3725 
L 326.262357 225.3725 
" clip-path="url(#pf74de8f0e2)" style="fill: none; stroke: #424242; stroke-width: 11.25; stroke-linecap: round"/>
   </g>
   <g id="line2d_11">
    <path d="M 298.52831 225.3725 
" clip-path="url(#pf74de8f0e2)" style="fill: none; stroke: #424242; stroke-width: 3; stroke-linecap: round"/>
    <g clip-path="url(#pf74de8f0e2)">
     <use xlink:href="#m90deffefb5" x="298.52831" y="225.3725" style="fill: #ffffff; stroke: #ffffff; stroke-width: 2.25"/>
    </g>
   </g>
   <g id="line2d_12">
    <path d="M 262.474048 328.4475 
L 331.809167 328.4475 
" clip-path="url(#pf74de8f0e2)" style="fill: none; stroke: #424242; stroke-width: 3.75; stroke-linecap: round"/>
   </g>
   <g id="line2d_13">
    <path d="M 270.794262 328.4475 
L 295.754905 328.4475 
" clip-path="url(#pf74de8f0e2)" style="fill: none; stroke: #424242; stroke-width: 11.25; stroke-linecap: round"/>
   </g>
   <g id="line2d_14">
    <path d="M 281.887881 328.4475 
" clip-path="url(#pf74de8f0e2)" style="fill: none; stroke: #424242; stroke-width: 3; stroke-linecap: round"/>
    <g clip-path="url(#pf74de8f0e2)">
     <use xlink:href="#m90deffefb5" x="281.887881" y="328.4475" style="fill: #ffffff; stroke: #ffffff; stroke-width: 2.25"/>
    </g>
   </g>
   <g id="line2d_15">
    <path d="M 262.474048 431.5225 
L 373.410238 431.5225 
" clip-path="url(#pf74de8f0e2)" style="fill: none; stroke: #424242; stroke-width: 3.75; stroke-linecap: round"/>
   </g>
   <g id="line2d_16">
    <path d="M 276.341071 431.5225 
L 315.168738 431.5225 
" clip-path="url(#pf74de8f0e2)" style="fill: none; stroke: #424242; stroke-width: 11.25; stroke-linecap: round"/>
   </g>
   <g id="line2d_17">
    <path d="M 292.9815 431.5225 
" clip-path="url(#pf74de8f0e2)" style="fill: none; stroke: #424242; stroke-width: 3; stroke-linecap: round"/>
    <g clip-path="url(#pf74de8f0e2)">
     <use xlink:href="#m90deffefb5" x="292.9815" y="431.5225" style="fill: #ffffff; stroke: #ffffff; stroke-width: 2.25"/>
    </g>
   </g>
   <g id="patch_3">
    <path d="M 234.74 483.06 
L 234.74 70.76 
" style="fill: none; stroke: #000000; stroke-width: 2.5; stroke-linejoin: miter; stroke-linecap: square"/>
   </g>
   <g id="patch_4">
    <path d="M 234.74 483.06 
L 817.155 483.06 
" style="fill: none; stroke: #000000; stroke-width: 2.5; stroke-linejoin: miter; stroke-linecap: square"/>
   </g>
   <g id="text_11">
    <!-- Salt bridge distribution -->
    <g style="fill: #262626" transform="translate(339.906406 50.76) scale(0.34 -0.34)">
     <defs>
      <path id="Arial-BoldMT-53" d="M 231 1491 
L 1131 1578 
Q 1213 1125 1461 912 
Q 1709 700 2131 700 
Q 2578 700 2804 889 
Q 3031 1078 3031 1331 
Q 3031 1494 2936 1608 
Q 2841 1722 2603 1806 
Q 2441 1863 1863 2006 
Q 1119 2191 819 2459 
Q 397 2838 397 3381 
Q 397 3731 595 4036 
Q 794 4341 1167 4500 
Q 1541 4659 2069 4659 
Q 2931 4659 3367 4281 
Q 3803 3903 3825 3272 
L 2900 3231 
Q 2841 3584 2645 3739 
Q 2450 3894 2059 3894 
Q 1656 3894 1428 3728 
Q 1281 3622 1281 3444 
Q 1281 3281 1419 3166 
Q 1594 3019 2269 2859 
Q 2944 2700 3267 2529 
Q 3591 2359 3773 2064 
Q 3956 1769 3956 1334 
Q 3956 941 3737 597 
Q 3519 253 3119 86 
Q 2719 -81 2122 -81 
Q 1253 -81 787 320 
Q 322 722 231 1491 
z
" transform="scale(0.015625)"/>
      <path id="Arial-BoldMT-61" d="M 1116 2306 
L 319 2450 
Q 453 2931 781 3162 
Q 1109 3394 1756 3394 
Q 2344 3394 2631 3255 
Q 2919 3116 3036 2902 
Q 3153 2688 3153 2116 
L 3144 1091 
Q 3144 653 3186 445 
Q 3228 238 3344 0 
L 2475 0 
Q 2441 88 2391 259 
Q 2369 338 2359 363 
Q 2134 144 1878 34 
Q 1622 -75 1331 -75 
Q 819 -75 523 203 
Q 228 481 228 906 
Q 228 1188 362 1408 
Q 497 1628 739 1745 
Q 981 1863 1438 1950 
Q 2053 2066 2291 2166 
L 2291 2253 
Q 2291 2506 2166 2614 
Q 2041 2722 1694 2722 
Q 1459 2722 1328 2630 
Q 1197 2538 1116 2306 
z
M 2291 1594 
Q 2122 1538 1756 1459 
Q 1391 1381 1278 1306 
Q 1106 1184 1106 997 
Q 1106 813 1243 678 
Q 1381 544 1594 544 
Q 1831 544 2047 700 
Q 2206 819 2256 991 
Q 2291 1103 2291 1419 
L 2291 1594 
z
" transform="scale(0.015625)"/>
      <path id="Arial-BoldMT-6c" d="M 459 0 
L 459 4581 
L 1338 4581 
L 1338 0 
L 459 0 
z
" transform="scale(0.015625)"/>
      <path id="Arial-BoldMT-74" d="M 1981 3319 
L 1981 2619 
L 1381 2619 
L 1381 1281 
Q 1381 875 1398 808 
Q 1416 741 1477 697 
Q 1538 653 1625 653 
Q 1747 653 1978 738 
L 2053 56 
Q 1747 -75 1359 -75 
Q 1122 -75 931 4 
Q 741 84 652 211 
Q 563 338 528 553 
Q 500 706 500 1172 
L 500 2619 
L 97 2619 
L 97 3319 
L 500 3319 
L 500 3978 
L 1381 4491 
L 1381 3319 
L 1981 3319 
z
" transform="scale(0.015625)"/>
      <path id="Arial-BoldMT-20" transform="scale(0.015625)"/>
      <path id="Arial-BoldMT-62" d="M 422 0 
L 422 4581 
L 1300 4581 
L 1300 2931 
Q 1706 3394 2263 3394 
Q 2869 3394 3266 2955 
Q 3663 2516 3663 1694 
Q 3663 844 3258 384 
Q 2853 -75 2275 -75 
Q 1991 -75 1714 67 
Q 1438 209 1238 488 
L 1238 0 
L 422 0 
z
M 1294 1731 
Q 1294 1216 1456 969 
Q 1684 619 2063 619 
Q 2353 619 2558 867 
Q 2763 1116 2763 1650 
Q 2763 2219 2556 2470 
Q 2350 2722 2028 2722 
Q 1713 2722 1503 2476 
Q 1294 2231 1294 1731 
z
" transform="scale(0.015625)"/>
      <path id="Arial-BoldMT-72" d="M 1300 0 
L 422 0 
L 422 3319 
L 1238 3319 
L 1238 2847 
Q 1447 3181 1614 3287 
Q 1781 3394 1994 3394 
Q 2294 3394 2572 3228 
L 2300 2463 
Q 2078 2606 1888 2606 
Q 1703 2606 1575 2504 
Q 1447 2403 1373 2137 
Q 1300 1872 1300 1025 
L 1300 0 
z
" transform="scale(0.015625)"/>
      <path id="Arial-BoldMT-69" d="M 459 3769 
L 459 4581 
L 1338 4581 
L 1338 3769 
L 459 3769 
z
M 459 0 
L 459 3319 
L 1338 3319 
L 1338 0 
L 459 0 
z
" transform="scale(0.015625)"/>
      <path id="Arial-BoldMT-64" d="M 3503 0 
L 2688 0 
L 2688 488 
Q 2484 203 2207 64 
Q 1931 -75 1650 -75 
Q 1078 -75 670 386 
Q 263 847 263 1672 
Q 263 2516 659 2955 
Q 1056 3394 1663 3394 
Q 2219 3394 2625 2931 
L 2625 4581 
L 3503 4581 
L 3503 0 
z
M 1159 1731 
Q 1159 1200 1306 963 
Q 1519 619 1900 619 
Q 2203 619 2415 876 
Q 2628 1134 2628 1647 
Q 2628 2219 2422 2470 
Q 2216 2722 1894 2722 
Q 1581 2722 1370 2473 
Q 1159 2225 1159 1731 
z
" transform="scale(0.015625)"/>
      <path id="Arial-BoldMT-67" d="M 378 -219 
L 1381 -341 
Q 1406 -516 1497 -581 
Q 1622 -675 1891 -675 
Q 2234 -675 2406 -572 
Q 2522 -503 2581 -350 
Q 2622 -241 2622 53 
L 2622 538 
Q 2228 0 1628 0 
Q 959 0 569 566 
Q 263 1013 263 1678 
Q 263 2513 664 2953 
Q 1066 3394 1663 3394 
Q 2278 3394 2678 2853 
L 2678 3319 
L 3500 3319 
L 3500 341 
Q 3500 -247 3403 -537 
Q 3306 -828 3131 -993 
Q 2956 -1159 2664 -1253 
Q 2372 -1347 1925 -1347 
Q 1081 -1347 728 -1058 
Q 375 -769 375 -325 
Q 375 -281 378 -219 
z
M 1163 1728 
Q 1163 1200 1367 954 
Q 1572 709 1872 709 
Q 2194 709 2416 961 
Q 2638 1213 2638 1706 
Q 2638 2222 2425 2472 
Q 2213 2722 1888 2722 
Q 1572 2722 1367 2476 
Q 1163 2231 1163 1728 
z
" transform="scale(0.015625)"/>
      <path id="Arial-BoldMT-65" d="M 2381 1056 
L 3256 909 
Q 3088 428 2723 176 
Q 2359 -75 1813 -75 
Q 947 -75 531 491 
Q 203 944 203 1634 
Q 203 2459 634 2926 
Q 1066 3394 1725 3394 
Q 2466 3394 2894 2905 
Q 3322 2416 3303 1406 
L 1103 1406 
Q 1113 1016 1316 798 
Q 1519 581 1822 581 
Q 2028 581 2168 693 
Q 2309 806 2381 1056 
z
M 2431 1944 
Q 2422 2325 2234 2523 
Q 2047 2722 1778 2722 
Q 1491 2722 1303 2513 
Q 1116 2303 1119 1944 
L 2431 1944 
z
" transform="scale(0.015625)"/>
      <path id="Arial-BoldMT-73" d="M 150 947 
L 1031 1081 
Q 1088 825 1259 692 
Q 1431 559 1741 559 
Q 2081 559 2253 684 
Q 2369 772 2369 919 
Q 2369 1019 2306 1084 
Q 2241 1147 2013 1200 
Q 950 1434 666 1628 
Q 272 1897 272 2375 
Q 272 2806 612 3100 
Q 953 3394 1669 3394 
Q 2350 3394 2681 3172 
Q 3013 2950 3138 2516 
L 2309 2363 
Q 2256 2556 2107 2659 
Q 1959 2763 1684 2763 
Q 1338 2763 1188 2666 
Q 1088 2597 1088 2488 
Q 1088 2394 1175 2328 
Q 1294 2241 1995 2081 
Q 2697 1922 2975 1691 
Q 3250 1456 3250 1038 
Q 3250 581 2869 253 
Q 2488 -75 1741 -75 
Q 1063 -75 667 200 
Q 272 475 150 947 
z
" transform="scale(0.015625)"/>
      <path id="Arial-BoldMT-75" d="M 2644 0 
L 2644 497 
Q 2463 231 2167 78 
Q 1872 -75 1544 -75 
Q 1209 -75 943 72 
Q 678 219 559 484 
Q 441 750 441 1219 
L 441 3319 
L 1319 3319 
L 1319 1794 
Q 1319 1094 1367 936 
Q 1416 778 1544 686 
Q 1672 594 1869 594 
Q 2094 594 2272 717 
Q 2450 841 2515 1023 
Q 2581 1206 2581 1919 
L 2581 3319 
L 3459 3319 
L 3459 0 
L 2644 0 
z
" transform="scale(0.015625)"/>
      <path id="Arial-BoldMT-6f" d="M 256 1706 
Q 256 2144 472 2553 
Q 688 2963 1083 3178 
Q 1478 3394 1966 3394 
Q 2719 3394 3200 2905 
Q 3681 2416 3681 1669 
Q 3681 916 3195 420 
Q 2709 -75 1972 -75 
Q 1516 -75 1102 131 
Q 688 338 472 736 
Q 256 1134 256 1706 
z
M 1156 1659 
Q 1156 1166 1390 903 
Q 1625 641 1969 641 
Q 2313 641 2545 903 
Q 2778 1166 2778 1666 
Q 2778 2153 2545 2415 
Q 2313 2678 1969 2678 
Q 1625 2678 1390 2415 
Q 1156 2153 1156 1659 
z
" transform="scale(0.015625)"/>
      <path id="Arial-BoldMT-6e" d="M 3478 0 
L 2600 0 
L 2600 1694 
Q 2600 2231 2544 2389 
Q 2488 2547 2361 2634 
Q 2234 2722 2056 2722 
Q 1828 2722 1647 2597 
Q 1466 2472 1398 2265 
Q 1331 2059 1331 1503 
L 1331 0 
L 453 0 
L 453 3319 
L 1269 3319 
L 1269 2831 
Q 1703 3394 2363 3394 
Q 2653 3394 2893 3289 
Q 3134 3184 3257 3021 
Q 3381 2859 3429 2653 
Q 3478 2447 3478 2063 
L 3478 0 
z
" transform="scale(0.015625)"/>
     </defs>
     <use xlink:href="#Arial-BoldMT-53"/>
     <use xlink:href="#Arial-BoldMT-61" x="66.699219"/>
     <use xlink:href="#Arial-BoldMT-6c" x="122.314453"/>
     <use xlink:href="#Arial-BoldMT-74" x="150.097656"/>
     <use xlink:href="#Arial-BoldMT-20" x="183.398438"/>
     <use xlink:href="#Arial-BoldMT-62" x="211.181641"/>
     <use xlink:href="#Arial-BoldMT-72" x="272.265625"/>
     <use xlink:href="#Arial-BoldMT-69" x="311.181641"/>
     <use xlink:href="#Arial-BoldMT-64" x="338.964844"/>
     <use xlink:href="#Arial-BoldMT-67" x="400.048828"/>
     <use xlink:href="#Arial-BoldMT-65" x="461.132812"/>
     <use xlink:href="#Arial-BoldMT-20" x="516.748047"/>
     <use xlink:href="#Arial-BoldMT-64" x="544.53125"/>
     <use xlink:href="#Arial-BoldMT-69" x="605.615234"/>
     <use xlink:href="#Arial-BoldMT-73" x="633.398438"/>
     <use xlink:href="#Arial-BoldMT-74" x="689.013672"/>
     <use xlink:href="#Arial-BoldMT-72" x="722.314453"/>
     <use xlink:href="#Arial-BoldMT-69" x="761.230469"/>
     <use xlink:href="#Arial-BoldMT-62" x="789.013672"/>
     <use xlink:href="#Arial-BoldMT-75" x="850.097656"/>
     <use xlink:href="#Arial-BoldMT-74" x="911.181641"/>
     <use xlink:href="#Arial-BoldMT-69" x="944.482422"/>
     <use xlink:href="#Arial-BoldMT-6f" x="972.265625"/>
     <use xlink:href="#Arial-BoldMT-6e" x="1033.349609"/>
    </g>
   </g>
  </g>
 </g>
 <defs>
  <clipPath id="pf74de8f0e2">
   <rect x="234.74" y="70.76" width="582.415" height="412.3"/>
  </clipPath>
 </defs>
</svg>
